<svg xmlns="http://www.w3.org/2000/svg" xmlns:xlink="http://www.w3.org/1999/xlink" width="268" height="288" viewBox="0 0 268 288">
  <defs>
    <filter id="bg_1" x="0" y="0" width="268" height="288" filterUnits="userSpaceOnUse">
      <feOffset dy="3" input="SourceAlpha"/>
      <feGaussianBlur stdDeviation="3" result="blur"/>
      <feFlood flood-color="#bebcbc" flood-opacity="0.2"/>
      <feComposite operator="in" in2="blur"/>
      <feComposite in="SourceGraphic"/>
    </filter>
  </defs>
  <g id="Group_26288" data-name="Group 26288" transform="translate(-448 -6293)">
    <g transform="matrix(1, 0, 0, 1, 448, 6293)" filter="url(#bg_1)">
      <rect id="bg_1-2" data-name="bg 1" width="250" height="270" rx="8" transform="translate(9 6)" fill="#cfebf0"/>
    </g>
    <path id="Path_16512" data-name="Path 16512" d="M320.638,370.384H94.961V321.742s2.236-14.769,6.192-19.254a47.9,47.9,0,0,1,20.4-13.138q26.539-8.137,53.075-16.274c1.656-4.373,3.305-11.126,3.834-21.225a50.424,50.424,0,0,1-8.916-13.6,48.676,48.676,0,0,1-3.355-17.487,3.656,3.656,0,0,1-3.8,1.659,5.642,5.642,0,0,1-3.728-3.019,14.939,14.939,0,0,1-1.36-4.746,95.134,95.134,0,0,1-1.2-17.21c.05-2.456.585-5.456,2.907-6.246a4.086,4.086,0,0,1,3.3.473,275.419,275.419,0,0,1,.075-29.989c.293-5.9.787-12.022,3.691-17.17a25.724,25.724,0,0,1,12.19-10.547,61.793,61.793,0,0,1,8.294-2.9,73.235,73.235,0,0,1,40.962.426,61.55,61.55,0,0,1,6.735,2.474,25.7,25.7,0,0,1,12.187,10.547c2.9,5.148,3.4,11.266,3.694,17.17a275.419,275.419,0,0,1,.075,29.989,4.08,4.08,0,0,1,3.293-.473c2.325.79,2.86,3.791,2.91,6.246a95.134,95.134,0,0,1-1.2,17.21,14.939,14.939,0,0,1-1.36,4.746,5.656,5.656,0,0,1-3.728,3.019,3.661,3.661,0,0,1-3.8-1.659,48.661,48.661,0,0,1-3.352,17.487,50.366,50.366,0,0,1-8.919,13.6c.532,10.1,2.179,16.852,3.834,21.225q26.539,8.141,53.078,16.274a48.18,48.18,0,0,1,20.477,13.138c3.956,4.485,7.683,13.437,9.205,19.254" transform="translate(374.039 6197.74)" fill="#94a8b2"/>
  </g>
</svg>
