<svg xmlns="http://www.w3.org/2000/svg" width="33.342" height="25.061" viewBox="0 0 33.342 25.061">
  <g id="Component_46_31" data-name="Component 46 – 31" transform="translate(0 0)">
    <g id="Group_25760" data-name="Group 25760" transform="translate(6409.141 -1725)">
      <g id="Group_25759" data-name="Group 25759" transform="translate(70 -13)">
        <path id="Path_16300" data-name="Path 16300" d="M0,.729A1.158,1.158,0,0,1,.662.057C11.334,0,22.046-.04,32.713.075A1.059,1.059,0,0,1,32.387,2.1L.714,2.066A1.266,1.266,0,0,1,0,1.38Z" transform="translate(-6479.141 1760.962)" fill="#fff"/>
        <path id="Path_16301" data-name="Path 16301" d="M0,.729A1.158,1.158,0,0,1,.662.057C11.334,0,22.046-.04,32.713.075A1.059,1.059,0,0,1,32.387,2.1L.714,2.066A1.266,1.266,0,0,1,0,1.38Z" transform="translate(-6479.141 1749.48)" fill="#fff"/>
        <path id="Path_16302" data-name="Path 16302" d="M0,.729A1.158,1.158,0,0,1,.662.057C11.334,0,22.046-.04,32.713.075A1.059,1.059,0,0,1,32.387,2.1L.714,2.066A1.266,1.266,0,0,1,0,1.38Z" transform="translate(-6479.141 1738)" fill="#fff"/>
      </g>
    </g>
  </g>
</svg>
