<svg xmlns="http://www.w3.org/2000/svg" width="22.006" height="41.171" viewBox="0 0 22.006 41.171">
  <g id="Component_88_1" data-name="Component 88 – 1" transform="translate(0 0)">
    <path id="Path_16297" data-name="Path 16297" d="M45.44,224.94l3.4,2.882a.937.937,0,0,0,.953-1.575,44.88,44.88,0,0,0-4.04-3.541c-.323-.26-.807-.754-1.2-.771-.464-.02-.933.483-1.291.771a44.867,44.867,0,0,0-4.04,3.541.933.933,0,0,0,.953,1.575l3.4-2.882v5.452c0,.316.568.732.9.749.36.018.97-.411.97-.749Z" transform="translate(-33.906 -221.935)" fill="#00222f"/>
    <g id="Group_26098" data-name="Group 26098" transform="translate(6962.003 -9325.472)">
      <path id="Path_16296" data-name="Path 16296" d="M7.029.153a53.389,53.389,0,0,1,7.66-.033,8.152,8.152,0,0,1,7.084,6.625c.02,4.366.411,9.132.134,13.48a8.13,8.13,0,0,1-7.945,7.842C7.61,28.434,1,28.221.089,20.433c.225-4.177-.284-8.64,0-12.783A8.162,8.162,0,0,1,7.029.153m.833,1.768a6.233,6.233,0,0,0-5.9,5.728c-.295,4.2.233,8.749,0,12.99a6.209,6.209,0,0,0,4.287,5.268c1.659.492,6.069.411,7.925.29a6.219,6.219,0,0,0,5.867-5.765c-.252-4.153.322-8.673,0-12.782A6.336,6.336,0,0,0,15.8,2.231c-1.756-.539-6.023-.473-7.937-.31" transform="translate(-6962.003 9338.472)" fill="#00222f"/>
      <path id="Path_16298" data-name="Path 16298" d="M72.658,47.246a.968.968,0,0,1,1.279.858,25.111,25.111,0,0,1-.027,4.028.928.928,0,0,1-1.847-.077,26.553,26.553,0,0,1,.009-4.046.905.905,0,0,1,.586-.763" transform="translate(-7024.005 9297.812)" fill="#00222f"/>
    </g>
  </g>
</svg>
