<svg id="Component_54_31" data-name="Component 54 – 31" xmlns="http://www.w3.org/2000/svg" xmlns:xlink="http://www.w3.org/1999/xlink" width="28.905" height="28.905" viewBox="0 0 28.905 28.905">
  <defs>
    <clipPath id="clip-path">
      <rect id="Rectangle_7582" data-name="Rectangle 7582" width="28.905" height="28.905" transform="translate(0 0)"/>
    </clipPath>
  </defs>
  <g id="Group_25805" data-name="Group 25805" transform="translate(0 0)">
    <g id="Group_25745" data-name="Group 25745" transform="translate(0 0)" clip-path="url(#clip-path)">
      <path id="Path_16303" data-name="Path 16303" d="M12.937,0l1.752.252A11.975,11.975,0,0,1,23.871,15.2a12.568,12.568,0,0,1-2.689,4.808l7.56,7.461a.928.928,0,0,1-1.383,1.214L19.843,21.3c-.524.312-1,.69-1.527,1a12.228,12.228,0,0,1-18-7.611l-.31-1.92c.024-.52-.033-1.064,0-1.581A12.238,12.238,0,0,1,11.356,0Zm-1.7,1.88A10.131,10.131,0,0,0,4.246,18.434c5.145,6.116,15.343,4.227,17.737-3.428A10.185,10.185,0,0,0,11.232,1.88" transform="translate(0 0)"/>
    </g>
  </g>
</svg>
