<svg xmlns="http://www.w3.org/2000/svg" xmlns:xlink="http://www.w3.org/1999/xlink" width="60.63" height="50" viewBox="0 0 60.63 50">
  <defs>
    <clipPath id="clip-path">
      <rect id="Rectangle_7546" data-name="Rectangle 7546" width="60.63" height="50" fill="#008e9c"/>
    </clipPath>
  </defs>
  <g id="Group_26104" data-name="Group 26104" transform="translate(110.517 26)">
    <g id="Group_25663" data-name="Group 25663" transform="translate(-110.517 -26)" clip-path="url(#clip-path)">
      <path id="Path_16282" data-name="Path 16282" d="M12.124,22.208a12.772,12.772,0,1,1,21.328-10.67l18.127.01c.274-.066.835.4.835.616v6.975h4.855c.195,0,.614.535.614.725V27.51h3.292a.934.934,0,0,1,.728,1.054L59.877,39.382a.828.828,0,0,1-1.555-.547L60,29.183H9.891l1.766,9.768c-.192,1.144-1.412,1.26-1.736.078-.906-3.312-1.071-7.209-1.932-10.578a.911.911,0,0,1,.729-.942h3.237a1.113,1.113,0,0,0,.167-.168ZM19.579,1.762a11.066,11.066,0,1,0,10.56,16.81,11.112,11.112,0,0,0-10.56-16.81M39.355,13.224H33.44a14.1,14.1,0,0,1-1.563,5.915h7.478Zm11.384,5.915V13.391a1.13,1.13,0,0,0-.167-.167H41.029v5.915ZM33.664,20.813H30.706c-.118,0-1.406,1.438-1.677,1.671A12.815,12.815,0,0,1,13.8,23.492V27.51H33.664Zm11.607,0H35.338v6.7h9.933Zm10.826,0H47.112l-.056,6.7H56.1Z" transform="translate(-4.637 0)" fill="#008e9c"/>
      <path id="Path_16283" data-name="Path 16283" d="M39.552,94.039c.942-.768,1.585.639,2.211,1.129a5.481,5.481,0,0,0,6.576.011c.482-.388,1.081-1.428,1.7-1.376.551.046,1.017.94,1.482,1.316a5.481,5.481,0,0,0,6.639.06c.534-.43,1.513-2.074,2.286-1.061.746.978-1.168,2.43-1.919,2.879a7.186,7.186,0,0,1-8.573-.963,7.156,7.156,0,0,1-9.822,0,7.11,7.11,0,0,1-9.82-.011,7.128,7.128,0,0,1-9.822,0,7.117,7.117,0,0,1-9.821,0,7.114,7.114,0,0,1-8.349,1.086C1.582,96.7-.63,95.09.184,94.121c.829-.986,1.643.516,2.23,1a5.418,5.418,0,0,0,6.751-.052c.412-.35.983-1.276,1.505-1.276s1.135.974,1.565,1.328a5.417,5.417,0,0,0,6.751-.052c.425-.36.962-1.26,1.5-1.272.56-.013,1.1.945,1.568,1.324a5.418,5.418,0,0,0,6.751-.052c.425-.36.962-1.26,1.5-1.272.56-.013,1.1.945,1.568,1.324a5.433,5.433,0,0,0,6.7.005c.349-.287.715-.871.977-1.085" transform="translate(-0.004 -54.554)" fill="#008e9c"/>
      <path id="Path_16284" data-name="Path 16284" d="M.76,109.524c.681-.065.981.689,1.422,1.1a5.39,5.39,0,0,0,7.148,0c.409-.377.744-1.125,1.337-1.125s.927.748,1.337,1.125a5.437,5.437,0,0,0,6.857.266c.523-.4,1-1.369,1.628-1.369.613,0,.92.718,1.337,1.1a5.39,5.39,0,0,0,7.148,0c.43-.4.714-1.092,1.348-1.114.572-.02.928.748,1.325,1.114a5.407,5.407,0,0,0,6.979.166c.44-.371.95-1.25,1.514-1.283.585-.034.949.764,1.327,1.117a5.432,5.432,0,0,0,6.98.166c.473-.4.914-1.259,1.517-1.28s.935.751,1.324,1.114a5.433,5.433,0,0,0,6.98.166c.589-.5,1.258-1.879,2.125-1.012.837.837-.765,2.14-1.422,2.608a7.04,7.04,0,0,1-8.923-.642,7.214,7.214,0,0,1-9.821,0,8.845,8.845,0,0,1-3.254,1.745,7.326,7.326,0,0,1-6.663-1.715,7.692,7.692,0,0,1-3.908,1.858,7.454,7.454,0,0,1-5.913-1.858,7.37,7.37,0,0,1-8.056,1.21,17.91,17.91,0,0,1-1.765-1.21,7.259,7.259,0,0,1-9.087.567C1.132,112,.023,110.991,0,110.447a.841.841,0,0,1,.76-.923" transform="translate(0 -63.688)" fill="#008e9c"/>
      <path id="Path_16285" data-name="Path 16285" d="M34.2,10.55A2.839,2.839,0,0,1,37.44,13.37a45.309,45.309,0,0,1-.424,5.69,2.348,2.348,0,0,1-4.688,0c-.177-1.319-.294-3.229-.338-4.572a11.225,11.225,0,0,1,.031-1.875A2.96,2.96,0,0,1,34.2,10.55m.055,8.874a.649.649,0,0,0,1.041-.412c.028-1.583.333-3.176.382-4.752.018-.591.146-1.379-.339-1.779a1,1,0,0,0-1.672.662c.143,1.808.123,3.673.336,5.472a2.33,2.33,0,0,0,.251.809" transform="translate(-18.593 -6.116)" fill="#008e9c"/>
      <path id="Path_16286" data-name="Path 16286" d="M34.08,39.325a2.624,2.624,0,1,1,.206,5.1c-2.81-.388-2.823-4.657-.206-5.1M34.411,41c-.737.168-.752,1.463.026,1.711A.931.931,0,1,0,34.411,41" transform="translate(-18.698 -22.838)" fill="#008e9c"/>
    </g>
  </g>
</svg>
