<svg id="Group_26106" data-name="Group 26106" xmlns="http://www.w3.org/2000/svg" xmlns:xlink="http://www.w3.org/1999/xlink" width="38.969" height="62" viewBox="0 0 38.969 62">
  <defs>
    <clipPath id="clip-path">
      <rect id="Rectangle_7597" data-name="Rectangle 7597" width="38.969" height="62" fill="#008e9c"/>
    </clipPath>
  </defs>
  <g id="Group_25864" data-name="Group 25864" clip-path="url(#clip-path)">
    <path id="Path_16313" data-name="Path 16313" d="M4.378,110.226c-.714-.5-.639-1.056.114-1.442a16.15,16.15,0,0,1,3.066-1.22,4.969,4.969,0,0,1,2.42-.034L4.273,97.022c-.286-.573-.644-1.072.057-1.537l2.4-.68,0-5.079c-.058-.219.35-.726.519-.726H35.94c.168,0,.576.508.519.726l0,5.079,2.349.659c.29.1.345.356.483.588v.208l-6.085,11.235a6.2,6.2,0,0,1,2.92.193,24.126,24.126,0,0,1,2.96,1.326c.085.088.1.24.205.313v.415l-.484.484h-.415c-1.766-.766-3.321-1.829-5.339-1.225-1.35.4-1.824.848-3.411.744-1.272-.083-2.227-.824-3.381-.905-1.732-.122-2.638.8-4.218.905-2.108.137-3.311-1.1-5.319-.893-.974.1-1.909.793-2.983.889-1.658.149-2.2-.315-3.614-.739-2.009-.6-3.581.454-5.339,1.225Zm9.4-19.843h-5.6v3.941l5.6-1.694Zm7.018,0H15.233V92.25l5.669-1.66c.037-.05-.05-.191-.1-.207m7.156,0H22.389c-.041,0-.141.156-.1.207l5.669,1.66Zm7.053,0h-5.6V92.63l5.6,1.694ZM20.9,92.111,5.69,96.573l.794,1.469L20.9,94.116Zm1.383,0v2.005L36.7,98.042l.795-1.469ZM20.9,108.29V95.568L7.143,99.3l4.841,8.883c1.806.653,3.266-.678,5.012-.793,1.473-.1,2.551.534,3.906.9m1.383-12.722V108.29c1.354-.364,2.432-1,3.906-.9,1.746.115,3.206,1.446,5.012.793L36.044,99.3Z" transform="translate(-2.104 -48.226)" fill="#008e9c"/>
    <path id="Path_16314" data-name="Path 16314" d="M31.941,107.588c.552-.062.969.155.912.769-.04.428-.334.512-.687.631a18.336,18.336,0,0,1-2.6.649c-1.007.1-1.24-.912-.536-1.3a23.73,23.73,0,0,1,2.913-.753" transform="translate(-15.51 -58.293)" fill="#008e9c"/>
    <path id="Path_16315" data-name="Path 16315" d="M32.637,113.458a1.146,1.146,0,0,1-.364.155,20.936,20.936,0,0,1-2.9.7.707.707,0,0,1-.4-1.3,22.312,22.312,0,0,1,3.094-.781.7.7,0,0,1,.568,1.227" transform="translate(-15.519 -60.814)" fill="#008e9c"/>
    <path id="Path_16316" data-name="Path 16316" d="M47.742,107.58a1.2,1.2,0,0,1,.38,0,22.444,22.444,0,0,1,2.868.728.7.7,0,0,1-.429,1.329,22.208,22.208,0,0,1-3.027-.777.7.7,0,0,1,.208-1.281" transform="translate(-25.573 -58.285)" fill="#008e9c"/>
    <path id="Path_16317" data-name="Path 16317" d="M51.259,114.082a.861.861,0,0,1-.7.223,20.042,20.042,0,0,1-2.877-.723c-.77-.288-.657-1.424.378-1.345a21.194,21.194,0,0,1,2.978.757.723.723,0,0,1,.217,1.089" transform="translate(-25.569 -60.815)" fill="#008e9c"/>
    <path id="Path_16318" data-name="Path 16318" d="M26.312,47.367l-9.7,0c-3.9-.53-7.252-3.158-10.83-4.667a2.887,2.887,0,0,1-.4-4.863c1.733-1.286,3.318.075,4.971.689a12.342,12.342,0,0,1,1.633-1.793c.218-2.89-.144-5.932.039-8.806a9.755,9.755,0,0,1,6.332-8.477l-1.769-3.059a.648.648,0,0,1,.517-.829l9.168-.009a.651.651,0,0,1,.649.9l-1.748,3a9.632,9.632,0,0,1,5.74,5.742c1.153,3.184.343,7.136.589,10.487h-1.3V27.935a8.607,8.607,0,0,0-5.275-7.221c-.606-.27-1.652-.256-1.314-1.237l1.559-2.619H18.36l1.559,2.619a.66.66,0,0,1-.231.859c-.392.245-1.283.446-1.805.71C11.62,24.221,13.674,31.391,13.326,37.1c-.016.4-1.779,1.819-1.779,1.952l2.513,1.176a2.689,2.689,0,0,1,.772-2.6c1.393-1.235,4.7-.374,6.486-.655.442-.069,1.538-.676,2.156-.847a10.111,10.111,0,0,1,6.65.408c.166.064.807.443.855.443h1.176v1.3c0,.033-.649-.033-.649,0v7.789H38V40.876h1.3v6.045a1.008,1.008,0,0,1-.446.446H27.611v-1.3h2.6V38.077a8.4,8.4,0,0,0-6.634-.63c-.564.171-1.523.764-1.932.828-1.567.246-3.76-.24-5.33.024a1.316,1.316,0,0,0-.462,2.371,3.218,3.218,0,0,0,.443.206h6.126v1.3H15.075c-2.388-.987-4.81-2.435-7.207-3.341A1.658,1.658,0,0,0,6.492,38.7a1.59,1.59,0,0,0-.547,2.539c2.685,1.321,5.473,3.036,8.223,4.191a8.183,8.183,0,0,0,2.286.635h9.859Z" transform="translate(-2.294 -8.429)" fill="#008e9c"/>
    <path id="Path_16319" data-name="Path 16319" d="M48.544,18.167a20.558,20.558,0,0,1-2.1,10.117l.026.107c.87.615,2.441,1.493.595,2.131-1.871.647-3.92,1.019-5.8,1.663-.606.126-.863-.181-.918-.748a34.8,34.8,0,0,1,.089-4.382,15.753,15.753,0,0,1,.014-2.177c.22-.985,1.241-.1,1.686.1a14.351,14.351,0,0,0-4.1-16.469,14.2,14.2,0,0,0-16.21-1.2c-.449.255-1,.861-1.54.7-.213-.064-.492-.558-.627-.752-.69-1-1.289-2.074-1.928-3.1-.159-.619.67-.986,1.125-1.272A19.592,19.592,0,0,1,33.143.422,19.375,19.375,0,0,1,48.22,16.138c-.291-.069-1.021.276-1.224.128A18.258,18.258,0,0,0,19.253,4.131l1.5,2.342a15.44,15.44,0,0,1,22.762,18.47c-.293.78-.722,2.321-1.786,1.5l-.082,4.219,4.137-1.137c-.367-.432-.907-.471-.808-1.169a19.757,19.757,0,0,0,2.268-10.189Z" transform="translate(-9.596 0)" fill="#008e9c"/>
    <path id="Path_16320" data-name="Path 16320" d="M7.561,16.219,3.505,17.4c.361.38.862.418.815,1.054S3.236,20.4,3.178,21.169l-1.216-.406a13.793,13.793,0,0,1,.9-2.225c-.619-.5-2.241-1.227-1.079-2.053,1.975-.453,3.958-1.265,5.925-1.7.493-.109.832-.262,1.136.277V22c-.494.925-1.073.188-1.685-.1A14.367,14.367,0,0,0,8.615,35.49l-1.086.683A15.442,15.442,0,0,1,5.774,21.938c.3-.791.715-2.319,1.787-1.5Z" transform="translate(-0.743 -7.952)" fill="#008e9c"/>
    <path id="Path_16321" data-name="Path 16321" d="M39.32,32.568v1.3a2.6,2.6,0,0,1,2.6,2.6h-1.3c-.026,0-.032-.345-.1-.507a1.278,1.278,0,0,0-1.2-.792v2.6a2.6,2.6,0,0,1,0,5.193v1.3h-1.3v-1.3a2.6,2.6,0,0,1-2.6-2.6h1.3c.026,0,.038.361.1.511a1.34,1.34,0,0,0,1.2.788v-2.6a2.6,2.6,0,0,1,0-5.193v-1.3Zm-1.3,2.6a1.3,1.3,0,0,0,0,2.6Zm1.3,6.491a1.3,1.3,0,0,0,0-2.6Z" transform="translate(-19.196 -17.647)" fill="#008e9c"/>
    <path id="Path_16322" data-name="Path 16322" d="M.654,31.5a3.124,3.124,0,0,1,1.276.358A18.167,18.167,0,0,0,3.167,44.609c0,.164-.882.608-1.018.605s-.161-.087-.217-.186A16.392,16.392,0,0,1,.952,42.6a19.74,19.74,0,0,1-.3-11.1" transform="translate(0 -17.068)" fill="#008e9c"/>
    <path id="Path_16323" data-name="Path 16323" d="M28.221,38.892h-1.3V37.553a8.557,8.557,0,0,1,.267-1.275,7.59,7.59,0,0,1,1.559-2.821c.162.125.956.756.926.92a6.41,6.41,0,0,0-.981,1.539,6.875,6.875,0,0,0-.472,1.718Z" transform="translate(-14.589 -18.129)" fill="#008e9c"/>
    <path id="Path_16324" data-name="Path 16324" d="M67.641,73.672a1.306,1.306,0,0,1,.529,2.557,1.306,1.306,0,0,1-.529-2.557" transform="translate(-36.098 -39.908)" fill="#008e9c"/>
    <path id="Path_16325" data-name="Path 16325" d="M34.445,29.908l.494,1.169-.931.53c-.125-.183-.72-.832-.687-1a3.218,3.218,0,0,1,1.124-.7" transform="translate(-18.054 -16.204)" fill="#008e9c"/>
  </g>
</svg>
