<svg id="Group_26107" data-name="Group 26107" xmlns="http://www.w3.org/2000/svg" xmlns:xlink="http://www.w3.org/1999/xlink" width="61.308" height="50" viewBox="0 0 61.308 50">
  <defs>
    <clipPath id="clip-path">
      <rect id="Rectangle_7589" data-name="Rectangle 7589" width="61.308" height="50" fill="#008e9c"/>
    </clipPath>
  </defs>
  <g id="Group_25796" data-name="Group 25796" transform="translate(0 0)" clip-path="url(#clip-path)">
    <path id="Path_16308" data-name="Path 16308" d="M0,40.012a1.119,1.119,0,0,1,1.013-.6,23.783,23.783,0,0,1,5.091.483L2.4,31.569c.12-.937,1.864-1.094,2.18-1.783.809-3.225,1.064-6.685,2.195-9.794a3.834,3.834,0,0,1,1.788-1.207h2.933V15.607c0-.191.53-.684.785-.655,1.888.12,4-.181,5.863-.012.343.032,1.013.27,1.013.667v3.178h2.933a3.252,3.252,0,0,1,2.067,1.766l1.913,9.238c.638.846,2.536.873,2.129,2.313L24.658,39.59c.081.135.172.145.307.177a25.837,25.837,0,0,0,10.587.128V32.7H32.14c-.544,0-1.332-.9-1.442-1.432a25.434,25.434,0,0,1,0-4.811c.113-.535.9-1.432,1.442-1.432h5.209V13.507A2.076,2.076,0,0,1,35,12.06c-3.671-.042-7.374.12-11.028-.083a.923.923,0,0,1-.5-.7A29.8,29.8,0,0,1,23.515,6.9a.923.923,0,0,1,.841-.6L35,6.317A2.072,2.072,0,0,1,37.349,4.87c.105-1.234-.142-2.693,0-3.9a.906.906,0,0,1,.9-.9,26.376,26.376,0,0,1,3.838,0c.463.042.873.181.986.689.145.643-.12,3.97.025,4.113a2.038,2.038,0,0,1,2.352,1.447c1.072.211,3.7-.65,3.877.89a26.391,26.391,0,0,1,0,3.963c-.184,1.6-2.845.608-3.877.89-.1.027-.383,1.2-1.479,1.417-.2.039-.871-.015-.871.029V25.021h2.872V20.881a1.492,1.492,0,0,1,.66-.66H48.84V16.085c0-.189.53-.684.785-.652,1.888.118,4-.181,5.863-.012.343.029,1.013.27,1.013.665v4.137h2.214a1.5,1.5,0,0,1,.657.66v4.139c.763-.034,1.881-.142,1.925.9.015.353-.319,1.015-.667,1.015H32.559v3.838h18.5c.834,0,.834,1.92,0,1.92h-8.8v6.717c3.3.417,6.391,1.153,9.755.959,2.251-.132,4.446-.856,6.7-.964a10.1,10.1,0,0,1,1.893.029A.981.981,0,0,1,60.7,41.28c-4.078.083-7.791,1.253-11.916,1.01-2.286-.132-4.534-.839-6.82-.964-4.422-.24-8.451,1.219-12.931.964-2.332-.132-4.605-.846-6.94-.964-4.348-.218-8.316,1.2-12.7.971-1.908-.1-3.742-.633-5.623-.844-.758-.083-2.98-.02-3.409-.3-.142-.1-.223-.307-.36-.417ZM41.179,1.991H39.264V4.87h1.915Zm2.393,4.8h-6.7v4.8h6.7Zm-8.62,1.44H25.376v1.92h9.576Zm12.45,0H45.488v1.92H47.4Zm-6.224,5.277H39.264V25.021h1.915ZM17.237,16.865h-3.83v1.92h3.83Zm37.349.481h-3.83v2.879h3.83ZM23.822,28.618l-1.349-7.1a1.1,1.1,0,0,0-1.1-.817c-3.872-.358-8.286.28-12.217,0a1.135,1.135,0,0,0-.922.635L6.825,28.618c2.874-1.4,5.557-3.217,8.441-4.566l.584.142Zm27.89-6.477h-3.83v2.879h3.83Zm5.746,0h-3.83v2.879h3.83ZM25.136,34.136c.042-.554,1.113-1.714.667-2.163L15.361,26.12,4.988,31.875c-.638.275.226,1.633.49,2.107.064.11-.047.2.186.137l9.13-5.128.584-.142c3.328,1.574,6.445,3.671,9.758,5.287M14.366,31.5l-7.911,4.39L8.4,40.233a22.3,22.3,0,0,0,5.966-.1Zm1.915,0v8.277a35.162,35.162,0,0,1,6.263-.38,20.006,20.006,0,0,0,1.645-3.507Zm24.06,1.2H37.466v6.837l2.874-.12Z" transform="translate(0 0)" fill="#008e9c"/>
    <path id="Path_16309" data-name="Path 16309" d="M0,18.986v-.719c.463-.826,1.717-.647,2.58-.606,2.251.108,4.451.834,6.7.964,4.48.26,8.534-1.211,13.054-.964,3.333.181,6.182,1.16,9.7.969,2.29-.123,4.532-.831,6.817-.964,4.534-.262,8.586,1.209,13.054.964,2.717-.147,5.66-1.216,8.38-.969a.969.969,0,0,1,.326,1.9c-4.054.054-7.717,1.224-11.823.983-2.286-.132-4.534-.836-6.82-.961-4.422-.243-8.451,1.216-12.931.961-2.332-.132-4.605-.846-6.94-.964-4.348-.218-8.316,1.2-12.7.971-1.908-.1-3.742-.633-5.623-.844C3.011,19.624.79,19.69.36,19.4c-.142-.1-.223-.3-.36-.417" transform="translate(0 25.585)" fill="#008e9c"/>
    <path id="Path_16310" data-name="Path 16310" d="M0,20.551v-.719c.463-.826,1.717-.647,2.58-.606,2.251.108,4.451.834,6.7.964,4.48.26,8.534-1.211,13.054-.964,3.333.181,6.182,1.16,9.7.969,2.29-.123,4.532-.831,6.817-.964,4.534-.262,8.586,1.209,13.054.964,2.717-.147,5.66-1.216,8.38-.969a.969.969,0,0,1,.326,1.9c-4.054.054-7.717,1.224-11.823.983-2.286-.132-4.534-.836-6.82-.961-4.422-.243-8.451,1.216-12.931.961-2.332-.132-4.605-.846-6.94-.964-4.348-.218-8.316,1.2-12.7.971-1.908-.1-3.742-.633-5.623-.844-.758-.083-2.98-.017-3.409-.3-.142-.1-.223-.3-.36-.417" transform="translate(0 27.858)" fill="#008e9c"/>
  </g>
</svg>
