<svg xmlns="http://www.w3.org/2000/svg" xmlns:xlink="http://www.w3.org/1999/xlink" width="51.099" height="50" viewBox="0 0 51.099 50">
  <defs>
    <clipPath id="clip-path">
      <rect id="Rectangle_7561" data-name="Rectangle 7561" width="51.099" height="50" fill="#008e9c"/>
    </clipPath>
  </defs>
  <g id="Group_26105" data-name="Group 26105" transform="translate(-469.581 0)">
    <g id="Group_25700" data-name="Group 25700" transform="translate(469.581 -0.001)" clip-path="url(#clip-path)">
      <path id="Path_16287" data-name="Path 16287" d="M50.123,34.756c.14.157.761-.121.854.9.392,4.308-.306,9.207,0,13.577a.815.815,0,0,1-.608.77L.607,49.975a.836.836,0,0,1-.529-.849c.493-5.727-2.029-13.481,4.6-16.4l8.8-2.758c.142-.033.156-.118.18-.243A21.134,21.134,0,0,0,13.6,26.91a9.079,9.079,0,0,1-4.826-6.572A3.417,3.417,0,0,1,7.825,13.6c-.013-.488-2.351-3.564-2.711-4.391a1.008,1.008,0,0,1-.134-.778c.235-.778,3.656-2.422,4.512-2.752,1.739-6.926,13.019-7.6,16.2-1.567.168.319.551,1.505.608,1.567.088.1,1.97.9,2.338,1.107a8.651,8.651,0,0,1,2.14,1.571.724.724,0,0,1,.063.366c-.035.941-2.542,3.751-2.874,4.876a3.419,3.419,0,0,1-.947,6.74,9.154,9.154,0,0,1-4.858,6.59,21.9,21.9,0,0,0-.024,2.79c.024.125.038.21.18.243,2.739.936,5.623,1.569,8.328,2.592,2.428.918,5.063,3.639,5.063,6.387v2.6H39.1V37.035a1.319,1.319,0,0,1,.583-.583h4.506c.029-.527-.168-1.254.385-1.578a2.351,2.351,0,0,1,.464-.118V31.363h1.7v3.393h1.7V31.363h1.7c.085.442-.113,3.266,0,3.393M24.254,5.071c.075-.089-.481-.834-.581-.956-2.909-3.518-9.9-3.248-12.141.9a25.08,25.08,0,0,1,12.722.054M26.585,12.6c.125-.56,2.327-3.437,2.184-3.711a14.863,14.863,0,0,0-3.216-1.669,23.1,23.1,0,0,0-15.319,0c-.469.175-3.2,1.408-3.252,1.736L9.2,12.6c.114.075.894-.616,1.108-.745,3.674-2.2,11.183-2.265,14.9-.157a11.7,11.7,0,0,0,1.375.9m-10.091-.711a15.013,15.013,0,0,0-4.062.815c-.831.315-2.086.86-2.177,1.852a35.884,35.884,0,0,0,0,4.568,7.668,7.668,0,0,0,13.523,4.4c2.287-2.743,1.711-5.929,1.725-9.255-.544-1.06-1.933-1.548-3.029-1.848a18.613,18.613,0,0,0-5.981-.529m-7.93,3.361a1.7,1.7,0,0,0,0,3.393Zm18.659,3.393a1.7,1.7,0,0,0,0-3.393Zm-6.785,9.012a10.572,10.572,0,0,1-5.089,0v2.6l2.6,3.128c.191-.487,2.493-2.929,2.493-3.128Zm-4.559,5.936c-.386-.315-1.257-1.805-1.592-1.96-.422-.2-.945.216-1.376.267-.16.208,2.49,1.935,2.968,1.693m7-1.693c-.431-.051-.955-.462-1.376-.267-.335.155-1.206,1.645-1.592,1.96.477.242,3.129-1.486,2.969-1.693m3.393,1.06-1.65-.5a8.694,8.694,0,0,1-13.454-.006l-1.647.507c3.462,5.795,13.291,5.8,16.751,0M1.779,39.05v9.277H6.868V39.845h1.7v8.482H27.223V39.845h1.7v2.226c.145-.025.327-.53.583-.53h4.506V39.05a6.807,6.807,0,0,0-.545-1.787c-1.039-2.337-3.135-3.2-5.5-3.729a10.821,10.821,0,0,1-6.886,5.04,9.81,9.81,0,0,1,4.12,6.534c.228,1.591-.18,1.906-1.737,1.418a10.6,10.6,0,0,1-4.4-3.025,14.708,14.708,0,0,1-1.037-1.717c-.041-.065.006-.2-.184-.137-.1.034-.814,1.475-1.07,1.794a10.755,10.755,0,0,1-4.045,2.953c-2.174.85-2.47.219-2.011-1.905a9.719,9.719,0,0,1,4-5.914,11.112,11.112,0,0,1-6.942-5.056c-2.905.575-5.668,2.329-5.992,5.532m47.5-2.6H45.883v5.089h3.393Zm-5.089,1.7H40.793v3.393h3.393ZM16.727,39.527a6.937,6.937,0,0,0-4.24,5.088,6.989,6.989,0,0,0,4.24-5.088M23.3,44.615a6.935,6.935,0,0,0-4.24-5.088,6.992,6.992,0,0,0,4.24,5.088m8.483,3.711L28.92,42.707v5.619Zm17.493-5.089H31.146l2.6,5.089H49.275Z" transform="translate(0 0)" fill="#008e9c"/>
      <path id="Path_16288" data-name="Path 16288" d="M17.391,18.06a1.706,1.706,0,0,1,.691,3.341,1.706,1.706,0,0,1-.691-3.341" transform="translate(-3.236 -3.634)" fill="#008e9c"/>
      <path id="Path_16289" data-name="Path 16289" d="M25.889,18.06a1.706,1.706,0,0,1,.691,3.341,1.706,1.706,0,0,1-.691-3.341" transform="translate(-4.949 -3.634)" fill="#008e9c"/>
      <path id="Path_16290" data-name="Path 16290" d="M20.071,25.76a2.527,2.527,0,0,0,3.289,0,5.946,5.946,0,0,1,1.112,1.3,4.272,4.272,0,0,1-5.513,0,5.925,5.925,0,0,1,1.112-1.3" transform="translate(-3.821 -5.192)" fill="#008e9c"/>
      <rect id="Rectangle_7558" data-name="Rectangle 7558" width="1.697" height="1.697" transform="translate(34.008 44.933)" fill="#008e9c"/>
      <rect id="Rectangle_7559" data-name="Rectangle 7559" width="1.697" height="1.697" transform="translate(37.401 44.933)" fill="#008e9c"/>
      <rect id="Rectangle_7560" data-name="Rectangle 7560" width="1.697" height="1.697" transform="translate(40.793 44.933)" fill="#008e9c"/>
      <path id="Path_16291" data-name="Path 16291" d="M57.941,21.532h-1.97V36.049H52.031V21.532H50.12l3.852-5.206Zm-2.03-1.017L54.031,18,52.15,20.515h.9V36.049h1.911V20.515Z" transform="translate(-10.103 -3.29)" fill="#008e9c"/>
      <path id="Path_16292" data-name="Path 16292" d="M50.126,26.848H48.36V39.862H44.827V26.848H43.114l3.453-4.667Zm-1.82-.912L46.62,23.684l-1.686,2.252h.8V39.862h1.713V25.936Z" transform="translate(-8.691 -4.471)" fill="#008e9c"/>
    </g>
  </g>
</svg>
