<svg xmlns="http://www.w3.org/2000/svg" xmlns:xlink="http://www.w3.org/1999/xlink" width="72.64" height="59.242" viewBox="0 0 72.64 59.242">
  <defs>
    <clipPath id="clip-path">
      <rect id="Rectangle_7589" data-name="Rectangle 7589" width="72.64" height="59.242" fill="#008e9c"/>
    </clipPath>
  </defs>
  <g id="Group_26107" data-name="Group 26107" style="isolation: isolate">
    <g id="Group_25796" data-name="Group 25796" transform="translate(0 0)" clip-path="url(#clip-path)">
      <path id="Path_16308" data-name="Path 16308" d="M0,47.408a1.326,1.326,0,0,1,1.2-.715,28.179,28.179,0,0,1,6.032.572L2.839,37.4c.142-1.11,2.208-1.3,2.583-2.112.959-3.821,1.261-7.921,2.6-11.6a4.543,4.543,0,0,1,2.118-1.43h3.475V18.491c0-.227.628-.811.93-.776,2.237.142,4.745-.215,6.947-.015.407.038,1.2.32,1.2.79v3.766h3.475a3.853,3.853,0,0,1,2.449,2.092l2.266,10.945c.755,1,3,1.034,2.522,2.74l-4.19,8.874c.1.16.2.171.363.209a30.613,30.613,0,0,0,12.543.151V38.74H38.081c-.645,0-1.578-1.069-1.708-1.7a30.135,30.135,0,0,1,0-5.7c.134-.633,1.069-1.7,1.708-1.7h6.171V16a2.459,2.459,0,0,1-2.784-1.714c-4.35-.049-8.737.142-13.066-.1a1.094,1.094,0,0,1-.6-.825,35.313,35.313,0,0,1,.055-5.186,1.094,1.094,0,0,1,1-.706l12.61.012a2.455,2.455,0,0,1,2.784-1.714c.125-1.462-.169-3.19,0-4.62A1.074,1.074,0,0,1,45.313.084a31.251,31.251,0,0,1,4.547,0C50.409.131,50.894.3,51.028.9c.171.761-.142,4.7.029,4.873a2.415,2.415,0,0,1,2.786,1.714c1.27.25,4.382-.77,4.594,1.055a31.268,31.268,0,0,1,0,4.7c-.218,1.9-3.37.721-4.594,1.055-.122.032-.453,1.424-1.752,1.679-.238.046-1.031-.017-1.031.035V29.646h3.4v-4.9a1.768,1.768,0,0,1,.782-.782h2.624v-4.9c0-.224.628-.811.93-.773,2.237.139,4.745-.215,6.947-.015.407.035,1.2.32,1.2.787v4.9h2.624a1.776,1.776,0,0,1,.779.782v4.9c.9-.041,2.229-.169,2.281,1.069.017.418-.378,1.2-.79,1.2H38.577v4.547H60.491c.988,0,.988,2.275,0,2.275H50.066V46.7c3.905.494,7.572,1.366,11.558,1.136,2.667-.157,5.268-1.014,7.938-1.142a11.965,11.965,0,0,1,2.243.035,1.163,1.163,0,0,1,.11,2.182c-4.832.1-9.231,1.485-14.118,1.2-2.708-.157-5.372-.994-8.08-1.142C44.479,48.68,39.7,50.409,34.4,50.107c-2.763-.157-5.457-1-8.223-1.142-5.152-.259-9.853,1.421-15.045,1.151-2.261-.119-4.434-.75-6.663-1-.9-.1-3.53-.023-4.039-.36-.169-.113-.264-.363-.427-.494ZM48.791,2.359H46.521V5.771h2.269Zm2.836,5.686H43.683v5.683h7.944ZM41.413,9.751H30.067v2.275H41.413Zm14.752,0H53.9v2.275h2.269ZM48.791,16H46.521V29.646h2.269ZM20.423,19.982H15.885v2.275h4.539Zm44.252.569H60.137v3.411h4.539ZM28.225,33.908l-1.6-8.417a1.308,1.308,0,0,0-1.3-.968c-4.588-.424-9.818.331-14.476,0a1.345,1.345,0,0,0-1.092.753l-1.668,8.63c3.405-1.656,6.584-3.812,10-5.41l.692.169ZM61.27,26.235H56.732v3.411H61.27Zm6.808,0H63.539v3.411h4.539Zm-38.3,14.211c.049-.657,1.319-2.031.79-2.563L18.2,30.947,5.91,37.767c-.755.325.267,1.935.581,2.5.076.131-.055.235.221.163L17.529,34.35l.692-.169c3.943,1.865,7.636,4.35,11.561,6.264M17.021,37.319l-9.373,5.2,2.3,5.149a26.427,26.427,0,0,0,7.069-.119Zm2.269,0v9.806a41.662,41.662,0,0,1,7.421-.45,23.7,23.7,0,0,0,1.95-4.155ZM47.8,38.74H44.392v8.1L47.8,46.7Z" transform="translate(0 0)" fill="#008e9c"/>
      <path id="Path_16309" data-name="Path 16309" d="M0,19.239v-.851c.549-.979,2.034-.767,3.057-.718,2.667.128,5.274.988,7.935,1.142C16.3,19.12,21.1,17.377,26.458,17.67c3.949.215,7.325,1.374,11.489,1.148,2.714-.145,5.37-.985,8.078-1.142,5.372-.311,10.172,1.432,15.466,1.142,3.219-.174,6.706-1.441,9.928-1.148a1.148,1.148,0,0,1,.386,2.249c-4.8.064-9.144,1.45-14.008,1.165-2.708-.157-5.372-.991-8.08-1.139C44.479,19.658,39.7,21.386,34.4,21.084c-2.763-.157-5.457-1-8.223-1.142-5.152-.259-9.853,1.421-15.045,1.151-2.261-.119-4.434-.75-6.663-1-.9-.1-3.53-.02-4.039-.36-.169-.113-.264-.36-.427-.494" transform="translate(0 33.57)" fill="#008e9c"/>
      <path id="Path_16310" data-name="Path 16310" d="M0,20.8v-.851c.549-.979,2.034-.767,3.057-.718,2.667.128,5.274.988,7.935,1.142,5.309.308,10.111-1.435,15.466-1.142,3.949.215,7.325,1.374,11.489,1.148,2.714-.145,5.37-.985,8.078-1.142C51.4,18.93,56.2,20.673,61.491,20.383c3.219-.174,6.706-1.441,9.928-1.148a1.148,1.148,0,0,1,.386,2.249c-4.8.064-9.144,1.45-14.008,1.165-2.708-.157-5.372-.991-8.08-1.139C44.479,21.223,39.7,22.951,34.4,22.649c-2.763-.157-5.457-1-8.223-1.142-5.152-.259-9.853,1.421-15.045,1.151-2.261-.119-4.434-.75-6.663-1-.9-.1-3.53-.02-4.039-.36C.259,21.185.163,20.938,0,20.8" transform="translate(0 36.552)" fill="#008e9c"/>
    </g>
  </g>
</svg>
