<svg xmlns="http://www.w3.org/2000/svg" xmlns:xlink="http://www.w3.org/1999/xlink" width="46" height="46" viewBox="0 0 46 46">
  <defs>
    <clipPath id="clip-path">
      <rect id="Rectangle_7596" data-name="Rectangle 7596" width="26.199" height="24.485" transform="translate(0 0)" fill="none"/>
    </clipPath>
  </defs>
  <g id="Component_36_1" data-name="Component 36 – 1" style="mix-blend-mode: normal;isolation: isolate">
    <circle id="Ellipse_15" data-name="Ellipse 15" cx="23" cy="23" r="23" fill="#008e9c"/>
    <g id="Group_25863" data-name="Group 25863" transform="translate(10 10.999)">
      <g id="Group_25861" data-name="Group 25861" clip-path="url(#clip-path)">
        <path id="Path_16310" data-name="Path 16310" d="M14.551.049c-2.972,2.2-5.793,4.622-8.718,6.894C4.5,7.07,3.082,6.87,1.764,6.969A1.892,1.892,0,0,0,0,8.353v7.78a1.887,1.887,0,0,0,1.764,1.385c1.318.1,2.74-.1,4.069.026l8.453,6.749a.922.922,0,0,0,1.481-.812V1.107C15.791.4,15.3-.173,14.551.049M5.221,15.724H1.791V8.762h3.43Zm8.753,5.989a1.222,1.222,0,0,1-.382-.258c-2.207-1.726-4.369-3.519-6.553-5.271V8.3c2.186-1.754,4.346-3.545,6.553-5.272a1.219,1.219,0,0,1,.382-.257Z" fill="#fff"/>
        <path id="Path_16311" data-name="Path 16311" d="M22.7,3.649a.979.979,0,0,0-.9-.3.907.907,0,0,0-.445,1.5c.421.546.942,1.009,1.351,1.619a10.462,10.462,0,0,1-.637,12.407,7.637,7.637,0,0,0-.878,1.015.9.9,0,0,0,1.439,1.029,12.516,12.516,0,0,0,3.037-4.947c1.285-4.081.272-9.38-2.962-12.319" fill="#fff"/>
        <path id="Path_16312" data-name="Path 16312" d="M20.854,6.822C20.5,6.376,20.017,5.7,19.387,5.8a.915.915,0,0,0-.742,1.025c.061.386.534.754.776,1.067a6.939,6.939,0,0,1-.022,8.721c-.331.43-.869.736-.743,1.361a.913.913,0,0,0,1.356.583,7.336,7.336,0,0,0,1.355-1.615,8.792,8.792,0,0,0-.513-10.125" fill="#fff"/>
      </g>
    </g>
  </g>
</svg>
