<svg xmlns="http://www.w3.org/2000/svg" xmlns:xlink="http://www.w3.org/1999/xlink" width="38" height="37" viewBox="0 0 38 37">
  <defs>
    <clipPath id="clip-path">
      <rect id="Rectangle_7781" data-name="Rectangle 7781" width="18.234" height="18.12" fill="#008e9c" stroke="#fff" stroke-width="0.3"/>
    </clipPath>
  </defs>
  <g id="Group_26297" data-name="Group 26297" transform="translate(-139 -3074)">
    <g id="Ellipse_17" data-name="Ellipse 17" transform="translate(139 3074)" fill="#fff" stroke="#008e9c" stroke-width="0.5">
      <ellipse cx="19" cy="18.5" rx="19" ry="18.5" stroke="none"/>
      <ellipse cx="19" cy="18.5" rx="18.75" ry="18.25" fill="none"/>
    </g>
    <g id="Group_26296" data-name="Group 26296" transform="translate(149 3083)">
      <g id="Group_26295" data-name="Group 26295" transform="translate(0 0)" clip-path="url(#clip-path)">
        <path id="Path_16514" data-name="Path 16514" d="M3.194.031a1.782,1.782,0,0,1,1.531.4A29.417,29.417,0,0,1,7.674,3.377c1.5,1.834-.837,2.825-1.7,4.014-.192.265-.148.338.008.592a18.289,18.289,0,0,0,4.254,4.193c.263.155.343.23.619.035,1.17-.827,2.141-3.148,3.957-1.7,1.066.853,2.032,2.194,3.093,3.094,1.369,1.863-1.885,4.052-3.45,4.4-3.138.7-7.423-2.162-9.611-4.252C2.054,11.1-1.847,5.688.983,1.926,1.386,1.39,2.554.131,3.194.031m.177,1.01a10.3,10.3,0,0,0-1.382,1.3C.4,4.221.959,6.208,1.95,8.207a18.581,18.581,0,0,0,8.479,8.119c2.277.992,4.026,1.252,5.962-.544.379-.351.969-.8.775-1.373L14,11.208a.707.707,0,0,0-.756.062c-.986.638-1.492,2.308-2.971,2.058-.978-.165-3.877-3.136-4.564-4-.6-.755-1.311-1.53-.6-2.5.394-.532,1.843-1.6,1.975-2.135a.751.751,0,0,0-.248-.722A26.683,26.683,0,0,0,4.162,1.3a.827.827,0,0,0-.792-.254" transform="translate(0 0)" fill="#008e9c" stroke="#fff" stroke-width="0.3"/>
      </g>
    </g>
  </g>
</svg>
