<svg xmlns="http://www.w3.org/2000/svg" xmlns:xlink="http://www.w3.org/1999/xlink" width="77" height="77" viewBox="0 0 77 77">
  <defs>
    <clipPath id="clip-path">
      <rect id="Rectangle_196" data-name="Rectangle 196" width="36.776" height="43.028" fill="#fff"/>
    </clipPath>
  </defs>
  <g id="Group_4889" data-name="Group 4889" transform="translate(-464 -1219)">
    <g id="Ellipse_12" data-name="Ellipse 12" transform="translate(464 1219)" fill="none" stroke="#fff" stroke-width="0.5">
      <circle cx="38.5" cy="38.5" r="38.5" stroke="none"/>
      <circle cx="38.5" cy="38.5" r="38.25" fill="none"/>
    </g>
    <g id="Group_4814" data-name="Group 4814" transform="translate(484.17 1235.253)">
      <g id="Group_4813" data-name="Group 4813" clip-path="url(#clip-path)">
        <path id="Path_8386" data-name="Path 8386" d="M.407,43.028a.647.647,0,0,1-.337-.545C.4,38.93-.628,34.247.7,30.93c.122-.3.679-1.223.694-1.4C1.443,29-.039,28,.826,27.044,2.145,26.3,3.464,25.391,4.8,24.7c1.378-.714,1.561-.426,2.3.857a55.743,55.743,0,0,1,6.273-.182c.079-.013.09-.073.12-.132a13.269,13.269,0,0,0,.421-1.6c.045-.425-.359-.493-.617-.77a6.864,6.864,0,0,1-1.98-4.615c-3.085-.555-3.527-4.8-1.726-6.868.1-.12.384-.237.479-.4a8.527,8.527,0,0,0,.062-2.172c-.054-.239-.485-.623-.639-.873a2.952,2.952,0,0,1,.832-4.263c1.909-1.507,6-3.8,8.441-3.665,2,.112,7.236,2.9,8.483,4.456a2.887,2.887,0,0,1,.026,3.472c-.18.284-.939,1-.976,1.125a6.907,6.907,0,0,0,.062,1.919c.1.173.413.3.554.454,1.952,2.165,1.774,6.109-1.465,6.817a6.9,6.9,0,0,1-2.516,5.094,10.421,10.421,0,0,0,.463,2.043,50.518,50.518,0,0,1,6.271.167c.948-1.912,1.625-1.23,3.056-.437,1.119.619,2.227,1.293,3.292,2,.711.952-.674,1.9-.658,2.425,0,.084.648,1.23.756,1.509,1.265,3.287.256,7.918.588,11.431l-.254.544Zm25.848-38.2a24.18,24.18,0,0,0-4.03-2.565C18.744.419,17.294.736,13.962,2.6,13.07,3.1,10.7,4.444,10.2,5.223a2.132,2.132,0,0,0,.754,2.767H25.821a2.039,2.039,0,0,0,.434-3.161M25.277,9H11.162v1.764H25.277ZM11.246,17.15V12.235a2.83,2.83,0,0,0-.25-.424c-.323-.206-.76.364-.91.607-.89,1.429-.772,4.257,1.16,4.732m13.023-5.377H12.17c.229.6.87,2.131,1.509,2.313l9.018.021c.875-.447,1.172-1.5,1.572-2.334M25.53,17.15c1.944-.6,1.941-2.785,1.106-4.341-.223-.418-.594-1-1.106-1.036ZM12.339,14.377c.126,1.919-.338,3.9.356,5.735,2.239,5.923,11.581,4.617,11.795-2.066l-.053-4.173c-.471.534-.852,1.177-1.638,1.261-2.857.307-6.244-.23-9.158,0a2.4,2.4,0,0,1-1.3-.756M14.86,24.04c-.056.374-.516,1.467-.381,1.761l3.879,3.861.2-.117c.438-.619,3.714-3.458,3.78-3.872A11.356,11.356,0,0,0,22,23.956a7.441,7.441,0,0,1-7.139.084M5.744,25.3c-.128.152-.737.341-.707.531.013.085.811,1.424.874,1.484.2.193.8-.223.788-.363A10.256,10.256,0,0,0,5.744,25.3m25.078,2.182c.022-.291.952-1.6.925-1.718-.022-.1-.6-.341-.715-.462a10.212,10.212,0,0,0-.955,1.65c-.016.192.577.432.745.53M3.275,26.74c-.107.184.783,1.447.911,1.716l.89-.466a9.338,9.338,0,0,0-.885-1.646c-.127-.083-.887.348-.916.4m29.365-.428c-.134.039-.8,1.425-.969,1.636a4.86,4.86,0,0,0,.875.524,8.9,8.9,0,0,0,.966-1.621c0-.159-.755-.572-.872-.539M1.08,33.492c-.141,1.654.1,3.493,0,5.167H5.364V35.592c0-.52,1.008-.389,1.008.084v6.343h9.158c.126-2.141.234-4.283.337-6.427a4.759,4.759,0,0,0,.04-1.638c-.154-.335-.836-.765-.8-1.262L12.194,34.1c-.651.139-.744-.186-.674-.757l1.659-6.953-5.46.084a1.164,1.164,0,0,1-.343,1.38,34.94,34.94,0,0,1-4.247,2.475,1.815,1.815,0,0,1-.5.176c-.518.032-.455-.3-.8.365a9.079,9.079,0,0,0-.741,2.62m20.165,8.528H30.4V35.676c0-.473,1.008-.6,1.008-.084v3.066H35.7V33.492a9.523,9.523,0,0,0-.741-2.62c-.348-.668-.284-.333-.8-.365-.878-.053-3.717-2.289-4.752-2.65-.493-.4-.456-.8-.341-1.381L23.6,26.392c.5,2.458,1.248,4.879,1.676,7.344-.056.417-.319.443-.692.366L21.71,32.691c-.07.486-.694.9-.84,1.266a4.687,4.687,0,0,0,.038,1.636c.1,2.144.208,4.286.337,6.427m-8.485-9.326,4.7-2.4-3.32-3.4Zm11.257,0-1.385-5.8-3.32,3.4ZM3.253,29.068c.109-.186-.772-1.454-.911-1.716a1.985,1.985,0,0,0-.721.383c-.079.122.007.133.042.215.059.141.784,1.413.853,1.462a2.68,2.68,0,0,0,.737-.344m31.939-1.415c-.244.028-.6-.4-.758-.3a8.227,8.227,0,0,0-.919,1.724l.746.335ZM20.824,32.19l-2.465-1.158-2.411,1.2a2.639,2.639,0,0,0,4.876-.045m-4.285,9.829h3.7l-.42-7.393a3.957,3.957,0,0,1-2.813,0ZM5.364,39.667H1.079v2.352H5.364Zm30.331,0H31.41v2.352H35.7Z" transform="translate(0 0)" fill="#fff"/>
        <path id="Path_8387" data-name="Path 8387" d="M25.819,5.51c-.082-.083-1.044.253-1.006-.538.022-.456.653-.474,1.006-.471.073-.361-.134-.206-.368-.346a.488.488,0,0,1-.141-.793,3.135,3.135,0,0,1,2.024,0,.488.488,0,0,1-.141.793c-.233.14-.442-.015-.368.346.461-.069,1.222.186.965.754-.19.419-.965.2-.965.254V6.77c.621-.152.58-1.306,1.343-.964.567.254.042,1.123-.251,1.425a2.259,2.259,0,0,1-3.153.046c-.321-.317-.921-1.293-.231-1.5.742-.221.659.834,1.284.992-.033-.188.044-1.216,0-1.261" transform="translate(-7.936 -1.047)" fill="#fff"/>
        <path id="Path_8388" data-name="Path 8388" d="M23.931,26.524a3.457,3.457,0,0,1,1.309.214c.329-.02.565-.327,1.267-.229.535.075,1.16.649,1.6.67s.717-.391,1.071-.328c.719.126.307,1.076.079,1.473a2.988,2.988,0,0,1-3.486,1.269c-.188-.071-.432-.317-.592-.3-.1.01-.45.271-.662.344a3,3,0,0,1-3.327-1.257c-.21-.34-.569-1.036-.23-1.376.378-.378.717.095,1.118.154.622.091,1.19-.536,1.849-.632m-1.66,1.659c.479.711,2.578.891,2.434-.286-.135-1.107-1.86.489-2.434.286m5.881,0c-.588.2-2.391-1.458-2.442-.209-.046,1.12,1.983.885,2.442.209" transform="translate(-6.824 -8.681)" fill="#fff"/>
      </g>
    </g>
  </g>
</svg>
