<svg xmlns="http://www.w3.org/2000/svg" xmlns:xlink="http://www.w3.org/1999/xlink" width="78" height="77" viewBox="0 0 78 77">
  <defs>
    <clipPath id="clip-path">
      <rect id="Rectangle_194" data-name="Rectangle 194" width="43.157" height="28.478" transform="translate(0 0)" fill="#fff"/>
    </clipPath>
  </defs>
  <g id="Group_4890" data-name="Group 4890" transform="translate(-147 -1219)">
    <g id="Ellipse_12" data-name="Ellipse 12" transform="translate(147 1219)" fill="none" stroke="#fff" stroke-width="0.5">
      <ellipse cx="39" cy="38.5" rx="39" ry="38.5" stroke="none"/>
      <ellipse cx="39" cy="38.5" rx="38.75" ry="38.25" fill="none"/>
    </g>
    <g id="Group_4808" data-name="Group 4808" transform="translate(163.858 1243.276)">
      <g id="Group_4807" data-name="Group 4807" transform="translate(0 0)" clip-path="url(#clip-path)">
        <path id="Path_8382" data-name="Path 8382" d="M0,17.019c.122-.14.56-.674.717-.674H2.191V12.638a.94.94,0,0,1-.786-.69c-.126-.488-.158-1.993.234-2.347a2.58,2.58,0,0,1,.51-.25H4.128V4.423a1.7,1.7,0,0,1,.632-.632H7.751V.548c0-.258.44-.56.71-.547C8.7.013,9.1.317,9.1.548V3.791h2.991a1.7,1.7,0,0,1,.632.632V9.352H14.7a3.548,3.548,0,0,1,.461.212c.469.354.454,2.285.127,2.735-.175.242-.631.3-.631.339v3.707h1.854V6.024c0-.505.532-.763.966-.8,3.44-.322,7.379.247,10.871,0a1,1,0,0,1,.885.715v4.845h4.845c.148,0,.8.554.8.716v3.918l.5-.8a1.853,1.853,0,0,1,.972-.461c1.838-.2,4.02.145,5.894,0a1.229,1.229,0,0,1,.823,1.657c-2.033,3.774-3.5,8.155-5.564,11.876a1.366,1.366,0,0,1-1.153.786L3.113,28.44c-2.347-.823.493-3.231.24-4.367a18.562,18.562,0,0,0-1.232-1.635A14.555,14.555,0,0,1,0,17.862ZM11.459,9.352V5.182a.857.857,0,0,0-.126-.126H5.392v4.3Zm10.784-2.78H17.862v4.213h4.381Zm5.645,0h-4.38v4.213h4.38ZM14.155,10.7H2.7v.59H4.086a.734.734,0,0,1,.594.844c-.155.732-1.142.436-1.142.5v3.707h9.774V12.638H6.867c-.2,0-.535-.465-.523-.7a.811.811,0,0,1,.608-.645h7.2Zm8.087,1.432H17.862v4.213h4.381Zm5.645,0h-4.38v4.213h4.38Zm5.73,0H29.236v4.213h4.382Zm8.172,3.286H36.608c-.422,0-.44.811-.529,1.072a2.007,2.007,0,0,1-2,1.2c-2.488.191-5.095-.075-7.578-.087-8.384-.042-16.77.038-25.153,0a13.025,13.025,0,0,0,3.173,5.716l24.171.009c.984.015,1.141,1.228.083,1.355l-24.09-.007L3.622,27.13H36.314l1.1-2.444H31.637a1.385,1.385,0,0,1-.42-.338.7.7,0,0,1,.525-.99l6.345-.059Z" transform="translate(0 0)" fill="#fff"/>
      </g>
    </g>
  </g>
</svg>
