<svg xmlns="http://www.w3.org/2000/svg" xmlns:xlink="http://www.w3.org/1999/xlink" width="78.041" height="77" viewBox="0 0 78.041 77">
  <defs>
    <clipPath id="clip-path">
      <rect id="Rectangle_51" data-name="Rectangle 51" width="41.739" height="33.308" fill="#fff"/>
    </clipPath>
  </defs>
  <g id="Group_4887" data-name="Group 4887" transform="translate(-1099 -1219)">
    <g id="Ellipse_12" data-name="Ellipse 12" transform="translate(1099 1219)" fill="none" stroke="#fff" stroke-width="0.5">
      <ellipse cx="39.02" cy="38.5" rx="39.02" ry="38.5" stroke="none"/>
      <ellipse cx="39.02" cy="38.5" rx="38.77" ry="38.25" fill="none"/>
    </g>
    <g id="Group_4810" data-name="Group 4810" transform="translate(1116.795 1241.114)">
      <g id="Group_4494" data-name="Group 4494" transform="translate(0 0)" clip-path="url(#clip-path)">
        <path id="Path_5239" data-name="Path 5239" d="M58.724,103.443a21.482,21.482,0,0,1-7.315-1.158,11.721,11.721,0,0,1-1.715-.827,2.711,2.711,0,0,1-1.626-2.924c.208-1.4.2-2.826.425-4.218a5.333,5.333,0,0,1,3.559-4.283c.82-.318,1.69-.508,2.535-.763a2.221,2.221,0,0,1,2.4.364c.974.845,2.805.563,3.867-.26a1.391,1.391,0,0,1,.993-.272,28.428,28.428,0,0,1,3.177.813,5.642,5.642,0,0,1,4.025,4.992,21.709,21.709,0,0,1,.21,4.445,2.539,2.539,0,0,1-1.192,1.807,29.414,29.414,0,0,1-5.233,1.9,25.1,25.1,0,0,1-4.114.38m.3-1.761c2.389-.08,5.078-.151,7.546-1.458a1.65,1.65,0,0,0,1.074-1.838c-.138-.979-.127-1.978-.232-2.963a4.343,4.343,0,0,0-3.441-4.08,5.794,5.794,0,0,0-1.222-.329,3.527,3.527,0,0,0-1.565.213,4.659,4.659,0,0,1-4.393.181c-1.266-.714-2.327-.383-3.507-.027A4.34,4.34,0,0,0,50,95.358c-.089.774-.163,1.551-.2,2.328-.1,1.956.022,2.178,1.839,2.92a19.6,19.6,0,0,0,7.393,1.075" transform="translate(-37.815 -70.135)" fill="#fff"/>
        <path id="Path_5240" data-name="Path 5240" d="M81.7,26.1a8.4,8.4,0,0,1-1.283,5.243c-2.541,3.755-7.427,3.6-9.662-.352a9.485,9.485,0,0,1-.337-8.39,3.685,3.685,0,0,1,1.045-1.443c2.055-1.725,4.436-1.695,6.821-.971,2.164.657,2.983,2.453,3.312,4.523A13.306,13.306,0,0,1,81.7,26.1m-1.435.552-.219-.1c-.086-.7-.141-1.406-.264-2.1a3.087,3.087,0,0,0-2.536-2.784c-1.707-.33-3.391-.392-4.791.913a1.841,1.841,0,0,0-.474.7c-.851,2.4-1.01,4.8.368,7.054a3.728,3.728,0,0,0,6.611.046,18.529,18.529,0,0,0,1.3-3.722" transform="translate(-54.803 -15.527)" fill="#fff"/>
        <path id="Path_5241" data-name="Path 5241" d="M28.391,5.835a22.563,22.563,0,0,1-1.083,3.487,4.555,4.555,0,0,1-4.422,2.768A4.792,4.792,0,0,1,18.6,9.061a8.108,8.108,0,0,1-.119-6.5A3.516,3.516,0,0,1,21,.292c3.829-.933,7.258.232,7.395,5.543m-8.759-.1-.17.043A18.824,18.824,0,0,0,20.2,8.395a2.992,2.992,0,0,0,2.785,1.963A3.084,3.084,0,0,0,25.892,8.4a6.2,6.2,0,0,0,.117-5.138A2.553,2.553,0,0,0,24.795,2.03C22.146.8,19.809,2.217,19.634,5.1c-.013.211,0,.424,0,.636" transform="translate(-14.064 0)" fill="#fff"/>
        <path id="Path_5242" data-name="Path 5242" d="M129.452,5.794a14.681,14.681,0,0,1,.108-1.588c.523-3.008,2.259-4.25,5.663-4.084,2.63.129,4.232,1.792,4.435,4.619a7.824,7.824,0,0,1-.8,4.737,4.793,4.793,0,0,1-4.382,2.7,4.721,4.721,0,0,1-4.333-3.095,21.225,21.225,0,0,1-.861-3.236l.173-.052m8.829.138-.217-.12c-.1-.662-.156-1.333-.307-1.983a2.452,2.452,0,0,0-2.333-1.982c-1.384-.13-2.822-.2-3.7,1.213a6.274,6.274,0,0,0,.517,6.231,2.856,2.856,0,0,0,4.708-.116,16.929,16.929,0,0,0,1.329-3.243" transform="translate(-101.784 -0.085)" fill="#fff"/>
        <path id="Path_5243" data-name="Path 5243" d="M14.276,59.962c-.448-.15-.879-.285-1.3-.437a2.632,2.632,0,0,0-2.224.12,4.205,4.205,0,0,1-3.6.008,3.813,3.813,0,0,0-4.986,2.33,15.553,15.553,0,0,0-.371,3.675,1.529,1.529,0,0,0,.926,1.091A44.965,44.965,0,0,0,7.54,67.808a15.907,15.907,0,0,0,2.543.024C9.922,69.615,9.9,69.624,8.2,69.57a14.863,14.863,0,0,1-6.179-1.275c-1.355-.66-2.235-1.561-1.98-3.223.145-.941.114-1.909.268-2.848a4.73,4.73,0,0,1,3.232-3.986,25.151,25.151,0,0,1,2.855-.78,1.211,1.211,0,0,1,.846.229,2.839,2.839,0,0,0,3.5,0,2.469,2.469,0,0,1,1.562-.061c1.852.331,1.848.355,1.964,2.335" transform="translate(0 -45.227)" fill="#fff"/>
        <path id="Path_5244" data-name="Path 5244" d="M128.3,59.979c.257-.819.27-1.71.662-1.932a8.522,8.522,0,0,1,2.638-.684c.172-.032.409.216.6.358a2.807,2.807,0,0,0,3.257-.012c.231-.171.581-.393.8-.331a24.682,24.682,0,0,1,3.906,1.265,4.391,4.391,0,0,1,2.331,3.7c.139,1.084.127,2.187.243,3.275a2.087,2.087,0,0,1-1.054,2.041,11.367,11.367,0,0,1-5.595,1.764c-.492.051-.989.052-1.484.074-1.68.074-1.68.073-1.9-1.551q2.781-.293,5.567-.587a2.034,2.034,0,0,0,.313-.058c2.316-.623,2.654-1.114,2.381-3.49a12.759,12.759,0,0,0-.224-1.573,3.97,3.97,0,0,0-5.2-2.672,5.4,5.4,0,0,1-3.276.041,4.184,4.184,0,0,0-3.036.037l-.93.331" transform="translate(-101.014 -45.162)" fill="#fff"/>
      </g>
    </g>
  </g>
</svg>
