<svg xmlns="http://www.w3.org/2000/svg" xmlns:xlink="http://www.w3.org/1999/xlink" width="78" height="77" viewBox="0 0 78 77">
  <defs>
    <clipPath id="clip-path">
      <rect id="Rectangle_195" data-name="Rectangle 195" width="37.571" height="37.473" fill="#fff"/>
    </clipPath>
  </defs>
  <g id="Group_4888" data-name="Group 4888" transform="translate(-782 -1219)">
    <g id="Ellipse_12" data-name="Ellipse 12" transform="translate(782 1219)" fill="none" stroke="#fff" stroke-width="0.5">
      <ellipse cx="39" cy="38.5" rx="39" ry="38.5" stroke="none"/>
      <ellipse cx="39" cy="38.5" rx="38.75" ry="38.25" fill="none"/>
    </g>
    <g id="Group_4812" data-name="Group 4812" transform="translate(801.547 1240.961)">
      <g id="Group_4811" data-name="Group 4811" transform="translate(0 0)" clip-path="url(#clip-path)">
        <path id="Path_8383" data-name="Path 8383" d="M3.762,37.474V25.984A3.677,3.677,0,0,1,.1,22.585a54.16,54.16,0,0,1,0-6.592c.155-2.263,2.308-5.083,4.723-5.083h1.5a6,6,0,0,1-1.975-3.7,11.59,11.59,0,0,0-.07-2.2c-.1-.17-.487-.445-.65-.667a4.27,4.27,0,0,1-.513-2.83A8.126,8.126,0,0,1,6.017.395,17.934,17.934,0,0,1,14.33.6c.354.1,1.977.62,2.08.921a10.226,10.226,0,0,1,.011,1.524c-.113,1.171-.581,1.158-1.1,1.9-.295.425-.1,1.742-.147,2.341A5.781,5.781,0,0,1,13.2,10.91h1.573a6.847,6.847,0,0,1,1.795.621c4.21,2.213,2.5,7.342,2.855,11.2a3.655,3.655,0,0,1-3.589,3.253v11.49Zm4.522-36.2a13.866,13.866,0,0,0-2.095.321,11.305,11.305,0,0,0-1.771.571,2.2,2.2,0,0,0-.055,1.01,1.894,1.894,0,0,0,.677.911,11.081,11.081,0,0,1,9.442,0A1.638,1.638,0,0,0,15.143,2.2a14.714,14.714,0,0,0-6.859-.928m.585,3A8.742,8.742,0,0,0,5.554,5.2,5.139,5.139,0,0,0,7.062,9.915,4.267,4.267,0,0,0,14,7.059,12.2,12.2,0,0,0,14,5.25c-.072-.208-1.388-.617-1.656-.686a10.681,10.681,0,0,0-3.47-.292M7.64,12.08H5.262c-.015,0-.133.123-.11.146l3.11,1.1c.1-.043.008-.137-.022-.2a8.47,8.47,0,0,1-.6-1.047m2.854,0H9.031l.8,1.244Zm3.879,0H11.885a6.089,6.089,0,0,1-.587,1.059c-.03.055-.151.124-.034.186.888-.345,1.8-.632,2.688-.971.131-.05.471-.1.422-.274M1.347,15.63v5.525H3.762V15.081H4.933V23.57h9.66V15.191c0-.167,1.244-.167,1.244,0v5.964h2.415V16.069a7.088,7.088,0,0,0-.2-.972,3.787,3.787,0,0,0-1.805-2.284L11.52,14.5l1.172.619a2.1,2.1,0,0,1,.73,1.246v2.67c-1.2-.519-2.477-.909-3.634-1.522-1.16.6-2.42.986-3.611,1.522V16.069a2.443,2.443,0,0,1,.7-.988c.356-.266.824-.3,1.134-.585L3.354,12.813A3.922,3.922,0,0,0,1.347,15.63m7.83-.183c-.945.358-2.132.4-1.829,1.756A7.49,7.49,0,0,0,9,16.547c.261-.258.164-.768.18-1.1m3,1.756c.3-1.33-.874-1.44-1.829-1.756-.255,1.316.906,1.394,1.829,1.756M3.762,22.4H1.347a2.305,2.305,0,0,0,2.415,2.342Zm14.49,0H15.837v2.415A2.555,2.555,0,0,0,18.252,22.4m-3.659,2.415H4.933v9H9.177V27.229h1.171v6.586h4.244ZM9.177,35.059H4.933V36.23H9.177Zm5.416,0H10.348V36.23h4.244Z" transform="translate(0 -0.001)" fill="#fff"/>
        <path id="Path_8384" data-name="Path 8384" d="M51.264,9.225c-.322.724-1.181.345-1.822.447a7.859,7.859,0,0,1-1.681,4.067c-.046.3,1.59,1.075.845,1.756-.72.658-1.451-.871-1.757-.844a8.018,8.018,0,0,1-2.989,1.477c-.3.072-.761.069-.965.133-.326.1.122,1.435-.311,1.737a.613.613,0,0,1-.947-.28c-.086-.284.052-1.333-.1-1.435-.057-.039-1.11-.19-1.353-.257a7.545,7.545,0,0,1-2.641-1.388c-.521.251-1.111,1.518-1.759.811-.612-.667.591-1.186.847-1.722a7.734,7.734,0,0,1-1.387-2.641c-.067-.243-.218-1.3-.257-1.353-.113-.168-1.168,0-1.453-.083a.651.651,0,0,1-.262-.965c.3-.433,1.635.015,1.737-.311.064-.2.06-.67.133-.965a7.892,7.892,0,0,1,1.477-2.989c.027-.306-1.5-1.038-.844-1.757s1.469.889,1.756.845A7.857,7.857,0,0,1,41.6,1.826c.082-.572-.285-1.82.63-1.826.825-.005.474,1.314.557,1.826a7.58,7.58,0,0,1,4.064,1.685c.289.051,1.023-1.519,1.747-.874.761.677-.886,1.506-.837,1.783a7.58,7.58,0,0,1,1.685,4.064c.617.1,1.445-.253,1.822.374ZM41.6,3.078a5.659,5.659,0,0,0-3.218,1.354l2.05,2.052c.181.082.936-.348,1.168-.441Zm1.171,0V6.042c.232.094.987.524,1.168.441L46,4.359a6.249,6.249,0,0,0-3.221-1.282M36.19,8.493h2.963l.537-1.062L37.543,5.275A5.73,5.73,0,0,0,36.19,8.493m9.038,0h2.964a6.25,6.25,0,0,0-1.282-3.221L44.786,7.325c-.083.181.348.936.441,1.168M41.953,7.268a1.822,1.822,0,0,0,.328,3.621c2.448-.1,2.161-3.954-.328-3.621m-2.69,2.4H36.19a5.982,5.982,0,0,0,1.354,3.219l2.125-2.119c.046-.1-.488-.854-.405-1.1m8.928,0H45.227c-.094.232-.524.987-.441,1.168l2.051,2.051a5.656,5.656,0,0,0,1.354-3.219M41.6,12.006c-.245.084-1-.45-1.1-.4l-2.119,2.125A5.987,5.987,0,0,0,41.6,15.08Zm1.171,3.074a5.73,5.73,0,0,0,3.219-1.354L43.838,11.58l-1.062.536Z" transform="translate(-13.693 0)" fill="#fff"/>
        <path id="Path_8385" data-name="Path 8385" d="M37.467,51.477l-1.391-9.587,1.9-.293v-3.44H39.15V34.024a.746.746,0,0,1,.11-.11H42.7a.746.746,0,0,1,.11.11V36.4H43.98V34.024a.746.746,0,0,1,.11-.11h3.44a.746.746,0,0,1,.11.11v4.135H48.81v3.33c.183.228,1.887.346,1.9.443L49.4,51.477Zm4.1-16.319H40.394v.585h1.171Zm4.83,0H45.224v.585H46.4Zm-4.83,1.83H40.394v1.171h1.171Zm4.83,0H45.224v1.171H46.4Zm-2.415.585H42.809v.585H43.98ZM47.639,39.4H39.15v1.9c1.438-.126,2.852-.5,4.281-.716l4.207.79ZM49.4,42.916l-6.034-1.1L37.5,42.91c-.127.174.136.986.115,1.25L43.431,43l5.743,1.156ZM49.03,45.33l-5.664-1.09-5.528,1.094.662,4.891,9.8-.024Z" transform="translate(-14.898 -14.004)" fill="#fff"/>
      </g>
    </g>
  </g>
</svg>
