<svg xmlns="http://www.w3.org/2000/svg" xmlns:xlink="http://www.w3.org/1999/xlink" width="77" height="77" viewBox="0 0 77 77">
  <defs>
    <clipPath id="clip-path">
      <rect id="Rectangle_7723" data-name="Rectangle 7723" width="37.987" height="38" fill="none" stroke="#00222f" stroke-width="0.7"/>
    </clipPath>
  </defs>
  <g id="Group_26200" data-name="Group 26200" transform="translate(-967 -1768)">
    <g id="Ellipse_23" data-name="Ellipse 23" transform="translate(967 1768)" fill="none" stroke="#fff" stroke-width="0.5">
      <circle cx="38.5" cy="38.5" r="38.5" stroke="none"/>
      <circle cx="38.5" cy="38.5" r="38.25" fill="none"/>
    </g>
    <g id="Group_26199" data-name="Group 26199" transform="translate(987 1788)">
      <g id="Group_26198" data-name="Group 26198" clip-path="url(#clip-path)">
        <path id="Path_16459" data-name="Path 16459" d="M3,30.379a3.251,3.251,0,0,1-3-2.926L0,3.012A3.221,3.221,0,0,1,2.5.107C13.321-.108,24.17.079,35,.012a3.241,3.241,0,0,1,2.925,2.926l0,24.515a3.289,3.289,0,0,1-3,2.926H23.406V32.9h1.222a4.157,4.157,0,0,1,2.364,1.413c.756.959,1.453,3.158-.174,3.59-5.266.03-10.565.1-15.82-.037-1.51-.428-.76-2.67-.065-3.553A4.183,4.183,0,0,1,13.3,32.9h1.222V30.379Zm33.66-5.7V2.866a2.071,2.071,0,0,0-1.811-1.595H4.332c-1,.17-1.926-.161-2.656.751a2.594,2.594,0,0,0-.414.919V24.676H7.817c.17,0,.41.446.411.63,0,.21-.309.629-.486.629H1.262v1.593a5.667,5.667,0,0,0,.264.624,2.056,2.056,0,0,0,1.844.971H34.482a2.17,2.17,0,0,0,1.972-1.065,5.5,5.5,0,0,0,.209-.6V25.935H9.964c-.183,0-.48-.421-.487-.632s.226-.627.413-.627Zm-14.516,5.7H15.778v2.407a.728.728,0,0,0,.111.111h6.147a.728.728,0,0,0,.111-.111Zm4.37,6.3a2.464,2.464,0,0,0-2.33-2.521c-3.449-.259-7.239.184-10.723.022a2.479,2.479,0,0,0-2.056,2.5Z" fill="#fff" stroke="#00222f" stroke-width="0.7"/>
        <path id="Path_16460" data-name="Path 16460" d="M32.277,31.659a9.712,9.712,0,0,1,3.011.132c2.2.668,2.971,3.013,2.616,5.124a1.38,1.38,0,0,1-.884.967c-2.131-.051-4.585.242-6.692.054a1.257,1.257,0,0,1-1.221-1c-.279-2.315.521-4.959,3.17-5.276m.609,1.238a2.441,2.441,0,0,0-2.179,1.191,4.861,4.861,0,0,0-.339.772v1.814h6.295V35.082a3.449,3.449,0,0,0-.331-.929A2.48,2.48,0,0,0,34.145,32.9v2.037c0,.177-.419.486-.63.485-.182,0-.629-.228-.629-.411Z" fill="#fff" stroke="#00222f" stroke-width="0.7"/>
        <path id="Path_16461" data-name="Path 16461" d="M12,4.126c.24-1.694,2.679-2.061,3.844-1.1L18,5.68c1.667.264,3.636-.474,5.036.667.7.574,1.746,2.01,2.4,2.409a8.718,8.718,0,0,0,1.413.291,4.253,4.253,0,0,1,1.808,1.3c1.127,1.274,2.109,2.848,3.2,4.166.271.046.545-.011.818.034a.954.954,0,0,1,.635,1.488,21.816,21.816,0,0,1-1.683,1.5,11.689,11.689,0,0,0-1.65,2.127c-.778,1.358-.856,2.942-2.836,3.09H8.406a1.856,1.856,0,0,1-1.643-1.245c-.749-1.917-1.09-4.4-1.691-6.389.663-1.568.992-3.747,1.731-5.231a1.893,1.893,0,0,1,.925-.852c.152-.073.557-.132.609-.206.15-.21.242-1.608.492-2.1.177-.346.9-1.013,1.283-1.013H12c.05-.5-.068-1.112,0-1.592M16.37,5.718c-.338-.374-1.205-1.763-1.625-1.893s-1.485-.06-1.485.523v1.37ZM23.7,8.828a8.548,8.548,0,0,0-2-1.816L10.413,6.981c-.7.111-.609,1.307-.782,1.847Zm1.482,5.7-3.219-4.225-.166-.129-13.58.017c-.216.071-.265.282-.348.467-.525,1.174-.795,2.658-1.277,3.87Zm5.11,0-2.7-3.482a2.975,2.975,0,0,0-1.408-.887h-2.7l3.37,4.369Zm1.333,1.259H6.52l1.444,5.332a.571.571,0,0,0,.589.374l18.65-.021c.924-.158,1.135-1.371,1.523-2.106a13.079,13.079,0,0,1,2.9-3.579" fill="#fff" stroke="#00222f" stroke-width="0.7"/>
        <path id="Path_16462" data-name="Path 16462" d="M9.311,2.7a.714.714,0,0,1,.138.721L3.745,9.2c-.552.667-1.592.031-1.076-.7L8.613,2.589a.681.681,0,0,1,.7.116" fill="#fff" stroke="#00222f" stroke-width="0.7"/>
        <path id="Path_16463" data-name="Path 16463" d="M4.946,2.546a.659.659,0,0,1,.667.338c.177.354.061.5-.143.784A14.919,14.919,0,0,1,3.7,5.452c-.367.271-.758.441-1.064-.033-.2-.311-.116-.522.075-.807A18.26,18.26,0,0,1,4.518,2.791a1.216,1.216,0,0,1,.428-.245" fill="#fff" stroke="#00222f" stroke-width="0.7"/>
        <path id="Path_16464" data-name="Path 16464" d="M27.606,17.219a.688.688,0,0,1-.179,1.073,18.989,18.989,0,0,1-2.353.014c-.477-.09-.562-.871-.107-1.14a5.307,5.307,0,0,1,2.639.053" fill="#fff" stroke="#00222f" stroke-width="0.7"/>
        <path id="Path_16465" data-name="Path 16465" d="M8.72,12.028a6.121,6.121,0,0,1,1.632.041.63.63,0,0,1-.1,1.2,7.433,7.433,0,0,1-1.717-.051c-.529-.226-.347-1.069.182-1.188" fill="#fff" stroke="#00222f" stroke-width="0.7"/>
        <path id="Path_16466" data-name="Path 16466" d="M14.347,12.184a.653.653,0,0,1-.252,1.071,8.814,8.814,0,0,1-1.609.012.64.64,0,0,1,.011-1.239,3.869,3.869,0,0,1,1.85.156" fill="#fff" stroke="#00222f" stroke-width="0.7"/>
        <path id="Path_16467" data-name="Path 16467" d="M16.275,12.028a5.458,5.458,0,0,1,1.746.074.653.653,0,0,1,.006,1.086,4.943,4.943,0,0,1-1.859.027.635.635,0,0,1,.107-1.187" fill="#fff" stroke="#00222f" stroke-width="0.7"/>
        <path id="Path_16468" data-name="Path 16468" d="M20.128,12.03c.519-.093,1.8-.172,1.972.442.277.974-1.336.87-1.917.8a.626.626,0,0,1-.055-1.243" fill="#fff" stroke="#00222f" stroke-width="0.7"/>
      </g>
    </g>
  </g>
</svg>
