<svg xmlns="http://www.w3.org/2000/svg" xmlns:xlink="http://www.w3.org/1999/xlink" width="77" height="77" viewBox="0 0 77 77">
  <defs>
    <clipPath id="clip-path">
      <rect id="Rectangle_7721" data-name="Rectangle 7721" width="33.98" height="38" fill="none" stroke="#00222f" stroke-width="0.6"/>
    </clipPath>
  </defs>
  <g id="Group_26194" data-name="Group 26194" transform="translate(-293 -1768)">
    <g id="Ellipse_12" data-name="Ellipse 12" transform="translate(293 1768)" fill="none" stroke="#fff" stroke-width="0.5">
      <circle cx="38.5" cy="38.5" r="38.5" stroke="none"/>
      <circle cx="38.5" cy="38.5" r="38.25" fill="none"/>
    </g>
    <g id="Group_26193" data-name="Group 26193" transform="translate(314 1788)">
      <g id="Group_26192" data-name="Group 26192" clip-path="url(#clip-path)">
        <path id="Path_16429" data-name="Path 16429" d="M10.209,1.232c.019-.476-.149-.957.362-1.214L15.324,0c.833.1.323,1.026.571,1.2.2.136,1.363-.052,1.718.05s.215.6.411.666l6.989.009a1.314,1.314,0,0,1,1.039,1.345V20.723c.047.238.658.54.88.734a6.857,6.857,0,0,1,2.022,7.323c-.191.567-.531,1.062-.743,1.618.149.134,1.028,1.129,1.107,1.128.108,0,.317-.573.922-.151.973,1.158,2.467,2.22,3.384,3.383a1.207,1.207,0,0,1,.116,1.577,16.2,16.2,0,0,1-1.466,1.457,1.217,1.217,0,0,1-1.535-.149c-1.163-.917-2.224-2.41-3.382-3.384-.394-.565.1-.741.069-.912a8.631,8.631,0,0,0-1.105-1.106c-.092-.007-.279.135-.271.25-.154,1.027.534,3.954-.966,4.186L1.1,36.683a1.182,1.182,0,0,1-1.076-.846L0,2.826a1.257,1.257,0,0,1,.885-.884l7.248-.017c-.066-.212.117-.693.346-.693Zm4.537-.154H11.285c.044.383.044,1.231-.5,1.231H9.21V5h7.612V2.309H15.245a2.786,2.786,0,0,1-.325-.175c-.229-.23-.172-.753-.174-1.055M8.133,3H1.06V35.6h23.8a.733.733,0,0,0,.116-.116v-2.5c-.118.018-.813.126-.843.156-.2.2.465,1.631-.734,1.765C16.374,34.864,9.33,35,2.322,34.84a.555.555,0,0,1-.344-.579l0-29.766c-.091-.194.3-.572.428-.572H8.133ZM24.972,20.186V3.116A.733.733,0,0,0,24.856,3H17.9v.923H23.7c.271,0,.446.567.425.8l-.007,15.3a4.146,4.146,0,0,0,.691.247.141.141,0,0,0,.16-.086M8.133,5H3.058V33.835H22.934c.117,0,.136-.352.116-.461H21.935c-2.1,0-4.569-1.935-5.462-3.765A6.823,6.823,0,0,1,23.05,19.84V5.115A.733.733,0,0,0,22.934,5H17.9c-.056,0,.166.86-.232,1.036L8.56,6.071C7.882,5.964,8.227,5.094,8.133,5M22.189,20.94c-7.46.472-6.717,11.841.744,11.356,7.378-.479,6.728-11.828-.744-11.356m5.282,10.282c-.072.086-.284.214-.263.333s.9.856,1.032,1.047c.073-.086.285-.213.264-.333s-.9-.856-1.033-1.047m2.384,1.307L28.51,33.873l3.1,3.032c.174-.189,1.3-1.193,1.274-1.33Z" fill="#fff" stroke="#00222f" stroke-width="0.6"/>
        <path id="Path_16430" data-name="Path 16430" d="M6.476,24.753V27.6H9.32c.053,0,.025-.744.712-.6.524.108.547,1.536,0,1.662-1.278-.079-2.813.162-4.061.018A.583.583,0,0,1,5.4,28.1a26.136,26.136,0,0,1,0-3.848.629.629,0,0,1,.426-.573c1.1.114,2.547-.163,3.607,0,.719.113.4,1.072.005,1.072Z" transform="translate(-0.726 -3.222)" fill="#fff" stroke="#00222f" stroke-width="0.6"/>
        <path id="Path_16431" data-name="Path 16431" d="M6.476,32.054V34.9H9.32c.053,0,.025-.744.712-.6.518.107.585,1.568-.063,1.673a27.3,27.3,0,0,1-4,.007A.583.583,0,0,1,5.4,35.4a26.136,26.136,0,0,1,0-3.848.629.629,0,0,1,.426-.573c1.1.114,2.547-.163,3.607,0,.719.113.4,1.072.005,1.072Z" transform="translate(-0.726 -4.217)" fill="#fff" stroke="#00222f" stroke-width="0.6"/>
        <path id="Path_16432" data-name="Path 16432" d="M6.476,17.541v2.846H9.321c.036,0-.025-.455.381-.582.79-.249.779.774.677,1.3a.474.474,0,0,1-.422.344,26.276,26.276,0,0,1-3.982.02c-.413-.048-.531-.266-.574-.656a25.535,25.535,0,0,1,0-3.769.628.628,0,0,1,.426-.573c1.1.114,2.547-.164,3.607,0,.719.112.4,1.071.005,1.071Z" transform="translate(-0.727 -2.238)" fill="#fff" stroke="#00222f" stroke-width="0.6"/>
        <path id="Path_16433" data-name="Path 16433" d="M8.442,8.676c.049.048.958-.13,1.038.528.124,1.015-1.84.2-2.137.8-.339.691.953.506,1.35.614a1.474,1.474,0,0,1,.314,2.66c-.133.087-.484.174-.529.24-.142.212.164.71-.4.833-.856.188-.656-.85-.712-.908s-1.175.177-.89-.7c.25-.766,2.528.041,2.13-.884-.167-.39-.969-.17-1.4-.3a1.485,1.485,0,0,1-.577-2.428,4.673,4.673,0,0,1,.721-.393c.083-.138-.088-.687.32-.871.909-.412.717.756.768.806" transform="translate(-0.848 -1.061)" fill="#fff" stroke="#00222f" stroke-width="0.6"/>
        <path id="Path_16434" data-name="Path 16434" d="M13.074,16.4l9.369-.02c.609.079.663,1-.158,1.08-2.822.291-6.125-.218-9,0a.549.549,0,0,1-.213-1.062" transform="translate(-1.734 -2.234)" fill="#fff" stroke="#00222f" stroke-width="0.6"/>
        <path id="Path_16435" data-name="Path 16435" d="M13.074,19.337l9.369-.02c.609.079.663,1-.158,1.081-2.822.291-6.125-.219-9,0a.549.549,0,0,1-.213-1.062" transform="translate(-1.734 -2.634)" fill="#fff" stroke="#00222f" stroke-width="0.6"/>
        <path id="Path_16436" data-name="Path 16436" d="M13.493,10.337c1.75.136,3.969-.248,5.665-.011.748.1.808.987.086,1.071l-5.92,0a.543.543,0,0,1,.17-1.056" transform="translate(-1.766 -1.397)" fill="#fff" stroke="#00222f" stroke-width="0.6"/>
        <path id="Path_16437" data-name="Path 16437" d="M13.493,12.83c1.75.136,3.969-.248,5.665-.011.748.1.808.987.086,1.071l-5.92,0a.543.543,0,0,1,.17-1.056" transform="translate(-1.766 -1.737)" fill="#fff" stroke="#00222f" stroke-width="0.6"/>
        <path id="Path_16438" data-name="Path 16438" d="M10.54,17.555a.54.54,0,0,1,.593.752,13.878,13.878,0,0,1-1.912,1.931.515.515,0,0,1-.235.077c-.334.006-1.356-1.006-1.327-1.34.07-.787,1.048-.467,1.325.025.109,0,1.2-1.372,1.555-1.446" transform="translate(-1.044 -2.392)" fill="#fff" stroke="#00222f" stroke-width="0.6"/>
        <path id="Path_16439" data-name="Path 16439" d="M7.816,33.152c.542-.539.964.392,1.16.358s1.122-1.253,1.453-1.4c.559-.244.968.364.6.9a18.431,18.431,0,0,1-1.653,1.653.577.577,0,0,1-.7.081c-.066-.038-.824-.8-.88-.888a.544.544,0,0,1,.022-.71" transform="translate(-1.046 -4.372)" fill="#fff" stroke="#00222f" stroke-width="0.6"/>
        <path id="Path_16440" data-name="Path 16440" d="M7.816,25.851c.513-.512.989.388,1.16.358.2-.034,1.157-1.316,1.507-1.424.535-.165.894.421.542.93a18.68,18.68,0,0,1-1.654,1.654.576.576,0,0,1-.7.08c-.065-.038-.824-.8-.88-.887a.544.544,0,0,1,.022-.711" transform="translate(-1.046 -3.376)" fill="#fff" stroke="#00222f" stroke-width="0.6"/>
        <path id="Path_16441" data-name="Path 16441" d="M13.247,31.173a22.2,22.2,0,0,1,3.208-.011.543.543,0,0,1,0,1.067,21.1,21.1,0,0,1-3.144,0,.542.542,0,0,1-.065-1.055" transform="translate(-1.753 -4.242)" fill="#fff" stroke="#00222f" stroke-width="0.6"/>
        <path id="Path_16442" data-name="Path 16442" d="M13.17,34.653l3.365-.015c.622.283.429.974-.236,1.068a17.528,17.528,0,0,1-2.9-.011.549.549,0,0,1-.232-1.042" transform="translate(-1.754 -4.723)" fill="#fff" stroke="#00222f" stroke-width="0.6"/>
        <path id="Path_16443" data-name="Path 16443" d="M16.477,24.048a.568.568,0,0,1-.328.972,17.508,17.508,0,0,1-2.758,0,.551.551,0,0,1-.157-1.07c.564.089,2.917-.166,3.244.1" transform="translate(-1.754 -3.262)" fill="#fff" stroke="#00222f" stroke-width="0.6"/>
        <path id="Path_16444" data-name="Path 16444" d="M13.17,26.811c.93.068,2.161-.151,3.056-.011.643.1.591.953-.234,1.065a15.293,15.293,0,0,1-2.524,0c-.629-.089-.845-.7-.3-1.054" transform="translate(-1.753 -3.648)" fill="#fff" stroke="#00222f" stroke-width="0.6"/>
        <path id="Path_16445" data-name="Path 16445" d="M24.713,24.952a5.119,5.119,0,0,1,5.62,5.927c-.744,5.071-7.635,5.766-9.668,1.229a5.1,5.1,0,0,1,4.048-7.156m.076,1.075c-5.061.579-4.425,8.544,1.046,7.966,5.028-.531,4.366-8.585-1.046-7.966" transform="translate(-2.757 -3.399)" fill="#fff" stroke="#00222f" stroke-width="0.6"/>
        <path id="Path_16446" data-name="Path 16446" d="M27.26,29.545c-.186.1-.162.343-.272.534a1.613,1.613,0,0,1-2.713.107l-.32-.641c-.075.232-.234.415-.312.649-.168.508-.031,1.429-.865,1.18-.744-.224-.1-1.792.191-2.238,1.723-2.672,6.016-1.164,5.8,1.744a.543.543,0,0,1-1.03.22c-.178-.446-.1-1.1-.484-1.555m-2.055-.6a.526.526,0,0,0,.716.755c.574-.406-.216-1.285-.716-.755" transform="translate(-3.059 -3.784)" fill="#fff" stroke="#00222f" stroke-width="0.6"/>
      </g>
    </g>
  </g>
</svg>
