<svg xmlns="http://www.w3.org/2000/svg" xmlns:xlink="http://www.w3.org/1999/xlink" width="77" height="77" viewBox="0 0 77 77">
  <defs>
    <clipPath id="clip-path">
      <rect id="Rectangle_7729" data-name="Rectangle 7729" width="37.126" height="37" fill="none" stroke="#00222f" stroke-width="0.5"/>
    </clipPath>
  </defs>
  <g id="Group_26212" data-name="Group 26212" transform="translate(-967 -2000)">
    <g id="Ellipse_23" data-name="Ellipse 23" transform="translate(967 2000)" fill="none" stroke="#fff" stroke-width="0.5">
      <circle cx="38.5" cy="38.5" r="38.5" stroke="none"/>
      <circle cx="38.5" cy="38.5" r="38.25" fill="none"/>
    </g>
    <g id="Group_26211" data-name="Group 26211" transform="translate(987 2020)">
      <g id="Group_26210" data-name="Group 26210" transform="translate(0 0)" clip-path="url(#clip-path)">
        <path id="Path_16485" data-name="Path 16485" d="M17.689,22.058c.06,1.475.011,3.1-1.507,3.822-1.247.6-4.97.583-6.168-.123-1.374-.81-1.293-2.172-1.266-3.591C8.495,22,7.875,21.5,7.6,21.57c-.376.094-1.047.676-1.556.842a2.679,2.679,0,0,1-1.747,0c-.547-.179-1.9-1.151-1.339-1.782.543-.609.945.314,1.329.559a1.614,1.614,0,0,0,1.695.072c.432-.195,1.493-1.052,1.91-.925.471.48,1.877.769,1.958,1.455.123,1.042-.4,2.561.867,3.12a10.836,10.836,0,0,0,4.73.086c1.581-.46,1.006-2.309,1.2-3.515l.138-.152c.5-.111,1.566-1.085,2-1.012.389.065,1.366.861,1.869,1.038a1.55,1.55,0,0,0,1.259-.043c.825-.384,2.53-3.339,2.649-4.24.209-1.587-1.072-1.711-2.062-2.421-.687-.492-.4-.514-.394-1.194,0-.469-.2-1.244.106-1.563.53-.556,1.792-.729,2.2-1.567.484-.989-.354-2.441-.875-3.312-.618-1.035-1.36-2.351-2.761-2.064C20.1,5.092,19.1,6.226,18.4,5.984c-.3-.354-1.744-.86-1.814-1.231-.226-1.2.553-2.921-1.231-3.408a10.853,10.853,0,0,0-4.668.124c-1.255.6-.719,2.009-.844,3.071-.091.763-1.38.932-1.884,1.452-.574.173-1.55-.724-2.106-.946C4.22,4.392,3.105,6.471,2.485,7.69c-.466.914-1.121,2.179-.216,3.046.364.348,1.886.967,2.028,1.307a13.316,13.316,0,0,1,.023,2.194.545.545,0,0,1-.2.3c-.583.479-1.655.7-2.075,1.406a1.559,1.559,0,0,0-.118,1.445c.158.533,1.076,1.814.6,2.225-.626.537-1.052-.519-1.243-.928C.584,17.2.339,15.739,1.8,14.622c.275-.209,1.4-.712,1.445-.948a7.845,7.845,0,0,0-.013-1.113c-.035-.055-.962-.514-1.142-.633C-.074,10.482.721,8.581,1.784,6.7c.936-1.654,2.2-3.5,4.39-2.7.3.112,1.394.837,1.533.834.177,0,.772-.547,1.039-.566,0-1.375-.172-2.629,1.063-3.54,1.337-.987,5.945-.955,7.144.324.968,1.034.577,1.87.719,3.051.041.337.769.516,1.042.746,1.2-.774,2.362-1.472,3.786-.715,1.087.578,2.9,3.658,3.119,4.856.337,1.87-.84,2.81-2.361,3.519a2.959,2.959,0,0,0-.036,1.27,13.882,13.882,0,0,0,1.352.824c1.932,1.424.885,3.64-.1,5.288-1,1.681-2.258,3.354-4.459,2.383-.254-.112-1.126-.73-1.291-.735-.229-.008-.751.485-1.041.516" transform="translate(-0.065 -0.003)" fill="#fff" stroke="#00222f" stroke-width="0.5"/>
        <path id="Path_16486" data-name="Path 16486" d="M29.614,24.931a2.542,2.542,0,0,0,.633,0c.021-.013.115-.357.164-.452a2.129,2.129,0,0,1,4.051,1.077c-.031.388-.294.72-.331.978-.013.092.3.408.378.422.122.025.612-.247.861-.275A2.121,2.121,0,0,1,37,30.483c-.289.2-.823.256-.87.581-.081.569.192.4.56.607a2.124,2.124,0,0,1-1.312,3.994c-.311-.042-.708-.36-.951-.216-.478.281-.2.417-.1.763a2.125,2.125,0,0,1-3.91,1.662c-.093-.178-.086-.447-.259-.468-.69-.082-.478.039-.7.468a2.121,2.121,0,0,1-3.941-1.548c.049-.189.277-.478.186-.619-.389-.6-.738-.094-1.275-.035a2.116,2.116,0,0,1-1.468-3.861,8.65,8.65,0,0,0,.781-.393c.179-.728-.493-.64-.947-1a2.124,2.124,0,0,1,1.772-3.729c.244.034.579.267.746.269a1.028,1.028,0,0,0,.437-.384,10.446,10.446,0,0,1-.342-1.09,2.138,2.138,0,0,1,3.874-1.335c.12.171.306.76.341.783M28.9,25.936c-.232-.237-.329-1-.67-1.324a1.034,1.034,0,0,0-1.558.187c-.571.878.455,1.474.218,2.177-.081.238-.871.707-.989,1.041-.47.42-.961-.118-1.44-.216a1.022,1.022,0,0,0-.794,1.881c.271.152.975.3,1.1.569a6.958,6.958,0,0,1,.021,1.8c-.107.327-.876.449-1.18.633a1.03,1.03,0,0,0,.8,1.883c.4-.07.875-.517,1.289-.387.312.1.693.883,1.086,1.019.455.533-.346,1.269-.288,1.878a1.058,1.058,0,0,0,1.74.665c.328-.313.5-1.289.811-1.436s.592.025.89.025.535-.175.888-.024c.379.163.445,1.123.851,1.469a1.048,1.048,0,0,0,1.52-.222c.562-.868-.439-1.48-.218-2.175.088-.276.894-.714,1.018-1.085.447-.392,1.01.187,1.468.274a1.029,1.029,0,0,0,.749-1.908c-.293-.166-.99-.289-1.126-.614a7.492,7.492,0,0,1-.005-1.743c.174-.53,1.951-.42,1.676-1.739a1,1,0,0,0-1.293-.777c-.352.062-.891.464-1.213.388-.242-.058-.694-.625-.9-.841-.143-.147-.334-.174-.388-.413-.116-.521.469-1.1.418-1.643a1.029,1.029,0,0,0-1.895-.458c-.237.366-.334,1.149-.783,1.249a4.625,4.625,0,0,1-.911-.042c-.282,0-.61.189-.883-.089" transform="translate(-1.986 -2.101)" fill="#fff" stroke="#00222f" stroke-width="0.5"/>
        <path id="Path_16487" data-name="Path 16487" d="M12.684,5.92c8.078-.824,12.044,9.308,5.663,14.071A7.861,7.861,0,0,1,5.892,12.541a7.962,7.962,0,0,1,6.792-6.62m.145,1.087A6.754,6.754,0,1,0,17.7,19.123,6.811,6.811,0,0,0,12.829,7.007" transform="translate(-0.525 -0.53)" fill="#fff" stroke="#00222f" stroke-width="0.5"/>
        <path id="Path_16488" data-name="Path 16488" d="M36.365,11.508a2.276,2.276,0,0,1,2.5,3.772c-.091.082-.215.026-.18.178a2.263,2.263,0,0,1-2.32,3.88,2.25,2.25,0,0,1-4.5,0,2.244,2.244,0,0,1-2.248-3.878,2.277,2.277,0,0,1,2.248-3.952,2.252,2.252,0,0,1,4.5,0M38.3,18.153a1.242,1.242,0,0,0,.026-1.606c-.289-.324-.806-.315-.872-.868-.135-1.124.351-.805.839-1.339A1.173,1.173,0,0,0,37.2,12.383c-.6.1-.662.654-1.468.155-.763-.474-.219-1.058-.675-1.645A1.2,1.2,0,0,0,33.141,11c-.273.443-.083.921-.222,1.228a2.506,2.506,0,0,1-.635.452c-.586.212-.646-.164-1.065-.271a1.171,1.171,0,0,0-1.092,2.033c.377.321.69.216.731.866.076,1.185-.987.807-1.147,1.759A1.155,1.155,0,0,0,31.329,18.4c.333-.111.436-.408.9-.254.045.015.468.256.508.289.317.261.189.621.253.98a1.169,1.169,0,0,0,2.271.161c.137-.69-.144-1.063.761-1.413.544-.21.618.172.993.271a1.355,1.355,0,0,0,1.282-.281" transform="translate(-2.583 -0.847)" fill="#fff" stroke="#00222f" stroke-width="0.5"/>
        <path id="Path_16489" data-name="Path 16489" d="M10,35.735A2.418,2.418,0,0,1,9.746,38.2a2.29,2.29,0,0,1-3.7-.145,2.3,2.3,0,0,1-3.952-2.321,2.252,2.252,0,0,1-.03-4.491c.064-.084-.19-.745-.193-.983a2.28,2.28,0,0,1,4.175-1.27A2.27,2.27,0,0,1,10,31.2c.216.152.488.126.775.242A2.243,2.243,0,0,1,10,35.735m-.85-.921c.166-.136.79-.1,1.082-.187a1.17,1.17,0,0,0-.287-2.28c-.461-.08-.571.127-.919-.314-.629-.8-.018-.954.086-1.57a1.173,1.173,0,0,0-1.748-1.241c-.458.267-.492.932-1.1,1.005-1.239.149-.87-.893-1.777-1.127a1.164,1.164,0,0,0-1.415,1.559c.211.59.537.54.093,1.255-.4.642-.632.308-1.251.49a1.174,1.174,0,0,0-.057,2.224c.488.166.919-.087,1.238.357.55.769.165.8-.04,1.458A1.147,1.147,0,0,0,4.681,37.85c.761-.361.414-1.2,1.65-1.022.487.07.453.385.694.683a1.167,1.167,0,0,0,2.085-.925c-.079-.475-.507-.6-.3-1.21.015-.044.317-.541.342-.562" transform="translate(0 -2.527)" fill="#fff" stroke="#00222f" stroke-width="0.5"/>
        <path id="Path_16490" data-name="Path 16490" d="M20.282,34.533c-.068.094.4.966.49,1.131.489.882,1.428,1.572.948,2.662a1.506,1.506,0,0,1-2.236.583,3.162,3.162,0,0,1-.6-.7,10.556,10.556,0,0,1-1.659-3.379,1.279,1.279,0,0,1-1.282-1.767,20.215,20.215,0,0,1,1.3-2.614,1.277,1.277,0,0,1,2.151,0,15.968,15.968,0,0,1,1.662,2.687,1.217,1.217,0,0,1-.775,1.4m-2.06-3.55c-.176.058-1.014,2.047-1.223,2.332-.274.726.652.2.992.564.148.158.526,1.436.68,1.785a11.145,11.145,0,0,0,.68,1.277c.146.237.68,1.1.9,1.14.276.047.572-.136.51-.437-.043-.2-.842-1.256-1.023-1.593A5.27,5.27,0,0,1,19,33.945c.192-.614,1.118-.109.971-.669L18.5,31.048a.245.245,0,0,0-.278-.065" transform="translate(-1.433 -2.697)" fill="#fff" stroke="#00222f" stroke-width="0.5"/>
        <path id="Path_16491" data-name="Path 16491" d="M29.183,5.525a.323.323,0,0,0-.054.276c.293.232,1.7,2.182,1.889,2.181.125,0,.146-.084.2-.17A20.13,20.13,0,0,0,32.136,5.2c-.1-.327-.764.23-1.186-.339-.065-.088-.662-1.34-.678-1.426a.539.539,0,0,1,.823-.6c.269.163.567,1.118.623,1.153.08.049.42-.006.588.028A1.326,1.326,0,0,1,33.2,5.59,21.921,21.921,0,0,1,32.1,8.482a1.3,1.3,0,0,1-1.919.258,20.618,20.618,0,0,1-2.02-2.475,1.254,1.254,0,0,1,.17-1.407c.079-.094.388-.287.392-.322a12.47,12.47,0,0,0-1.081-1.595c-.151-.195-.4-.352-.537-.55C25.991.8,28.071-1.052,29.641.728c.294.333.811.968.163,1.251-.791.345-1.042-1.188-1.723-.852-.618.3.52,1.252.756,1.566.338.454,1.264,1.817,1.2,2.342-.066.546-.666.367-.855.49" transform="translate(-2.421 0)" fill="#fff" stroke="#00222f" stroke-width="0.5"/>
        <path id="Path_16492" data-name="Path 16492" d="M30.067,28.477a3.183,3.183,0,0,1,1.16,6.235c-4.35,1.166-5.638-5.742-1.16-6.235m.07,1.086a2.106,2.106,0,0,0,.34,4.188c2.849-.1,2.537-4.563-.34-4.188" transform="translate(-2.464 -2.57)" fill="#fff" stroke="#00222f" stroke-width="0.5"/>
        <path id="Path_16493" data-name="Path 16493" d="M14.447,17.671a.935.935,0,0,1-.166-.446c.029-.511.785-.528,1.156-.735a1.582,1.582,0,0,0,.855-2.006c-.579-1.458-2.471.111-3.5.227a1.953,1.953,0,0,1-2.112-2.257c.025-.189.269-.755.259-.806-.038-.2-.671-.428-.356-.958.413-.691,1.038.159,1.127.166.237.018,1.457-.971,1.747-.056.231.731-.651.669-1.081.958-.549.371-.865.959-.41,1.546.666.861,2.083-.369,2.9-.511a2.244,2.244,0,0,1,2.614,2.687c-.033.284-.292.665-.289.8.006.26.783.511.363,1.088-.493.676-1.006-.243-1.125-.244-.033,0-.436.322-.552.378-.362.178-1.092.5-1.422.169" transform="translate(-0.948 -0.94)" fill="#fff" stroke="#00222f" stroke-width="0.5"/>
        <path id="Path_16494" data-name="Path 16494" d="M34.406,13.256c3.34-.073,3.352,5.061.053,5.061-3.258,0-3.356-4.989-.053-5.061m-.008,1.1c-2.134.069-1.566,3.551.581,2.741a1.426,1.426,0,0,0-.581-2.741" transform="translate(-2.889 -1.197)" fill="#fff" stroke="#00222f" stroke-width="0.5"/>
        <path id="Path_16495" data-name="Path 16495" d="M5.985,31.343c3.5-.48,3.942,4.611.771,4.976-3.4.391-3.821-4.557-.771-4.976m.144,1.086a1.423,1.423,0,0,0,.546,2.793,1.423,1.423,0,0,0-.546-2.793" transform="translate(-0.355 -2.829)" fill="#fff" stroke="#00222f" stroke-width="0.5"/>
      </g>
    </g>
  </g>
</svg>
