<svg xmlns="http://www.w3.org/2000/svg" xmlns:xlink="http://www.w3.org/1999/xlink" width="77" height="77" viewBox="0 0 77 77">
  <defs>
    <clipPath id="clip-path">
      <rect id="Rectangle_7670" data-name="Rectangle 7670" width="42.908" height="43" fill="#fff" stroke="#00222f" stroke-width="0.8"/>
    </clipPath>
  </defs>
  <g id="Group_26074" data-name="Group 26074" transform="translate(-967 -1135)">
    <g id="Ellipse_23" data-name="Ellipse 23" transform="translate(967 1135)" fill="none" stroke="#fff" stroke-width="0.5">
      <circle cx="38.5" cy="38.5" r="38.5" stroke="none"/>
      <circle cx="38.5" cy="38.5" r="38.25" fill="none"/>
    </g>
    <g id="Group_26073" data-name="Group 26073" transform="translate(984 1151.034)">
      <g id="Group_26072" data-name="Group 26072" transform="translate(0 0)" clip-path="url(#clip-path)">
        <path id="Path_16351" data-name="Path 16351" d="M23.514,4.218l.011,1.458a16.026,16.026,0,0,1,12.957,21.1c.7.465,1,.036,1.618-.061a2.894,2.894,0,0,1,3.049,2.875c-.061.643-.573.986-.107,1.662.313.455,1.153.479,1.614,1.325a4.109,4.109,0,0,1,.064,2.646c-.464,1.023-1.763,1.024-1.881,1.926-.04.308.239.708.288,1.018a2.892,2.892,0,0,1-2.875,3.048c-.643-.06-.987-.572-1.662-.107-.32.22-.39.7-.629,1.014a2.859,2.859,0,0,1-4.222-.1c-.286-.421-.191-.744-.733-1-.606-.28-.84.089-1.421.166a2.872,2.872,0,0,1-2.952-2.952c.078-.615.538-.991.074-1.69a19.156,19.156,0,0,1-4.011.866l-22.7,0V36.025H14.783L13.1,35.076a15.943,15.943,0,0,1,6.257-29.4l.011-1.458H17.592c-.294,0-.812-.528-.912-.816A2.729,2.729,0,0,1,18.539.151a33.824,33.824,0,0,1,5.45-.082c1.462.166,2.807,2.04,2.151,3.448-.112.242-.6.7-.855.7ZM24.9,2.835a1.554,1.554,0,0,0-.93-1.273,22.247,22.247,0,0,0-4.3-.114c-.962.066-1.511.4-1.682,1.387ZM22.131,4.218H20.748V5.6h1.383ZM35.442,25.307A14.5,14.5,0,1,0,24.135,35.738c.372-.069.735-.174,1.108-.233A1.974,1.974,0,0,1,24.9,34.21a13.176,13.176,0,1,1,9.251-9.25,1.978,1.978,0,0,1,1.295.346m-6.4,1.383c.8-.12,1.371.6,2.138.107.31-.2.4-.7.629-1.014.385-.512.636-.358.886-1.1,1.581-4.69-.732-10.257-4.75-12.927A11.747,11.747,0,0,0,9.881,23.511a11.53,11.53,0,0,0,1.66,4.217h2.29V20.813h4.15v6.915h1.383V13.9h4.15V27.727H24.9V16.664h4.15ZM22.131,15.281H20.748V27.727h1.383Zm5.533,2.766H26.28v9.681c.256.012,1.383.078,1.383-.3ZM16.6,22.2H15.215v5.532H16.6Zm16.921,4.17c-.708.13-.7.891-1.153,1.352a2.732,2.732,0,0,1-2.231.694c-.489-.071-.71-.463-1.257-.119a4.26,4.26,0,0,0-.568.556c-.478.64-.006.863.048,1.511a2.752,2.752,0,0,1-.739,2.121c-.656.609-1.418.294-1.344,1.6.059,1.024.785.818,1.344,1.338a2.8,2.8,0,0,1,.728,2.283c-.071.489-.463.71-.119,1.258a4.311,4.311,0,0,0,.556.567c.64.478.863.006,1.511-.048a2.751,2.751,0,0,1,2.121.739c.61.655.295,1.418,1.6,1.343,1.024-.058.817-.784,1.338-1.343a2.8,2.8,0,0,1,2.283-.728c.489.07.71.463,1.258.119a4.378,4.378,0,0,0,.568-.556c.477-.64.006-.863-.049-1.511a2.755,2.755,0,0,1,.739-2.121c.656-.609,1.418-.294,1.344-1.6-.058-1.009-.806-.834-1.378-1.39a2.731,2.731,0,0,1-.694-2.23c.071-.489.463-.71.119-1.258a4.378,4.378,0,0,0-.556-.568c-.64-.477-.863,0-1.511.049a2.752,2.752,0,0,1-2.121-.739c-.64-.688-.363-1.591-1.839-1.318M26.626,29.11h-14c-.037.151.062.173.129.26a12.175,12.175,0,0,0,6.181,3.587c1.545.326,4.586.415,6.014-.3.316-.158.494-.588.821-.821.414-.294.814-.232,1.049-.766.3-.689-.313-1.234-.189-1.962" transform="translate(0 0)" fill="#fff" stroke="#00222f" stroke-width="0.8"/>
        <path id="Path_16352" data-name="Path 16352" d="M3.077,19.662A19.162,19.162,0,0,0,7.4,34.7L1.174,32.712l.434-1.382,2.246.691c-.292-.612-.617-1.215-.88-1.842A20.123,20.123,0,0,1,1.616,19.5a5.275,5.275,0,0,1,1.46.164" transform="translate(-0.05 -0.837)" fill="#fff" stroke="#00222f" stroke-width="0.8"/>
        <path id="Path_16353" data-name="Path 16353" d="M43.35,11.544l-.434,1.382-2.247-.691a20.234,20.234,0,0,1,2.239,12.522l-1.46-.164A19.161,19.161,0,0,0,37.125,9.556Z" transform="translate(-1.595 -0.411)" fill="#fff" stroke="#00222f" stroke-width="0.8"/>
        <path id="Path_16354" data-name="Path 16354" d="M34.391,30.439a4.879,4.879,0,1,1-3.844,3.33,4.96,4.96,0,0,1,3.844-3.33m.7,1.381c-4.418.129-4.322,6.9.13,6.861,4.545-.039,4.378-6.993-.13-6.861" transform="translate(-1.303 -1.306)" fill="#fff" stroke="#00222f" stroke-width="0.8"/>
        <path id="Path_16355" data-name="Path 16355" d="M34.774,33.327a2.115,2.115,0,1,1,.071,4.123c-2.128-.323-2.132-3.772-.071-4.123m.511,1.388a.667.667,0,0,0,.06,1.332.667.667,0,0,0-.06-1.332" transform="translate(-1.428 -1.43)" fill="#fff" stroke="#00222f" stroke-width="0.8"/>
      </g>
    </g>
  </g>
</svg>
