<svg xmlns="http://www.w3.org/2000/svg" xmlns:xlink="http://www.w3.org/1999/xlink" width="77" height="77" viewBox="0 0 77 77">
  <defs>
    <clipPath id="clip-path">
      <rect id="Rectangle_7668" data-name="Rectangle 7668" width="40.293" height="40" fill="none" stroke="#00222f" stroke-width="0.5"/>
    </clipPath>
  </defs>
  <g id="Group_26068" data-name="Group 26068" transform="translate(-308 -1135)">
    <g id="Ellipse_12" data-name="Ellipse 12" transform="translate(308 1135)" fill="none" stroke="#fff" stroke-width="0.5">
      <circle cx="38.5" cy="38.5" r="38.5" stroke="none"/>
      <circle cx="38.5" cy="38.5" r="38.25" fill="none"/>
    </g>
    <g id="Group_26067" data-name="Group 26067" transform="translate(326 1154)">
      <g id="Group_26066" data-name="Group 26066" clip-path="url(#clip-path)">
        <path id="Path_16332" data-name="Path 16332" d="M12.748,6.882,12.763.724c.165-1.438,2.187.644,2.558,1.062A8.807,8.807,0,0,1,14.3,14.443a8.73,8.73,0,0,0-1.3.987L15.427,32.5c.663,9.805-13.575,10.1-13.354.305L4.59,15.355A8.783,8.783,0,0,1,3.935.309c.5-.311,1.075-.6,1.2.268.237,1.695-.069,3.975.083,5.734a1.268,1.268,0,0,0,.163.623L8.951,9.545Zm1.038-5.173V7.173a1.209,1.209,0,0,1-.276.353L9.256,10.581a.539.539,0,0,1-.559.03C7.243,9.5,5.7,8.476,4.315,7.289c-.153-1.937-.03-3.888-.238-5.817C-2.59,6.532,2.424,17.142,10.642,15.192A7.785,7.785,0,0,0,13.787,1.709m-1.73,14.073a8.742,8.742,0,0,1-6.486,0l-.105.127L3.1,32.646c-.557,8.232,11.369,8.628,11.4.393Z" transform="translate(0 0)" fill="#fff" stroke="#00222f" stroke-width="0.5"/>
        <path id="Path_16333" data-name="Path 16333" d="M103.032,64.107c.058-.1-.278-1.61-.3-1.912a11.957,11.957,0,0,1,.318-3.207l-2.2-1.515a.442.442,0,0,1-.1-.561,30.2,30.2,0,0,1,2-3.507c.248-.318.324-.4.713-.272s2.2,1.1,2.367,1.071a10.173,10.173,0,0,1,4.3-2.462,19.949,19.949,0,0,0,.253-2.578.581.581,0,0,1,.37-.494c1.319.027,2.837-.158,4.135-.039.276.025.494.059.569.374.117.49.089,2.532.333,2.733.118.1,1.246.438,1.545.578a12.605,12.605,0,0,1,2.75,1.887c.205.04,1.989-1.024,2.4-1.115a.533.533,0,0,1,.448.071l2.187,3.709a.855.855,0,0,1,.018.371c-.079.417-1.989,1.377-2.328,1.807a9.815,9.815,0,0,1,.011,5c.37.377,2.239,1.354,2.317,1.767a.729.729,0,0,1-.043.425c-.405.441-1.868,3.519-2.156,3.66-.562.273-2.222-.914-2.856-1.045a14.265,14.265,0,0,1-2.648,1.83c-.315.152-1.516.522-1.648.632-.236.195-.226,2.247-.333,2.733a.379.379,0,0,1-.31.319c-1.307,0-2.832.172-4.119.055-.421-.038-.6-.167-.657-.6-.11-.789-.051-1.676-.2-2.473a10.832,10.832,0,0,1-4.344-2.5c-.281-.072-2.162,1.166-2.658,1.1l-.24-.08L100.69,65.9l.162-.315Zm11.493-14.45H111.42c-.044,0-.12.132-.118.2a21.883,21.883,0,0,1-.163,2.274.6.6,0,0,1-.187.364c-.205.15-1.192.368-1.536.508a13.905,13.905,0,0,0-3.44,2.306c-.756-.055-1.712-.891-2.379-1.058-.064-.016-.087-.034-.157,0-.273.142-1.255,2.294-1.567,2.669.029.17,1.847,1.222,2.11,1.51a.492.492,0,0,1,.163.315c.031.326-.329,1.343-.382,1.811a9.148,9.148,0,0,0,0,1.946,14.132,14.132,0,0,1,.371,1.879c-.114.4-2.23,1.53-2.249,1.746l1.591,2.7c.579-.176,2.049-1.185,2.578-1.077a11.827,11.827,0,0,1,1.322,1.12,9.6,9.6,0,0,0,2.175,1.206c.437.178,1.47.328,1.575.783A20.467,20.467,0,0,1,111.3,73.2c0,.064.074.2.118.2h3.105c.13-.523.049-2.5.334-2.811a14.356,14.356,0,0,1,1.551-.532,10.2,10.2,0,0,0,2.24-1.3,12.3,12.3,0,0,1,1.185-1.021,14.436,14.436,0,0,1,2.592,1.092l1.6-2.7c0-.162-2.112-1.312-2.238-1.685a11.609,11.609,0,0,1,.357-2.247,9.906,9.906,0,0,0,0-1.26c-.053-.8-.376-1.557-.38-2.339a24.1,24.1,0,0,1,2.26-1.666l-1.615-2.708c-.116-.027-1.775.866-2.077.975-.8.289-.841-.233-1.377-.664a10.5,10.5,0,0,0-2.711-1.613c-.7-.283-1.453-.159-1.562-1.032-.09-.72-.063-1.5-.166-2.232" transform="translate(-84.858 -40.951)" fill="#fff" stroke="#00222f" stroke-width="0.5"/>
        <path id="Path_16334" data-name="Path 16334" d="M37.7,194c4.6-.082,4.546,7.24-.335,6.817-4.078-.353-4.026-6.739.335-6.817m-1.685,5.139c2.4,2.4,5.934-1.614,3.156-3.667a2.429,2.429,0,0,0-3.156,3.667" transform="translate(-28.967 -163.497)" fill="#fff" stroke="#00222f" stroke-width="0.5"/>
        <path id="Path_16335" data-name="Path 16335" d="M135.6,80.838a7.882,7.882,0,1,1-6.688,10.336A7.894,7.894,0,0,1,135.6,80.838m.471.943a6.894,6.894,0,1,0,6.493,9.951,6.918,6.918,0,0,0-6.493-9.951" transform="translate(-108.308 -68.099)" fill="#fff" stroke="#00222f" stroke-width="0.5"/>
        <path id="Path_16336" data-name="Path 16336" d="M192.965,112.479c-.425-.34-.291-1.117.317-.992a8.53,8.53,0,0,1,1.607,1.23.607.607,0,0,1-.07.634,16.076,16.076,0,0,1-1.439,1.079c-.706.153-.857-.493-.415-.928H191.59a.835.835,0,0,1-.434-.437c-.029-.206.157-.585.356-.585Z" transform="translate(-161.097 -93.946)" fill="#fff" stroke="#00222f" stroke-width="0.5"/>
        <path id="Path_16337" data-name="Path 16337" d="M143.757,132.226h1.376c.139,0,.427.341.427.511a.962.962,0,0,1-.348.511h-1.454c.512.525.094,1.25-.588.863-.3-.169-1.45-1.063-1.45-1.374,0-.263,1.355-1.4,1.609-1.453.665-.129.868.5.43.942" transform="translate(-119.435 -110.627)" fill="#fff" stroke="#00222f" stroke-width="0.5"/>
        <path id="Path_16338" data-name="Path 16338" d="M185.856,142.208c.442-.439,1.072-.235.942.43-.049.254-1.191,1.609-1.453,1.609-.3,0-1.456-1.441-1.5-1.721-.086-.525.656-.741.991-.318v-1.376c0-.139.341-.427.511-.427s.511.288.511.427Z" transform="translate(-154.931 -118.329)" fill="#fff" stroke="#00222f" stroke-width="0.5"/>
        <path id="Path_16339" data-name="Path 16339" d="M156.119,98.9v1.612c0,.328-.943.312-.943-.079V98.9c-.361.533-1.17.33-1.006-.333a17.663,17.663,0,0,1,1.083-1.437.53.53,0,0,1,.83.038,16.167,16.167,0,0,1,1.045,1.4c.142.681-.636.862-1.008.335" transform="translate(-129.911 -81.706)" fill="#fff" stroke="#00222f" stroke-width="0.5"/>
      </g>
    </g>
  </g>
</svg>
