<svg xmlns="http://www.w3.org/2000/svg" xmlns:xlink="http://www.w3.org/1999/xlink" width="77" height="77" viewBox="0 0 77 77">
  <defs>
    <clipPath id="clip-path">
      <rect id="Rectangle_7674" data-name="Rectangle 7674" width="34.945" height="35" fill="#fff" stroke="#00222f" stroke-width="0.5"/>
    </clipPath>
  </defs>
  <g id="Group_26188" data-name="Group 26188" transform="translate(-293 -2115)">
    <g id="Ellipse_12" data-name="Ellipse 12" transform="translate(293 2115)" fill="none" stroke="#fff" stroke-width="0.5">
      <circle cx="38.5" cy="38.5" r="38.5" stroke="none"/>
      <circle cx="38.5" cy="38.5" r="38.25" fill="none"/>
    </g>
    <g id="Group_26093" data-name="Group 26093" transform="translate(314 2136)">
      <g id="Group_26092" data-name="Group 26092" clip-path="url(#clip-path)">
        <path id="Path_16382" data-name="Path 16382" d="M5.98,1.1l.613,1.014L6.85,3.161,6.917,30.7a1.085,1.085,0,0,0,.723,1.011l14.532.034a4.035,4.035,0,0,1,2.5-3.892c.776-.311,1.525-.178,2.048-.991.014-.066-.746-.706-.865-.863-.671-.873-.481-1.441-.667-2.368-.038-.19-.238-.428-.308-.632-.849-2.476.629-3.868,3.035-3.907.252-.005.494.15.78.063.119-.036.337-.325.507-.433,1.521-.963,3.575.594,3.356,2.345a23.313,23.313,0,0,1-.9,2.492c-.081.405-.019.843-.14,1.306A4.72,4.72,0,0,1,30.265,26.8c.47.933,1.354.812,2.17,1.158a4.265,4.265,0,0,1,2.353,2.779,15.459,15.459,0,0,1,.108,3.437.956.956,0,0,1-.759.831l-11.463-.034a1.4,1.4,0,0,1-.574-.655V32.83L7.54,32.824a2.37,2.37,0,0,1-1.777-1.837V6.885H.378c-.162,0-.314-.45-.329-.611A13.527,13.527,0,0,1,.268,2.3,3.44,3.44,0,0,1,2.666.139C10.556-.141,18.5.1,26.4.016a3.5,3.5,0,0,1,3.5,3.365c.321,4.267-.241,8.919,0,13.227.013.675-.624.937-1.049.394L28.826,3.666A2.485,2.485,0,0,0,26.618,1.1ZM5.763,5.729V2.874c0-.631-.98-1.449-1.55-1.63-1.256-.4-3.076.518-3.076,1.919V5.729ZM31.134,22.351a4.773,4.773,0,0,0,.418-1.827,1.74,1.74,0,0,0-1.035-.987c-1.02-.161-.651.833-1.584.791a4.311,4.311,0,0,0-2.279.108c-.794.322-.924.8-.867,1.626a1.167,1.167,0,0,1,.839-.5,21.589,21.589,0,0,1,3.316-.007,1.176,1.176,0,0,1,.905.468c.066.078.162.44.287.326m-4.4.3a2.216,2.216,0,0,0-.193,2.374,2.144,2.144,0,0,0,4.019-1.2,3.885,3.885,0,0,0-.657-1.153,31.327,31.327,0,0,0-3.169-.024m2.509,4.475c-.031-.022-.593.135-.747.142a4.669,4.669,0,0,0-.688-.045c-.2.107-.509.849-.867.944l1.563,1.549a15.246,15.246,0,0,0,1.539-1.486c.019-.109-.365-.418-.459-.538s-.314-.547-.341-.566m-1.219,6.787V30.77l-2.092-2.092a2.919,2.919,0,0,0-2.681,2.668,15.5,15.5,0,0,0,.075,2.568Zm5.783,0V31.276a4.758,4.758,0,0,0-.3-.929,3.036,3.036,0,0,0-2.3-1.676,18.836,18.836,0,0,0-2.173,2.172v2.963a.742.742,0,0,0,.109.108Z" fill="#fff" stroke="#00222f" stroke-width="0.5"/>
        <path id="Path_16383" data-name="Path 16383" d="M15.956,27.482c.257-.2.272-.592.474-.862.554-.741.94-.045,1.549.139.087-.092-.607-2.055-.584-2.421a.544.544,0,0,1,1.054-.108c.434,1.015.539,2.542.945,3.611-.1,1.539-2.087-.427-2.281-.286-.225.377-.648,1.714-.945,1.911a.566.566,0,0,1-.847-.229l-.74-2.983c-.45.364-1.114,2.235-1.519,2.419a.557.557,0,0,1-.706-.23,12.644,12.644,0,0,1-.449-2.117c-.55.02-2.238.869-2.292-.119a22.272,22.272,0,0,1,1.39-2.7,3.429,3.429,0,0,0,.324-.724c-1.886.064-1.043-1.706-1.316-2.623-.071-.24-.86-.774-1.067-1.029a1.225,1.225,0,0,1-.18-1.476c.185-.3,1.1-.974,1.175-1.21.209-.705-.3-1.779.376-2.443.621-.607,1.618-.149,2.262-.34.2-.059.906-.945,1.172-1.141a1.235,1.235,0,0,1,1.361-.061c.322.2,1.029,1.135,1.256,1.2.671.2,1.6-.28,2.255.347.687.656.176,1.665.383,2.363.069.233,1.045.974,1.247,1.283a1.086,1.086,0,0,1,0,1.22c-.213.382-1.182,1.146-1.245,1.357-.218.734.386,1.946-.566,2.469-.625.343-1.659-.019-2.122.192a15.474,15.474,0,0,0-1.2,1.193Zm1.951-12.719H16.064c-.28,0-1.239-1.156-1.518-1.372-.321.257-1.216,1.372-1.591,1.372H11.112v1.843c0,.409-1.173,1.306-1.444,1.662.271.356,1.444,1.253,1.444,1.662V21.7h1.843c.33,0,1.356,1.374,1.592,1.355.341-.241,1.2-1.355,1.589-1.355h1.843V19.858c0-.354,1.3-1.451,1.3-1.662s-.9-.827-1.087-1.084a4.807,4.807,0,0,1-.289-.506ZM13.063,26.687c.109-.506,1.019-1.537,1.009-1.978-.016-.693-1.073-1.332-1.478-1.85l-1.409,2.6c1.617-.537,1.427-.248,1.785,1.071.02.074-.013.179.093.157" fill="#fff" stroke="#00222f" stroke-width="0.5"/>
        <path id="Path_16384" data-name="Path 16384" d="M9.068,8.924l17.407-.017a.544.544,0,0,1,0,1.087L9.121,10a.549.549,0,0,1-.053-1.072" fill="#fff" stroke="#00222f" stroke-width="0.5"/>
        <path id="Path_16385" data-name="Path 16385" d="M11.814,5.094l11.84-.015c.708-.019.9,1,.146,1.085L11.62,6.125a.581.581,0,0,1,.194-1.031" fill="#fff" stroke="#00222f" stroke-width="0.5"/>
        <path id="Path_16386" data-name="Path 16386" d="M29.958,31.184a21.585,21.585,0,0,1,2.933,0,.559.559,0,0,1-.062,1.063,19.633,19.633,0,0,1-2.871-.01.543.543,0,0,1,0-1.053" fill="#fff" stroke="#00222f" stroke-width="0.5"/>
        <path id="Path_16387" data-name="Path 16387" d="M13.987,15.649c3.766-.515,4.132,4.867.767,5.175-3.456.317-3.835-4.756-.767-5.175m.487,1.106a1.53,1.53,0,0,0,.066,3.06,1.53,1.53,0,0,0-.066-3.06" fill="#fff" stroke="#00222f" stroke-width="0.5"/>
      </g>
    </g>
  </g>
</svg>
