<svg xmlns="http://www.w3.org/2000/svg" xmlns:xlink="http://www.w3.org/1999/xlink" width="77" height="77" viewBox="0 0 77 77">
  <defs>
    <clipPath id="clip-path">
      <rect id="Rectangle_7728" data-name="Rectangle 7728" width="31.344" height="44" fill="none"/>
    </clipPath>
  </defs>
  <g id="Group_26209" data-name="Group 26209" transform="translate(-637 -2000)">
    <g id="Ellipse_12" data-name="Ellipse 12" transform="translate(637 2000)" fill="none" stroke="#fff" stroke-width="0.5">
      <circle cx="38.5" cy="38.5" r="38.5" stroke="none"/>
      <circle cx="38.5" cy="38.5" r="38.25" fill="none"/>
    </g>
    <g id="Group_26208" data-name="Group 26208" transform="translate(660 2017)">
      <g id="Group_26207" data-name="Group 26207" clip-path="url(#clip-path)">
        <path id="Path_16471" data-name="Path 16471" d="M27.2,24.89c.029.044.27.06.363.12A9.592,9.592,0,0,1,30.952,29.9c.3,1.063.638,3.221.131,4.215-.233.456-1.292.886-1.78,1.036-.8.244-.891-.229-1.231-.184l-3.063,1.388a1.743,1.743,0,0,1-.89,1.618,5.813,5.813,0,0,1-.793.219,2.721,2.721,0,0,1-.486,1.494,2.3,2.3,0,0,1-1.277.526c-.023.023.013.482-.02.641a1.69,1.69,0,0,1-1.912,1.21c-.177,1.718-1.784,1.89-3.033,1.047a1.72,1.72,0,0,1-2.508.572c-.179-.125-.535-.631-.586-.644-.1-.024-.652.238-.879.245a1.863,1.863,0,0,1-1.094-.386c-.163-.126-.518-.633-.584-.653-.114-.034-.539.157-.775.172a1.722,1.722,0,0,1-1.718-2.291,1.72,1.72,0,0,1-1.721-2.118c.036-.166.232-.444.211-.553a9.567,9.567,0,0,0-.685-.81,23.359,23.359,0,0,0-3-1.586c-.309-.076-.44.151-.7.189A5.321,5.321,0,0,1,.4,34.318c-.632-.755-.373-2.857-.174-3.786a8.8,8.8,0,0,1,3.921-5.688L4.139.572C4.18.082,4.22.041,4.711,0L22.4.006c1.644,1.425,3.122,3.1,4.714,4.612l.088.351ZM21.827.884H5.022V25.166a5.206,5.206,0,0,1,1.8,1.062c.086.147.087.33.158.459a4.307,4.307,0,0,0,1.76.879c1.86.465,3.49-.213,5.242.213.3.073,1.222.549,1.293.551s1.241-.639,1.544-.741c2.443-.827,3.733.515,5.8,0a5.953,5.953,0,0,0,1.618-.758c.193-.189.129-.355.24-.551.258-.457,1.35-.866,1.837-1.111V5.371H22.223a.863.863,0,0,1-.4-.4ZM25.61,4.491l-2.9-2.9V4.359a.867.867,0,0,0,.132.132ZM6.078,26.663c-.468-.08-1.462-.965-1.868-.866-.436.108-1.566,1.524-1.847,1.944A8.634,8.634,0,0,0,.884,32.779a3.443,3.443,0,0,0,.2.987c.111.117,1.319.639,1.433.465A9.846,9.846,0,0,1,4.977,27.8c.319-.36.7-.635,1.045-.959.074-.07.08-.06.056-.182m24.173,7.1a3.443,3.443,0,0,0,.2-.987,8.634,8.634,0,0,0-1.479-5.038c-.281-.42-1.411-1.836-1.847-1.944-.406-.1-1.4.786-1.868.866-.025.122-.018.112.056.182.343.324.726.6,1.044.959a9.841,9.841,0,0,1,2.459,6.427c.114.174,1.322-.348,1.433-.465m-15.815-4.9c-1.693-.735-3.458,0-5.226-.274A7.336,7.336,0,0,1,7.9,28.224c-.308-.117-1.243-.705-1.446-.619a7.681,7.681,0,0,0-1.3,1.351,8.28,8.28,0,0,0-1.708,5.126c1.172.914,3.071,1.2,3.858,2.521.175.123.637-.854.791-1.011a1.779,1.779,0,0,1,2.549.09,5.07,5.07,0,0,1,.364.736c.114.082.414-.067.562-.061a2.135,2.135,0,0,1,1.275.555,7.037,7.037,0,0,1,.438.8,2.617,2.617,0,0,1,1.493.261,2.482,2.482,0,0,1,.71,1.1,3.4,3.4,0,0,1,.39-.093,1.654,1.654,0,0,1,1.668.893c.061.106.124.4.152.42.06.04.356,0,.521.051.574.176,1.719,1.421,2.325.574.911-1.273-1.977-1.685-2.046-2.431a.485.485,0,0,1,.532-.455c.761.118,2.807,2.294,3.339.753.4-1.155-1.4-1.442-2.047-2.039-.319-.293-.3-.742.169-.8.4-.046,1.858,1.069,2.351,1.266,1.071.427,1.819-.766.768-1.559a37.871,37.871,0,0,0-4.746-2.732c-2.819-1.275-3.831,1.024-6.064,1.047-1.356.014-3.032-1.417-1.977-2.775Zm-2.965,2.927c-.278.326.077.7.324.9,1.194.963,2.617-.282,3.787-.7a4.755,4.755,0,0,1,2.241-.309c1.14.115,4.956,2.362,6.054,3.1a6.09,6.09,0,0,1,.9.75c.775-.53,2.293-.857,2.984-1.392.33-.256.022-1.6-.078-2.016a9.074,9.074,0,0,0-1.5-3.159c-.189-.251-1.155-1.382-1.4-1.384-.169,0-1.2.631-1.516.741-2.177.776-3.208-.323-5.082-.154a5.772,5.772,0,0,0-2.128.775c-1.547.826-3.042,1.986-4.578,2.855M9.132,36.006c-.421.1-1.465,1.847-1.542,2.247a.835.835,0,0,0,1.438.728,10.488,10.488,0,0,0,1.151-2.024.839.839,0,0,0-1.047-.951m1.815,1.507L9.265,40.45a.849.849,0,0,0,1.477.773A29.28,29.28,0,0,0,12.4,38.3a.861.861,0,0,0-1.448-.785m2.676,1.042a1.181,1.181,0,0,0-.458.252c-.133.145-1.368,2.284-1.415,2.456a.866.866,0,0,0,1.457.841c.111-.116,1.349-2.265,1.384-2.4a.865.865,0,0,0-.968-1.15m2.111,1.326a1,1,0,0,0-.4.3c-.106.127-1.03,1.748-1.053,1.854a.85.85,0,0,0,1.438.819,12.372,12.372,0,0,0,1.15-2.025.851.851,0,0,0-1.131-.947m2.813,2.68c.616-.616-.29-1.292-.854-1.471l-.579,1.234c.343.319,1.044.626,1.433.237" fill="#fff"/>
        <path id="Path_16472" data-name="Path 16472" d="M17.008,3.414a1.314,1.314,0,0,0,.546.2c.284-.025.568-.535.954-.428a14.871,14.871,0,0,1,1.338,1.308c.228.489-.426.745-.379,1.165.078.709.971.345,1.172.769A8.917,8.917,0,0,1,20.664,8.3c-.132.461-.932.307-1.045.469-.466.662.412.943.257,1.466a15.153,15.153,0,0,1-1.307,1.34c-.435.2-.728-.42-1.074-.383-.9.1-.327,1.028-.922,1.2a10.544,10.544,0,0,1-1.812,0c-.412-.124-.272-.874-.473-1.045-.6-.509-.93.412-1.46.255a12.819,12.819,0,0,1-1.284-1.273c-.289-.55.4-.709.326-1.2-.1-.713-.96-.323-1.173-.771a9.218,9.218,0,0,1-.027-1.875c.152-.507,1.3-.1,1.214-.981-.03-.3-.527-.538-.4-.929a6.956,6.956,0,0,1,1.371-1.371c.4-.126.7.417,1.078.388.706-.055.346-.969.771-1.171a7.587,7.587,0,0,1,1.934,0c.389.172.233.787.374.989m-.9-.151a4.138,4.138,0,0,0-.876-.005c-.027.029.069.474-.173.751a2.754,2.754,0,0,1-1.434.555c-.289-.06-.378-.433-.679-.3a2.546,2.546,0,0,0-.428.455c-.036.182.345.454.344.779a4.051,4.051,0,0,1-.428,1.073c-.334.5-.836.321-.9.379a4.1,4.1,0,0,0,0,.879c.031.029.544-.039.8.217a2.9,2.9,0,0,1,.51,1.391c-.046.22-.4.466-.3.678a2.52,2.52,0,0,0,.463.433c.246.063.452-.353.763-.342a5.511,5.511,0,0,1,1.085.42c.5.314.32.839.378.9a4.128,4.128,0,0,0,.875,0c.031-.031.013-.585.218-.794a3.915,3.915,0,0,1,1.393-.508c.22.04.462.407.678.3a2.518,2.518,0,0,0,.433-.463c.063-.249-.361-.461-.343-.766a11.092,11.092,0,0,1,.452-1.14c.234-.349.856-.27.873-.37-.032-.145.03-.8-.005-.829s-.553.039-.8-.216A3.775,3.775,0,0,1,18.5,5.349c.057-.233.431-.382.3-.68a2.557,2.557,0,0,0-.456-.429c-.19-.037-.441.347-.77.335a5.282,5.282,0,0,1-1.084-.418c-.469-.3-.3-.819-.381-.894" fill="#fff"/>
        <path id="Path_16473" data-name="Path 16473" d="M7,19.887c-.363-.112-.306-.815.436-.884,3.236-.3,6.927.233,10.211,0,.81.1.532.881.351.881Z" fill="#fff"/>
        <path id="Path_16474" data-name="Path 16474" d="M14.128,17.335a.473.473,0,0,1,.262-.88c2.97-.317,6.481.241,9.508,0,.955.087.659.884.436.884Z" fill="#fff"/>
        <path id="Path_16475" data-name="Path 16475" d="M15.272,22.438a.67.67,0,0,1-.2-.328c-.076-.49.467-.531.817-.556,2.618-.18,5.45.137,8.09.012.858.12.58.872.36.872Z" fill="#fff"/>
        <path id="Path_16476" data-name="Path 16476" d="M15.819,13.924l8.256-.024c.558.049.71.829.087.889H15.883a.435.435,0,0,1-.064-.865" fill="#fff"/>
        <path id="Path_16477" data-name="Path 16477" d="M6.891,14.675c-.29-.286.066-.815.461-.772,2.138.188,4.69-.246,6.777,0,.7.082.693.8.091.886-2.222-.153-4.677.187-6.871,0-.138-.012-.358-.014-.458-.113" fill="#fff"/>
        <path id="Path_16478" data-name="Path 16478" d="M9.025,22.438c-.322-.1-.309-.748.285-.858a26.394,26.394,0,0,1,4.118-.026c.955.087.659.884.436.884Z" fill="#fff"/>
        <path id="Path_16479" data-name="Path 16479" d="M7,17.335c-.363-.112-.306-.816.436-.884a19.755,19.755,0,0,1,3.064.023c.592.132.38.861.194.861Z" fill="#fff"/>
        <path id="Path_16480" data-name="Path 16480" d="M19.319,19.887a.459.459,0,0,1,.039-.841A17.936,17.936,0,0,1,22.139,19c.941.087.608.884.435.884Z" fill="#fff"/>
        <path id="Path_16481" data-name="Path 16481" d="M11.818,17.226c-.617-.609,1-1.159,1.2-.444.191.683-.956.683-1.2.444" fill="#fff"/>
        <path id="Path_16482" data-name="Path 16482" d="M7.289,21.576c.958-.137,1.251,1.037-.117.867-.559-.069-.5-.779.117-.867" fill="#fff"/>
        <path id="Path_16483" data-name="Path 16483" d="M23.7,19.117c.586-.507,1.363.7.463.777-.575.051-.771-.51-.463-.777" fill="#fff"/>
        <path id="Path_16484" data-name="Path 16484" d="M13.852,9.21c-2.361-2.423,1.271-5.955,3.619-3.663,2.451,2.393-1.263,6.082-3.619,3.663m1.529-3.467a1.683,1.683,0,1,0,.662,3.3c2.026-.35,1.559-3.66-.662-3.3" fill="#fff"/>
      </g>
    </g>
  </g>
</svg>
