<svg xmlns="http://www.w3.org/2000/svg" xmlns:xlink="http://www.w3.org/1999/xlink" width="77" height="77" viewBox="0 0 77 77">
  <defs>
    <clipPath id="clip-path">
      <rect id="Rectangle_7669" data-name="Rectangle 7669" width="40.96" height="44" fill="none" stroke="#00222f" stroke-width="0.5"/>
    </clipPath>
  </defs>
  <g id="Group_26071" data-name="Group 26071" transform="translate(-652 -1135)">
    <g id="Ellipse_12" data-name="Ellipse 12" transform="translate(652 1135)" fill="none" stroke="#fff" stroke-width="0.5">
      <circle cx="38.5" cy="38.5" r="38.5" stroke="none"/>
      <circle cx="38.5" cy="38.5" r="38.25" fill="none"/>
    </g>
    <g id="Group_26070" data-name="Group 26070" transform="translate(670 1152)">
      <g id="Group_26069" data-name="Group 26069" clip-path="url(#clip-path)">
        <path id="Path_16340" data-name="Path 16340" d="M17.019,31.3c4.616.267,9.905-1.583,11.861,4a31.629,31.629,0,0,1,1.057,6.248A2.185,2.185,0,0,1,27.917,44H13.641a2.28,2.28,0,0,1-2.1-2.276,39.107,39.107,0,0,1,.715-4.964c.509-2.637,1.979-4.916,4.768-5.46m.172,1.2c-4.232.974-3.762,5.873-4.441,9.227a1.131,1.131,0,0,0,.694,1.007c4.853.106,9.744.073,14.6.017a1.045,1.045,0,0,0,.684-1.2,28.358,28.358,0,0,0-1.075-6.059,4.523,4.523,0,0,0-3.524-3.008c-2.2-.2-4.7.126-6.939.021" fill="#fff" stroke="#00222f" stroke-width="0.5"/>
        <path id="Path_16341" data-name="Path 16341" d="M36.143,15.184c.324.385,1.118-.444,1.808-.3a5.5,5.5,0,0,1,1.829,1.781c.211.712-.489,1.148-.458,1.494.049.557,1.175.353,1.509,1.064a6.842,6.842,0,0,1,.068,2.264c-.2.922-1.235.636-1.5,1.081-.251.419.558.906.4,1.6a6.026,6.026,0,0,1-1.45,1.647c-1.029.686-1.575-.464-2.172-.127-.148.083-.1,1.158-.768,1.4a4.311,4.311,0,0,1-2.552-.066c-.554-.341-.493-1.212-.66-1.336-.411-.3-1.054.519-1.839.31a5.294,5.294,0,0,1-1.745-1.779c-.214-.756.471-1.114.439-1.475-.049-.563-1.185-.347-1.505-1.068a6.019,6.019,0,0,1-.021-2.381c.292-.786,1.186-.516,1.451-.96s-.587-.865-.364-1.648A5.552,5.552,0,0,1,30.3,14.929c.779-.3.938.227,1.417.345.864.214.435-1.052,1.192-1.433a4.112,4.112,0,0,1,2.654.075c.532.37.387,1.042.579,1.268m-1.33-.216A1.8,1.8,0,0,0,33.6,14.94c-.229.148-.1.922-.771,1.314a1.721,1.721,0,0,1-2.123-.152c-.125.2-.371.282-.515.436-.686.739.013.7.088,1.373a2.012,2.012,0,0,1-.661,1.578c-.266.172-.761.2-.89.313a2.529,2.529,0,0,0-.045,1.251c.078.117.792.23,1.037.424a2.112,2.112,0,0,1,.538,1.661c-.12.521-.71.528-.112,1.179a5.375,5.375,0,0,0,.6.493c.1.008.678-.484,1.034-.5a2.372,2.372,0,0,1,1.491.748c.147.27.138.913.485.976a3.364,3.364,0,0,0,.99-.041c.179-.108.225-.676.323-.88a2.036,2.036,0,0,1,1.741-.757c.576.155.571.682,1.155.214,1.053-.843.169-.882.126-1.67a2.022,2.022,0,0,1,.719-1.524,7.629,7.629,0,0,1,.925-.29c-.063-.282.087-1.043-.045-1.243-.077-.117-.8-.195-1.082-.465a2.144,2.144,0,0,1-.493-1.62c.117-.507.677-.5.151-1.132a5.05,5.05,0,0,0-.641-.545c-.058,0-.7.49-1.034.505a2.261,2.261,0,0,1-1.491-.748c-.12-.219-.161-.741-.29-.87" fill="#fff" stroke="#00222f" stroke-width="0.5"/>
        <path id="Path_16342" data-name="Path 16342" d="M9.743,15.969c.692.166,2.784-.382,2.981.5l.023,9.611a.679.679,0,0,1-.559.731c-3.1-.222-6.58.28-9.635,0-.421-.039-.59-.118-.643-.561-.085-.719.077-1.575-.01-2.311-.274-.209-.583-.285-.876-.5A2.514,2.514,0,0,1,1.9,18.977c.181-.726-.428-2.836.574-2.993.371-.058,2.344.066,2.436-.014.02-.017.075-.36.146-.5a2.515,2.515,0,0,1,4.685.5M5.651,17.182c-.575.159-1.875-.119-2.536,0v2.449c0,.437-.772.451-1.017.531a1.313,1.313,0,0,0-.014,2.477c.257.089,1.031.1,1.031.516V25.6h8.424V17.182H9c-.309,0-.368-.789-.427-.948a1.33,1.33,0,0,0-2.241-.517c-.361.378-.281,1.353-.684,1.465" fill="#fff" stroke="#00222f" stroke-width="0.5"/>
        <path id="Path_16343" data-name="Path 16343" d="M15.781,2a7.107,7.107,0,1,1,3.286,12A7.139,7.139,0,0,1,15.781,2m4.336-.778a5.9,5.9,0,1,0,5.706,8.885,5.923,5.923,0,0,0-5.706-8.885" fill="#fff" stroke="#00222f" stroke-width="0.5"/>
        <path id="Path_16344" data-name="Path 16344" d="M20.375,19.185c7.561-.521,8.261,11.038.747,11.489-7.539.453-8.28-10.97-.747-11.489m.086,1.2c-5.927.372-5.379,9.451.575,9.082,5.92-.366,5.418-9.459-.575-9.082" fill="#fff" stroke="#00222f" stroke-width="0.5"/>
        <path id="Path_16345" data-name="Path 16345" d="M7.219,27.336a.637.637,0,0,1,.712.63l.039,8.04c.323,1.252,2.564.377,3.377.748a.639.639,0,0,1-.061,1.1,14.437,14.437,0,0,1-2.458.041,2.2,2.2,0,0,1-2.107-2.019c-.231-2.539.186-5.424,0-8-.014-.231.29-.5.5-.541" fill="#fff" stroke="#00222f" stroke-width="0.5"/>
        <path id="Path_16346" data-name="Path 16346" d="M34.037,27.768c.487-.1.773.252.8.715-.129,2.3.173,4.777,0,7.051A2.28,2.28,0,0,1,32.73,37.9a14.234,14.234,0,0,1-2.457-.041.613.613,0,0,1-.08-1.121c.434-.195,1.971.05,2.6-.064.611-.111.793-.673.84-1.223.2-2.305-.151-4.891-.007-7.227a.485.485,0,0,1,.411-.453" fill="#fff" stroke="#00222f" stroke-width="0.5"/>
        <path id="Path_16347" data-name="Path 16347" d="M12.978,7.535a1.3,1.3,0,0,1-.534.2c-1.153.127-2.669-.174-3.779,0a.968.968,0,0,0-.736.9c-.159,1.387.133,3.034-.018,4.45a.6.6,0,0,1-1.19-.063c.147-1.477-.185-3.289.012-4.723C7.092,5.677,10.92,6.733,12.7,6.527a.634.634,0,0,1,.281,1.008" fill="#fff" stroke="#00222f" stroke-width="0.5"/>
        <path id="Path_16348" data-name="Path 16348" d="M28.792,6.543c1.329.089,2.982-.186,4.272-.011a2.2,2.2,0,0,1,1.578,1.344,18.046,18.046,0,0,1,.191,4.536c-.086.757-.676,1.031-1.186.413-.118-1.272.1-2.68-.018-3.935-.057-.6-.225-1.084-.9-1.164-1.057-.126-2.992.226-3.9-.055a.586.586,0,0,1-.039-1.128" fill="#fff" stroke="#00222f" stroke-width="0.5"/>
        <path id="Path_16349" data-name="Path 16349" d="M33.695,17.032c4.636-.635,5.333,6.339,1,6.844-4.661.544-5.344-6.249-1-6.844m.172,1.2a2.244,2.244,0,0,0,.659,4.439c2.8-.366,2.353-4.852-.659-4.439" fill="#fff" stroke="#00222f" stroke-width="0.5"/>
        <path id="Path_16350" data-name="Path 16350" d="M23.98,4.047a.607.607,0,0,1,.625.974l-5.094,5.048A.721.721,0,0,1,18.763,10,18.335,18.335,0,0,1,16.83,7.982a.6.6,0,0,1,.663-.841c.424.089,1.5,1.566,1.727,1.526Z" fill="#fff" stroke="#00222f" stroke-width="0.5"/>
      </g>
    </g>
  </g>
</svg>
