<svg xmlns="http://www.w3.org/2000/svg" xmlns:xlink="http://www.w3.org/1999/xlink" width="77" height="77" viewBox="0 0 77 77">
  <defs>
    <clipPath id="clip-path">
      <rect id="Rectangle_7676" data-name="Rectangle 7676" width="33.978" height="34" fill="none"/>
    </clipPath>
  </defs>
  <g id="Group_26187" data-name="Group 26187" transform="translate(-967 -2115)">
    <g id="Ellipse_23" data-name="Ellipse 23" transform="translate(967 2115)" fill="none" stroke="#fff" stroke-width="0.5">
      <circle cx="38.5" cy="38.5" r="38.5" stroke="none"/>
      <circle cx="38.5" cy="38.5" r="38.25" fill="none"/>
    </g>
    <g id="Group_26097" data-name="Group 26097" transform="translate(988 2135.383)">
      <g id="Group_26096" data-name="Group 26096" transform="translate(0 0)" clip-path="url(#clip-path)">
        <path id="Path_16404" data-name="Path 16404" d="M12.906,23.859a7.718,7.718,0,0,1,2.346,4.848,38.486,38.486,0,0,1,0,4.824c-.02.216-.038.384-.266.469H6.141c-.194-.07-.242-.213-.266-.4-.073-.621.069-1.359-.012-1.994C2.73,27.223-.46,24.34.054,18.473.38,14.758,1.1,10.98,1.492,7.263a1.809,1.809,0,0,1,3.45-.131,1.821,1.821,0,0,1,2.469,1.31c-.078,2.836-.482,5.658-.662,8.491.47.7,1.105,1.26,1.638,1.907a3,3,0,0,1,.967-.9c.3-.163,1.855-.575,1.882-.672.09-.327-.36-.571-.539-.8a2.7,2.7,0,0,1-.53-1.276,24.731,24.731,0,0,1-.007-3.673,2.029,2.029,0,0,1,1.78-1.834c.129-.02.516.02.555-.014a2.7,2.7,0,0,1,.081-.286A2.762,2.762,0,0,1,13.6,8.322c.342-.189,1.848-.585,1.914-.662.2-.236-.4-.668-.527-.833a2.69,2.69,0,0,1-.53-1.276,24.731,24.731,0,0,1-.007-3.673,2.026,2.026,0,0,1,1.9-1.844A10.591,10.591,0,0,1,19.29.18a1.748,1.748,0,0,1,.791,2.513c-.131.214-.51.47-.547.658-.221,1.163.36,2.239-.481,3.4-.136.189-.783.677-.585.91.046.053,1.137.339,1.349.423a2.467,2.467,0,0,1,1.664,1.582,2.693,2.693,0,0,1,3.141,3.053c-.077.655-.724.353-.805.434s.03,1.673,0,1.973a2.9,2.9,0,0,1-.508,1.3c-.133.175-.756.635-.556.871.064.075,1.545.464,1.871.638a3,3,0,0,1,.967.9L27.2,17.032a.953.953,0,0,0,.034-.434c-.1-2.35-.553-4.806-.668-7.161a2.289,2.289,0,0,1,.4-1.8,1.815,1.815,0,0,1,2.072-.5,1.809,1.809,0,0,1,3.45.131c.391,3.718,1.112,7.5,1.438,11.21.51,5.83-2.647,8.743-5.788,13.084-.155.475.129,2.026-.138,2.337a.382.382,0,0,1-.161.106H18.993c-.229-.085-.247-.253-.267-.469a28.241,28.241,0,0,1,.17-5.925,8.186,8.186,0,0,1,2.177-3.747ZM15.249,3.115c.994-.792,2.5-.161,3.6-.448A.929.929,0,0,0,18.8.87,12.232,12.232,0,0,0,16.082.9c-.332.095-.833.562-.833.907Zm3.481.4H16.22a1.312,1.312,0,0,0-.849.691A1.9,1.9,0,0,0,17.59,6.894a1.931,1.931,0,0,0,1.14-1.336Zm-4.284,29.71v-4.65a6.692,6.692,0,0,0-1.379-3.306l-6.82-7.636A1.274,1.274,0,0,0,4.418,19.4L8.41,24.64a.4.4,0,0,1-.66.458L3.589,19.622A2.156,2.156,0,0,1,3.9,17.1c.135-.15.388-.179.373-.429l0-9.039A1.038,1.038,0,0,0,2.2,7.774C1.949,11.539.992,15.467.791,19.209.509,24.467,4,27.4,6.681,31.387v1.84Zm12.852,0v-1.84c2.695-4.013,6.2-6.95,5.89-12.245-.218-3.723-1.155-7.621-1.413-11.368A1.034,1.034,0,0,0,29.707,7.7c.173,1.137-.25,8.746.062,9.172.054.074.221.13.309.227a2.156,2.156,0,0,1,.312,2.524L26.228,25.1a.4.4,0,0,1-.661-.457c1.362-1.944,3-3.717,4.244-5.729a1.27,1.27,0,0,0-2.078-1.275c-2.1,2.608-4.719,4.992-6.792,7.6a6.82,6.82,0,0,0-1.407,3.277v4.718ZM17.658,7.733a3.434,3.434,0,0,1-1.338,0,.692.692,0,1,0,1.338,0m-12.584.2V16.5l.867.064c0-.1.052-.2.062-.3.236-2.191.534-4.775.61-6.953.026-.75-.07-1.545-1.038-1.512a2.251,2.251,0,0,0-.5.141m23.83,0a1.085,1.085,0,0,0-.952-.05c-.662.265-.611.889-.586,1.487.088,2.171.374,4.706.61,6.886.01.1.061.2.062.3L28.9,16.5ZM13.375,9.673h2.376c.22,0,.486.6.539.8a2.2,2.2,0,0,1-1.029,2.457c-.089,1.21.258,2.5-.548,3.534-.178.228-.63.472-.539.8.027.1,1.576.509,1.881.672a3.038,3.038,0,0,1,.8.674c.075.084.024.2.165.166a2.537,2.537,0,0,1,.9-.84c.325-.174,1.807-.563,1.871-.638.2-.236-.4-.668-.528-.833a2.653,2.653,0,0,1-.52-1.22,24.008,24.008,0,0,1-.017-3.729c.112-1.124.761-1.514,1.727-1.823.066-.022.2.01.147-.117a2.919,2.919,0,0,0-.6-.54c-.464-.255-1.146-.342-1.639-.569a1.479,1.479,0,0,1-2.753,0c-.77.335-1.822.361-2.238,1.208m-2.41,1.773c-.064.38.046.905,0,1.3,1.031-.934,3.431.164,4.273-.846a1.271,1.271,0,0,0,.167-1.432c-1.06.093-2.3-.114-3.337,0a1.279,1.279,0,0,0-1.1.971m12.851.9a1.768,1.768,0,0,0-1.456-1.856,8.257,8.257,0,0,0-1.945.028c-.352.087-.882.561-.882.925v1.3a3.2,3.2,0,0,1,.837-.4Zm-9.371.8h-2.51a1.315,1.315,0,0,0-.849.691,1.9,1.9,0,0,0,2.219,2.686,1.931,1.931,0,0,0,1.14-1.336Zm8.568,0H20.5a1.315,1.315,0,0,0-.849.691,1.9,1.9,0,0,0,2.22,2.686,1.932,1.932,0,0,0,1.139-1.336Zm-9.639,4.216a3.434,3.434,0,0,1-1.338,0,.692.692,0,1,0,1.338,0m8.569,0a3.434,3.434,0,0,1-1.338,0,.692.692,0,1,0,1.338,0m-9.806,5.687h4.451V19.877a2.949,2.949,0,0,0-.279-.658c-.492-.754-1.468-.794-2.227-1.118a1.482,1.482,0,0,1-2.754,0c-.847.349-2,.4-2.341,1.409Zm5.255-3.178c-.134.95.1,2.2,0,3.178h4.451l3.149-3.545c-.339-1.019-1.489-1.054-2.341-1.409a1.482,1.482,0,0,1-2.754,0c-.945.333-2.332.555-2.505,1.776" transform="translate(0 0)" fill="#fff"/>
      </g>
    </g>
  </g>
</svg>
