<svg xmlns="http://www.w3.org/2000/svg" xmlns:xlink="http://www.w3.org/1999/xlink" width="77" height="77" viewBox="0 0 77 77">
  <defs>
    <clipPath id="clip-path">
      <rect id="Rectangle_7675" data-name="Rectangle 7675" width="32.49" height="32.552" transform="translate(0 0.001)" fill="#fff" stroke="#00222f" stroke-width="0.5"/>
    </clipPath>
  </defs>
  <g id="Group_26186" data-name="Group 26186" transform="translate(-637 -2115)">
    <g id="Ellipse_12" data-name="Ellipse 12" transform="translate(637 2115)" fill="none" stroke="#fff" stroke-width="0.5">
      <circle cx="38.5" cy="38.5" r="38.5" stroke="none"/>
      <circle cx="38.5" cy="38.5" r="38.25" fill="none"/>
    </g>
    <g id="Group_26095" data-name="Group 26095" transform="translate(659 2136.999)">
      <g id="Group_26094" data-name="Group 26094" clip-path="url(#clip-path)">
        <path id="Path_16388" data-name="Path 16388" d="M2.617,20.377a.709.709,0,0,0,.685.45l26.083-.022a.624.624,0,0,0,.465-.588l.015-5.414a.654.654,0,0,1,1.281.143c-.177,1.715.241,3.918-.021,5.573a2.074,2.074,0,0,1-1.58,1.581l-26.4.023a2.031,2.031,0,0,1-1.82-1.745l0-16.444a1.588,1.588,0,0,1-1.3-1.466C-.1,1.245.238.194,1.6.076a30.4,30.4,0,0,1,4.3,0A.652.652,0,0,1,5.976,1.37l-4.494.045c-.248.121-.245,1.1,0,1.217l29.377.037c.427-.061.434-1.221,0-1.292H8.41a.652.652,0,1,1,.079-1.3H30.783c2.114-.056,2.3,3.487.357,3.859v8.578c-.13.834-1.292.53-1.292.086V3.968H2.617Z" fill="#fff" stroke="#00222f" stroke-width="0.5"/>
        <path id="Path_16389" data-name="Path 16389" d="M4.376,5.282l10.676-.013.329.157,2.35,2.11a6.6,6.6,0,1,1-.865,1.01L14.7,6.6,4.445,6.556a.656.656,0,0,1-.069-1.274M21.483,7.233C14.9,7.9,15.69,18.1,22.511,17.58c6.744-.516,6-11.061-1.028-10.347" fill="#fff" stroke="#00222f" stroke-width="0.5"/>
        <path id="Path_16390" data-name="Path 16390" d="M9.182,27.709a2.8,2.8,0,0,1,1.808,1.718,11.444,11.444,0,0,1-.005,2.72c-.115.27-.359.324-.624.348-2.036.185-4.345-.148-6.411,0a.625.625,0,0,1-.686-.609,13.551,13.551,0,0,1,.021-2.333,2.771,2.771,0,0,1,1.844-1.844A2.774,2.774,0,0,1,4.855,24.8a2.6,2.6,0,0,1,4.628.054,2.779,2.779,0,0,1-.3,2.852M6.891,24.731a1.3,1.3,0,0,0,.529,2.555,1.3,1.3,0,0,0-.529-2.555m2.858,6.464V29.777c0-.367-.75-.773-1.055-.89a4.181,4.181,0,0,0-3.188.051c-.282.121-.944.5-.944.839v1.418Z" fill="#fff" stroke="#00222f" stroke-width="0.5"/>
        <path id="Path_16391" data-name="Path 16391" d="M18.259,27.709a2.8,2.8,0,0,1,1.808,1.718,11.444,11.444,0,0,1,0,2.72c-.115.27-.359.324-.624.348-2.036.185-4.345-.148-6.411,0a.625.625,0,0,1-.686-.609,13.551,13.551,0,0,1,.021-2.333,2.771,2.771,0,0,1,1.844-1.844,2.774,2.774,0,0,1-.274-2.906,2.6,2.6,0,0,1,4.628.054,2.779,2.779,0,0,1-.3,2.852m-2.291-2.978a1.3,1.3,0,0,0,.529,2.555,1.3,1.3,0,0,0-.529-2.555m2.858,6.464V29.777c0-.367-.75-.773-1.055-.89a4.181,4.181,0,0,0-3.188.051c-.282.121-.944.5-.944.839v1.418Z" fill="#fff" stroke="#00222f" stroke-width="0.5"/>
        <path id="Path_16392" data-name="Path 16392" d="M27.336,27.709a2.8,2.8,0,0,1,1.808,1.718,11.444,11.444,0,0,1,0,2.72c-.115.27-.359.324-.624.348-2.036.185-4.345-.148-6.411,0a.625.625,0,0,1-.686-.609,13.551,13.551,0,0,1,.021-2.333,2.771,2.771,0,0,1,1.844-1.844,2.774,2.774,0,0,1-.274-2.906,2.6,2.6,0,0,1,4.628.054,2.779,2.779,0,0,1-.3,2.852m-2.291-2.978a1.3,1.3,0,0,0,.529,2.555,1.3,1.3,0,0,0-.529-2.555M27.9,31.195V29.777c0-.367-.75-.773-1.055-.89a4.181,4.181,0,0,0-3.188.051c-.282.121-.944.5-.944.839v1.418Z" fill="#fff" stroke="#00222f" stroke-width="0.5"/>
        <path id="Path_16393" data-name="Path 16393" d="M6.97,7.875l6.786-.013a.652.652,0,0,1-.075,1.294c-2.047.237-4.546-.177-6.642-.007A.656.656,0,0,1,6.97,7.875" fill="#fff" stroke="#00222f" stroke-width="0.5"/>
        <path id="Path_16394" data-name="Path 16394" d="M6.97,10.468l6.786-.013a.652.652,0,0,1-.075,1.294c-2.047.237-4.546-.177-6.642-.007a.656.656,0,0,1-.069-1.274" fill="#fff" stroke="#00222f" stroke-width="0.5"/>
        <path id="Path_16395" data-name="Path 16395" d="M6.97,13.061l6.786-.013a.652.652,0,0,1-.075,1.294c-2.047.237-4.546-.177-6.642-.007a.656.656,0,0,1-.069-1.274" fill="#fff" stroke="#00222f" stroke-width="0.5"/>
        <path id="Path_16396" data-name="Path 16396" d="M6.97,15.654l6.786-.013a.652.652,0,0,1-.075,1.294c-2.047.237-4.546-.177-6.642-.007a.656.656,0,0,1-.069-1.274" fill="#fff" stroke="#00222f" stroke-width="0.5"/>
        <path id="Path_16397" data-name="Path 16397" d="M6.97,18.247l6.786-.013a.652.652,0,0,1-.075,1.294c-2.047.237-4.546-.177-6.642-.007a.656.656,0,0,1-.069-1.274" fill="#fff" stroke="#00222f" stroke-width="0.5"/>
        <path id="Path_16398" data-name="Path 16398" d="M4.378,7.874a.659.659,0,0,1,.368,1.265.659.659,0,0,1-.368-1.265" fill="#fff" stroke="#00222f" stroke-width="0.5"/>
        <path id="Path_16399" data-name="Path 16399" d="M4.378,10.467a.659.659,0,0,1,.368,1.265.659.659,0,0,1-.368-1.265" fill="#fff" stroke="#00222f" stroke-width="0.5"/>
        <path id="Path_16400" data-name="Path 16400" d="M4.378,13.06a.659.659,0,0,1,.368,1.265.659.659,0,0,1-.368-1.265" fill="#fff" stroke="#00222f" stroke-width="0.5"/>
        <path id="Path_16401" data-name="Path 16401" d="M4.378,15.653a.659.659,0,0,1,.368,1.265.659.659,0,0,1-.368-1.265" fill="#fff" stroke="#00222f" stroke-width="0.5"/>
        <path id="Path_16402" data-name="Path 16402" d="M4.378,18.246a.659.659,0,0,1,.368,1.265.659.659,0,0,1-.368-1.265" fill="#fff" stroke="#00222f" stroke-width="0.5"/>
        <path id="Path_16403" data-name="Path 16403" d="M20.5,9.17a.7.7,0,0,1,.487.048c1.184.823,2.477,1.515,3.662,2.333.535.37,1.116.672.488,1.366-1.331.645-2.8,2.055-4.1,2.626-.486.213-.937.052-1-.512-.189-1.627.145-3.605,0-5.271a.624.624,0,0,1,.465-.59m.833,4.6a23.205,23.205,0,0,0,1.973-1.228c.06-.056.163-.071.134-.189a23.556,23.556,0,0,0-2.107-1.338Z" fill="#fff" stroke="#00222f" stroke-width="0.5"/>
      </g>
    </g>
  </g>
</svg>
