<svg xmlns="http://www.w3.org/2000/svg" xmlns:xlink="http://www.w3.org/1999/xlink" width="77" height="77" viewBox="0 0 77 77">
  <defs>
    <clipPath id="clip-path">
      <rect id="Rectangle_7722" data-name="Rectangle 7722" width="39.143" height="38" fill="none" stroke="#00222f" stroke-width="0.7"/>
    </clipPath>
  </defs>
  <g id="Group_26197" data-name="Group 26197" transform="translate(-637 -1768)">
    <g id="Ellipse_12" data-name="Ellipse 12" transform="translate(637 1768)" fill="none" stroke="#fff" stroke-width="0.5">
      <circle cx="38.5" cy="38.5" r="38.5" stroke="none"/>
      <circle cx="38.5" cy="38.5" r="38.25" fill="none"/>
    </g>
    <g id="Group_26196" data-name="Group 26196" transform="translate(656 1788)">
      <g id="Group_26195" data-name="Group 26195" transform="translate(0 0)" clip-path="url(#clip-path)">
        <path id="Path_16447" data-name="Path 16447" d="M27.937,6.707l-4.693-.079c-1.279-.146-.835-1.713-.825-2.56a24.693,24.693,0,0,0,0-2.688c-.009-.08-.036-.273-.122-.273H1.318a1.293,1.293,0,0,0-.2.2V36.322a.786.786,0,0,0,.119.118h26.58a.78.78,0,0,0,.118-.118V31.274a.566.566,0,0,1,1.109.153c.156,1.6-.111,3.481-.024,5.113a1.323,1.323,0,0,1-1.065.986l-26.643.022a1.307,1.307,0,0,1-1.223-.907C-.047,24.768-.006,12.843.071.964A1.434,1.434,0,0,1,1.317,0L22.7,0l.476.076L28.807,5.64l.2.274.034,6.746c-.12.641-1.1.434-1.1,0ZM23.521,1.975V5.523l3.55.039Z" transform="translate(0 0)" fill="#fff" stroke="#00222f" stroke-width="0.7"/>
        <path id="Path_16448" data-name="Path 16448" d="M33.262,32.061a8.381,8.381,0,1,1,3.323-2.96c-.159.25-.689.76-.621,1.005a14.682,14.682,0,0,0,.968,1.246c.187.12.4.05.6.108a1.813,1.813,0,0,1,.939.638c1.307,1.448,2.379,3.352,3.7,4.821a1.648,1.648,0,0,1,.079,1.868,11.175,11.175,0,0,1-1.967,1.582,1.612,1.612,0,0,1-2.04-.469c-1.363-1.494-2.5-3.514-3.854-5.057-.351-.371-.041-1.118-.1-1.391s-.917-1.032-1.021-1.391M28.6,17.329c-4.516.479-7.312,5.376-5.855,9.6a7.254,7.254,0,1,0,5.855-9.6m5.619,14.1c-.066.1.687,1.021.826,1.165l.9-.654c-.152-.178-.665-1.022-.836-1.054-.21-.04-.642.519-.894.543m2.816,1.114a16.208,16.208,0,0,0-1.591,1.174.546.546,0,0,0-.089.551l3.787,4.969a.5.5,0,0,0,.556.16,13.31,13.31,0,0,0,1.5-1.107.516.516,0,0,0,.162-.559c-.608-.616-3.615-5.062-4.047-5.188a.537.537,0,0,0-.28,0" transform="translate(-3.361 -2.555)" fill="#fff" stroke="#00222f" stroke-width="0.7"/>
        <path id="Path_16449" data-name="Path 16449" d="M17.954,5.283c.03.05.87.359,1.067.471A6.581,6.581,0,0,1,22.006,9.63c.109.422.107,1.139.21,1.448.022.066.5.406.637.624.77,1.232-.144,2.4-1.476,2.507-3.55.279-7.459-.216-11.048,0a1.666,1.666,0,0,1-1.412-2.6c.161-.23.505-.384.594-.588.119-.272.13-1.018.235-1.423a6.421,6.421,0,0,1,2.762-3.705c.215-.134,1.2-.554,1.241-.613s.01-.287.073-.439c.242-.583,1.618-.833,2.192-.811a3.385,3.385,0,0,1,1.81.636c.175.242.072.524.13.619m-7.268,5.689H12.5v-1.7c0-.5,1.1-.436,1.1,0v1.7l4.3,0c.081.017.272-.057.272-.122V9.2c0-.11.4-.336.563-.316s.541.324.541.473v1.617H21.1A5.279,5.279,0,0,0,17.787,6.4c-.173.486-.074,2.109-.609,2.27-.662.2-.755-.292-.732-.811.035-.811.331-1.683.317-2.512a2.222,2.222,0,0,0-1.822-.005L15.335,8.1a.571.571,0,0,1-.843.522c-.4-.188-.436-1.771-.492-2.228a5.059,5.059,0,0,0-3.312,4.574m-.655,1.12c-.572.409-.254.981.379,1.01,3.5-.221,7.354.293,10.809,0,.71-.06,1.071-.375.508-.987Z" transform="translate(-1.364 -0.637)" fill="#fff" stroke="#00222f" stroke-width="0.7"/>
        <path id="Path_16450" data-name="Path 16450" d="M10.991,37.4l15.524-.017c.857.1.561,1.187-.235,1.109H11.29a.581.581,0,0,1-.3-1.091" transform="translate(-1.692 -5.917)" fill="#fff" stroke="#00222f" stroke-width="0.7"/>
        <path id="Path_16451" data-name="Path 16451" d="M7.143,19.764a1.071,1.071,0,0,1,.567-.182l11.126,0c.783.093.766,1.029.16,1.109H7.473c-.442.016-.568-.676-.33-.93" transform="translate(-1.112 -3.099)" fill="#fff" stroke="#00222f" stroke-width="0.7"/>
        <path id="Path_16452" data-name="Path 16452" d="M11.228,31.13l8.026-.019c.921.058.927,1.122,0,1.183-2.5-.206-5.443.276-7.887,0-.9-.1-.917-1.024-.139-1.164" transform="translate(-1.688 -4.924)" fill="#fff" stroke="#00222f" stroke-width="0.7"/>
        <path id="Path_16453" data-name="Path 16453" d="M10.991,24.945l7.042.026c.484.379.253.993-.351,1.065-1.968.231-4.377-.178-6.392,0a.581.581,0,0,1-.3-1.091" transform="translate(-1.692 -3.948)" fill="#fff" stroke="#00222f" stroke-width="0.7"/>
        <path id="Path_16454" data-name="Path 16454" d="M7.339,30a.564.564,0,0,1,.7.7,11.761,11.761,0,0,1-.874,1.024c-.268.293-1.14,1.257-1.487,1.237a5.638,5.638,0,0,1-1.569-1.417.558.558,0,0,1,.848-.69c.168.111.626.731.778.7C6.2,31.3,6.894,30.1,7.339,30" transform="translate(-0.641 -4.746)" fill="#fff" stroke="#00222f" stroke-width="0.7"/>
        <path id="Path_16455" data-name="Path 16455" d="M7.892,23.995c.138.13.247.554.088.719-.5.339-1.58,1.917-2.035,2.065-.535.173-1.3-.666-1.622-1.068-.236-.294-.413-.5-.155-.867.519-.734,1.109.4,1.564.624.137-.024,1.16-1.387,1.471-1.53a.818.818,0,0,1,.689.058" transform="translate(-0.64 -3.781)" fill="#fff" stroke="#00222f" stroke-width="0.7"/>
        <path id="Path_16456" data-name="Path 16456" d="M6.153,38.891a.54.54,0,0,1-.758.063,13.293,13.293,0,0,1-1.222-1.222.545.545,0,0,1,.61-.848c.361.082.6.64.953.767.152-.026,1.182-1.263,1.473-1.449.562-.359,1.091.219.693.85a21.8,21.8,0,0,1-1.749,1.839" transform="translate(-0.643 -5.712)" fill="#fff" stroke="#00222f" stroke-width="0.7"/>
        <path id="Path_16457" data-name="Path 16457" d="M29.216,19.136c6.57-.741,9.273,7.828,3.777,10.954a5.913,5.913,0,0,1-8.611-6.8,6.063,6.063,0,0,1,4.834-4.157m.157,1.1c-5.465.617-5.369,9.017.137,9.52,7.039.642,7-10.326-.137-9.52" transform="translate(-3.82 -3.021)" fill="#fff" stroke="#00222f" stroke-width="0.7"/>
        <path id="Path_16458" data-name="Path 16458" d="M32.932,23.64a.579.579,0,0,1,.375,1L30.2,27.685a.707.707,0,0,1-.6-.04c-.255-.409-1.735-1.545-1.834-1.874-.147-.49.236-.824.716-.717.386.085,1.3,1.356,1.506,1.32l2.571-2.561a.718.718,0,0,1,.372-.174" transform="translate(-4.39 -3.741)" fill="#fff" stroke="#00222f" stroke-width="0.7"/>
      </g>
    </g>
  </g>
</svg>
