<svg xmlns="http://www.w3.org/2000/svg" xmlns:xlink="http://www.w3.org/1999/xlink" width="77" height="77" viewBox="0 0 77 77">
  <defs>
    <clipPath id="clip-path">
      <rect id="Rectangle_7727" data-name="Rectangle 7727" width="42.532" height="42.537" transform="translate(0 0)" fill="none" stroke="#00222f" stroke-width="0.5"/>
    </clipPath>
  </defs>
  <g id="Group_26206" data-name="Group 26206" transform="translate(-293 -2000)">
    <g id="Ellipse_12" data-name="Ellipse 12" transform="translate(293 2000)" fill="none" stroke="#fff" stroke-width="0.5">
      <circle cx="38.5" cy="38.5" r="38.5" stroke="none"/>
      <circle cx="38.5" cy="38.5" r="38.25" fill="none"/>
    </g>
    <g id="Group_26205" data-name="Group 26205" transform="translate(310 2017)">
      <g id="Group_26204" data-name="Group 26204" clip-path="url(#clip-path)">
        <path id="Path_16469" data-name="Path 16469" d="M15.786,15.115V19.18h6.223c1.025-5.337,8.82-4.032,8.132,1.327h1.535c.218,0,.622.489.622.7V38.343h1.245V15.654c0-.41.527-.594.868-.625a26.4,26.4,0,0,1,3.978.011c.233.032.713.292.713.531V38.343h2.863c.234,0,.5.3.534.544a25.906,25.906,0,0,1-.038,3.27.656.656,0,0,1-.574.339l-24.893-.01c-.4-.081-.514-.319-.548-.7a19.248,19.248,0,0,1,.009-2.9c.034-.206.348-.543.534-.543h2.863V26.521c0-.294.606-.518.867-.543a26.424,26.424,0,0,1,3.98.012c.232.033.712.292.712.531V38.343h1.328V23.991H25.287a6.026,6.026,0,0,1-1.259-.484,4.029,4.029,0,0,1-2.022-2.913l-13.775.033a4.283,4.283,0,0,1-2.546,3.095c-.207.088-.79.175-.841.321l0,4.171a2.959,2.959,0,0,1,2.036,1.9l4.165,0a2.785,2.785,0,0,1,5.384.078c.865,3.478-4.4,4.872-5.425,1.342l-4.18.042a3,3,0,0,1-1.267,1.637c-.3.185-.681.155-.726.519-.126,1.01.107,2.274,0,3.314A2.793,2.793,0,0,1,5.2,42.314C1.528,43.7-.319,38.221,3.427,37.044l0-3.389c-.045-.23-.551-.33-.774-.471a2.761,2.761,0,0,1,.778-5.013l0-4.056c-.051-.259-.584-.278-.852-.393A4.14,4.14,0,1,1,7.64,17.66a13.545,13.545,0,0,1,.637,1.52h6.1V15.156a10.842,10.842,0,0,0-1.41-.332,7.553,7.553,0,1,1,2.82.291M14.442,1.451A6.216,6.216,0,0,0,8.984,6.945a6.133,6.133,0,1,0,5.458-5.494m23.25,15.074H35.037V35.6h2.655ZM2.208,17.965c-2.523,2.523,1.386,6.376,3.869,3.827s-1.359-6.338-3.869-3.827M26.739,22.5V20.963c0-.072.388-.363.511-.4.434-.135,1.013.042,1.344-.066.11-.036.118-.1.136-.2a2.7,2.7,0,1,0-1.991,2.2m4.066-.5H28.15V35.6h2.655ZM24,27.475H21.263V35.6H24ZM3.732,29.568c-1.638.338-.885,3.3.936,2.511a1.343,1.343,0,0,0-.936-2.511m9.626,0a1.334,1.334,0,0,0-.081,2.53c2.1.723,2.531-2.98.081-2.53M24,37.015H21.263v1.327H24Zm6.8,0H28.15v1.327h2.655Zm6.887,0H35.037v1.327h2.655ZM3.815,38.445a1.346,1.346,0,0,0,.627,2.616,1.345,1.345,0,0,0-.627-2.616m37.278,1.308H17.86V41.08H41.093Z" fill="#fff" stroke="#00222f" stroke-width="0.5"/>
        <path id="Path_16470" data-name="Path 16470" d="M15.786,2.754V4.081H17.2V5.492H15.33a1.134,1.134,0,0,0-.792.369c-.521.917.717.923,1.183,1.064a2.1,2.1,0,0,1,.687,3.627c-.116.09-.622.305-.622.373v1.452H14.375V11.05H13.089a.862.862,0,0,1-.124-.125V9.681c0-.058.138-.112.207-.125.746-.136,2.816.475,2.513-.853-.114-.5-.875-.424-1.273-.552a2.087,2.087,0,0,1-.7-3.531c.185-.163.664-.335.664-.373V2.754Z" fill="#fff" stroke="#00222f" stroke-width="0.5"/>
      </g>
    </g>
  </g>
</svg>
