<svg xmlns="http://www.w3.org/2000/svg" xmlns:xlink="http://www.w3.org/1999/xlink" width="77" height="77" viewBox="0 0 77 77">
  <defs>
    <clipPath id="clip-path">
      <rect id="Rectangle_7671" data-name="Rectangle 7671" width="35" height="31.844" fill="none"/>
    </clipPath>
  </defs>
  <g id="Group_26079" data-name="Group 26079" transform="translate(-215 -2892)">
    <g id="Ellipse_12" data-name="Ellipse 12" transform="translate(215 2892)" fill="none" stroke="#fff" stroke-width="0.5">
      <circle cx="38.5" cy="38.5" r="38.5" stroke="none"/>
      <circle cx="38.5" cy="38.5" r="38.25" fill="none"/>
    </g>
    <g id="Group_26078" data-name="Group 26078" transform="translate(236 2915)">
      <g id="Group_26077" data-name="Group 26077" clip-path="url(#clip-path)">
        <path id="Path_16363" data-name="Path 16363" d="M17.465,10.878a3.648,3.648,0,1,0,7.294,0h1.167a4.847,4.847,0,0,1-2.562,4.258c-.106.059-.615.243-.635.276-.087.138.038,1.057-.012,1.3a1.707,1.707,0,0,1,1.6,2.115c1.077.085,2.33-.119,3.384.008.985.118,1.378.948,1.434,1.849s0,1.518-1.1,1.352V34.4a.652.652,0,0,1-.617.4h-12.7c-.179.043-.545-.264-.545-.4V22.036c-1.1.164-1.146-.445-1.1-1.353.145-2.753,2.969-1.626,4.817-1.856a1.707,1.707,0,0,1,1.6-2.115c-.051-.243.075-1.162-.012-1.3-.02-.033-.529-.216-.635-.276A4.849,4.849,0,0,1,16.3,10.878Zm4.158,4.813H20.6v1.021h1.021Zm1.6,3.136c.018-.352.031-.906-.417-1.005-1.026.043-2.188-.111-3.2-.02-.643.059-.63.469-.617,1.025Zm4.741,2.115c.03-.507.065-.95-.545-1.023-4.284.041-8.585-.072-12.857.057-.421.2-.305.574-.311.965Zm-1.021,1.094H15.276V33.7H26.947Z" transform="translate(-3.612 -3.005)" fill="#f7f8fc"/>
        <path id="Path_16364" data-name="Path 16364" d="M3.713,24.269H6.668a3.962,3.962,0,0,1,.73.365c.8.638.589,1.942.62,2.844,1.356.071,1.665,1.187,1.532,2.371a1.6,1.6,0,0,1-.62,1.057,4.584,4.584,0,0,1-.511.292H7.069l.866,3.983c.092.516-.083.785-.607.833-1.644.151-3.514-.12-5.184,0a.641.641,0,0,1-.587-.507l.922-4.339A3.279,3.279,0,0,1,0,28.528V16.8a1.88,1.88,0,0,1,3.509-.53,3.011,3.011,0,0,1,.2.524ZM1.651,16.408a.859.859,0,0,0-.565.676v11.09a2.111,2.111,0,0,0,1.735,1.911l5.34-.02c.441-.183.546-1.418-.323-1.5-1.2-.109-2.778.179-3.925-.014a1.652,1.652,0,0,1-1.3-1.475l0-9.99a.787.787,0,0,0-.964-.682m5.2,11.07V25.764a1,1,0,0,0-.218-.292c-.025-.012-.52-.109-.548-.109H3.713V27a.658.658,0,0,0,.475.474ZM2.838,34.917H6.7l-.812-3.71-2.26.033Z" transform="translate(0 -4.218)" fill="#f7f8fc"/>
        <path id="Path_16365" data-name="Path 16365" d="M40.991,16.8a1.9,1.9,0,0,1,3.714.007V28.537a3.279,3.279,0,0,1-2.477,2.639l.922,4.339a.643.643,0,0,1-.588.507c-1.669-.119-3.539.152-5.183,0a.648.648,0,0,1-.6-.346,42.835,42.835,0,0,1,.86-4.47H36.286a4.584,4.584,0,0,1-.511-.292,1.6,1.6,0,0,1-.62-1.057c-.133-1.184.176-2.3,1.531-2.371.031-.9-.184-2.207.621-2.844a3.98,3.98,0,0,1,.729-.365h2.954Zm1.657-.386a.906.906,0,0,0-.565.749l0,9.923a1.653,1.653,0,0,1-1.3,1.475c-1.146.193-2.722-.1-3.925.014-.907.083-.745,1.382-.274,1.52l5.291,0a2.111,2.111,0,0,0,1.735-1.911V17.093a.794.794,0,0,0-.971-.676m-1.657,8.955H38.62c-.028,0-.523.1-.549.109a1.008,1.008,0,0,0-.218.292v1.714h2.663a.657.657,0,0,0,.474-.474ZM38,34.926h3.866l-.794-3.677-2.26-.033Z" transform="translate(-9.705 -4.226)" fill="#f7f8fc"/>
        <path id="Path_16366" data-name="Path 16366" d="M22.97,4.25c2.855-.169,3.043,2.888,2.857,4.976a2.706,2.706,0,0,1-5.4,0c-.179-2-.086-4.819,2.539-4.976m-.352,2.1V7.513H21.6V8.534h1.021V9.628l-.948.035a1.6,1.6,0,0,0,2.917,0l-.948-.035V8.534h1.021V7.513H23.639V6.346c.244-.022.53.032.767,0,.083-.011.148.028.107-.108a1.557,1.557,0,0,0-2.77,0c-.041.136.024.1.107.108.139.019.74-.027.767,0" transform="translate(-5.629 -1.172)" fill="#f7f8fc"/>
        <path id="Path_16367" data-name="Path 16367" d="M15.7,5.83H14.6A7.187,7.187,0,0,1,17.414,0l.613.9A6.394,6.394,0,0,0,15.7,5.83" transform="translate(-4.035)" fill="#f7f8fc"/>
        <path id="Path_16368" data-name="Path 16368" d="M32.448,5.83H31.354A6.394,6.394,0,0,0,29.026.9l.613-.9a7.187,7.187,0,0,1,2.809,5.83" transform="translate(-8.019)" fill="#f7f8fc"/>
        <path id="Path_16369" data-name="Path 16369" d="M19.394,2.62l.612.9a3.931,3.931,0,0,0-1.337,2.969c-1.143.183-1.239.211-1.043-.9A4.6,4.6,0,0,1,19.394,2.62" transform="translate(-4.847 -0.724)" fill="#f7f8fc"/>
        <path id="Path_16370" data-name="Path 16370" d="M28.027,2.62a4.325,4.325,0,0,1,1.652,2.5c.058.219.309,1.282.141,1.4a2.292,2.292,0,0,1-1.067-.036c-.07-.1-.016-.434-.05-.606a3.835,3.835,0,0,0-1.288-2.364Z" transform="translate(-7.574 -0.724)" fill="#f7f8fc"/>
      </g>
    </g>
  </g>
</svg>
