<svg xmlns="http://www.w3.org/2000/svg" xmlns:xlink="http://www.w3.org/1999/xlink" width="77" height="77" viewBox="0 0 77 77">
  <defs>
    <clipPath id="clip-path">
      <rect id="Rectangle_7673" data-name="Rectangle 7673" width="31.62" height="37.468" fill="none" stroke="#00222f" stroke-width="0.5"/>
    </clipPath>
  </defs>
  <g id="Group_26087" data-name="Group 26087" transform="translate(-1038 -2880)">
    <g id="Ellipse_12" data-name="Ellipse 12" transform="translate(1038 2880)" fill="none" stroke="#fff" stroke-width="0.5">
      <circle cx="38.5" cy="38.5" r="38.5" stroke="none"/>
      <circle cx="38.5" cy="38.5" r="38.25" fill="none"/>
    </g>
    <g id="Group_26086" data-name="Group 26086" transform="translate(1061 2900)">
      <g id="Group_26085" data-name="Group 26085" clip-path="url(#clip-path)">
        <path id="Path_16379" data-name="Path 16379" d="M27.512,24.005h2.926V6.45H29.084c-.395,0-.653-1.006.015-1.155a12.48,12.48,0,0,1,2.089,0,.562.562,0,0,1,.414.464l.008,22.309a.656.656,0,0,1-.406.618H20.71L22.1,32.75c.2.132,2.141-.033,2.6.037a.564.564,0,0,1,.447.358l.028,3.839a.566.566,0,0,1-.614.483H7.067a.564.564,0,0,1-.62-.55,24.638,24.638,0,0,1,0-3.517c.029-.321.131-.559.483-.614.455-.072,2.4.1,2.6-.037l1.386-4.063H.415a.655.655,0,0,1-.407-.618L.017,5.759A.562.562,0,0,1,.431,5.3a12.48,12.48,0,0,1,2.089,0c.669.149.41,1.155.015,1.155H1.182V24.005H4.108V.415A.655.655,0,0,1,4.727.009l18.21.008.335.177c1.4,1.452,2.9,2.812,4.241,4.318ZM22.246,1.184H5.279V24.005H7.034V15.63c0-.116.323-.417.479-.4,1.154.072,2.448-.111,3.583-.008.209.019.618.164.618.406v8.375H13.47V9.193c0-.116.323-.417.479-.4,1.154.072,2.448-.111,3.583-.008.209.019.618.164.618.406V24.005h1.755V3.341c0-.51,1.17-.51,1.17,0V24.005h2.341V6.852c0-.51,1.169-.51,1.169,0V24.005h1.755V5.28H22.648a.916.916,0,0,1-.4-.4Zm3.218,2.926L23.417,2.061V4.109ZM16.98,9.961H14.639V24.005H16.98ZM10.544,16.4H8.2v7.607h2.341Zm19.893,8.777H1.184v2.341H30.437Zm-9.581,7.607L19.47,28.721H12.15l-1.386,4.062ZM24,33.953H7.618v2.341H24Z" transform="translate(0 0)" fill="#fff" stroke="#00222f" stroke-width="0.5"/>
        <path id="Path_16380" data-name="Path 16380" d="M8.139,10.371c-.3-.2-.651-.229-.974-.415A1.615,1.615,0,0,1,7.622,7c.139-.036.48-.015.509-.04.107-.089.021-.662.7-.576.48.062.425.521.489.576.022.018.413.019.564.057a1.638,1.638,0,0,1,1.188,1.672.589.589,0,0,1-.91.538c-.478-.271-.011-1.178-.849-1.089V9.42c.3.2.651.23.974.415a1.616,1.616,0,0,1-.458,2.954c-.139.036-.479.015-.509.04-.106.089-.02.662-.7.575-.479-.061-.424-.52-.489-.575-.022-.019-.413-.019-.564-.058A1.636,1.636,0,0,1,6.379,11.1a.589.589,0,0,1,.91-.538c.479.27.011,1.177.85,1.089Zm0-2.23c-.813,0-.747.829,0,.951Zm1.17,3.511c.813,0,.746-.83,0-.951Z" transform="translate(0.65 0.651)" fill="#fff" stroke="#00222f" stroke-width="0.5"/>
        <path id="Path_16381" data-name="Path 16381" d="M2.553,23.4c.972.075,2.265-.158,3.2-.011a.59.59,0,0,1,0,1.162,20.983,20.983,0,0,1-3.136,0,.592.592,0,0,1-.062-1.15" transform="translate(0.217 2.38)" fill="#fff" stroke="#00222f" stroke-width="0.5"/>
      </g>
    </g>
  </g>
</svg>
