<svg xmlns="http://www.w3.org/2000/svg" xmlns:xlink="http://www.w3.org/1999/xlink" width="77" height="77" viewBox="0 0 77 77">
  <defs>
    <clipPath id="clip-path">
      <rect id="Rectangle_7672" data-name="Rectangle 7672" width="35.015" height="35.003" fill="none" stroke="#00222f" stroke-width="0.5"/>
    </clipPath>
  </defs>
  <g id="Group_26084" data-name="Group 26084" transform="translate(-637 -2880)">
    <g id="Ellipse_12" data-name="Ellipse 12" transform="translate(637 2880)" fill="none" stroke="#fff" stroke-width="0.5">
      <circle cx="38.5" cy="38.5" r="38.5" stroke="none"/>
      <circle cx="38.5" cy="38.5" r="38.25" fill="none"/>
    </g>
    <g id="Group_26083" data-name="Group 26083" transform="translate(658 2901)">
      <g id="Group_26082" data-name="Group 26082" clip-path="url(#clip-path)">
        <path id="Path_16371" data-name="Path 16371" d="M3.11.022,31.693,0a3.763,3.763,0,0,1,3.321,3.32V31.682A3.764,3.764,0,0,1,31.693,35H3.321A3.765,3.765,0,0,1,0,31.682L0,3.245A3.8,3.8,0,0,1,3.11.022M33.762,9.377V3.713a2.625,2.625,0,0,0-2.541-2.459l-27.275,0A2.637,2.637,0,0,0,1.253,3.713V9.377Zm0,1.25H1.253V31.288a2.652,2.652,0,0,0,2.771,2.465l27.119,0a2.636,2.636,0,0,0,2.619-2.461Z" fill="#fff" stroke="#00222f" stroke-width="0.5"/>
        <path id="Path_16372" data-name="Path 16372" d="M4.182,21.908a18.762,18.762,0,0,1,2.566-.02c2.215.2,2.827,3,1.439,4.5,1.18,1.263.965,3.647-.758,4.316a9.648,9.648,0,0,1-3.03.177.753.753,0,0,1-.628-.467l-.037-7.857a.864.864,0,0,1,.448-.646m.882,3.811h1.68a3.176,3.176,0,0,0,.427-.2,1.562,1.562,0,0,0,.4-1.563c-.08-.225-.519-.738-.746-.738H5.064Zm0,3.828H6.822c.228,0,.666-.513.746-.738a1.562,1.562,0,0,0-.4-1.563,3.176,3.176,0,0,0-.427-.2H5.064Z" transform="translate(-0.763 -4.469)" fill="#fff" stroke="#00222f" stroke-width="0.5"/>
        <path id="Path_16373" data-name="Path 16373" d="M36.839,27.406H34.065c-.429,0-.722-1.12.083-1.245l3.651.012c.7.156.362,1.424.215,1.9a3.954,3.954,0,1,1-2.542-5.043c.636.192,1.965.773,1.62,1.622-.379.932-1.367-.138-1.895-.331a2.635,2.635,0,1,0,1.642,3.085" transform="translate(-6.203 -4.671)" fill="#fff" stroke="#00222f" stroke-width="0.5"/>
        <path id="Path_16374" data-name="Path 16374" d="M19.888,23.993a3.956,3.956,0,0,1,6.67,3.582A3.887,3.887,0,0,1,21.6,30.55a3.953,3.953,0,0,1-1.709-6.557m2.694.148a2.643,2.643,0,0,0-1.939,4.237,2.6,2.6,0,0,0,4.441-2.643,2.664,2.664,0,0,0-2.5-1.594" transform="translate(-3.838 -4.668)" fill="#fff" stroke="#00222f" stroke-width="0.5"/>
        <path id="Path_16375" data-name="Path 16375" d="M16.918,29.211a.685.685,0,0,1-.1,1.309,22.413,22.413,0,0,1-3.5.021c-.485-.057-.624-.375-.665-.819-.194-2.075.146-4.453.008-6.56a.693.693,0,0,1,1.109-.515,1.883,1.883,0,0,1,.214.275v6.289Z" transform="translate(-2.575 -4.601)" fill="#fff" stroke="#00222f" stroke-width="0.5"/>
        <path id="Path_16376" data-name="Path 16376" d="M22.5,4.54c2.926-.379,3.285,4.085.447,4.276C20.243,9,19.865,4.883,22.5,4.54m.075,1.324c-1.15.261-.426,2.247.687,1.469a.824.824,0,0,0-.687-1.469" transform="translate(-4.235 -0.924)" fill="#fff" stroke="#00222f" stroke-width="0.5"/>
        <path id="Path_16377" data-name="Path 16377" d="M29.383,4.539c2.892-.415,3.326,4.083.447,4.276a2.155,2.155,0,0,1-.447-4.276m.075,1.324a.834.834,0,0,0,.435,1.608.834.834,0,0,0-.435-1.608" transform="translate(-5.643 -0.923)" fill="#fff" stroke="#00222f" stroke-width="0.5"/>
        <path id="Path_16378" data-name="Path 16378" d="M36.264,4.539c2.9-.414,3.35,4.081.447,4.276-2.667.179-3.063-3.9-.447-4.276m.075,1.324a.84.84,0,0,0,.15,1.62.827.827,0,1,0-.15-1.62" transform="translate(-7.054 -0.923)" fill="#fff" stroke="#00222f" stroke-width="0.5"/>
      </g>
    </g>
  </g>
</svg>
