<svg id="Group_25575" data-name="Group 25575" xmlns="http://www.w3.org/2000/svg" width="22" height="21" viewBox="0 0 22 21">
  <g id="Ellipse_18" data-name="Ellipse 18" fill="none" stroke="#fff" stroke-width="0.4">
    <ellipse cx="11" cy="10.5" rx="11" ry="10.5" stroke="none"/>
    <ellipse cx="11" cy="10.5" rx="10.8" ry="10.3" fill="none"/>
  </g>
  <g id="Group_4858" data-name="Group 4858" transform="translate(8.106 6.06)">
    <path id="Path_8390" data-name="Path 8390" d="M3.14,10.423a.145.145,0,0,1-.131-.083L.291,4.531A3.235,3.235,0,0,1,.473,1.5,3.066,3.066,0,0,1,2.966,0a3.439,3.439,0,0,1,.346,0A3.066,3.066,0,0,1,5.806,1.5,3.235,3.235,0,0,1,5.988,4.53L3.27,10.339a.145.145,0,0,1-.131.083M3.14.288c-.053,0-.106,0-.159,0A2.781,2.781,0,0,0,.719,1.655,2.946,2.946,0,0,0,.554,4.41L3.14,9.938,5.726,4.409A2.946,2.946,0,0,0,5.56,1.654,2.782,2.782,0,0,0,3.3.292c-.052,0-.105,0-.158,0" transform="translate(0)" fill="#fff" stroke="#fff" stroke-width="0.3"/>
    <path id="Path_8391" data-name="Path 8391" d="M9.532,11.339a1.723,1.723,0,1,1,1.723-1.723,1.725,1.725,0,0,1-1.723,1.723m0-3.158a1.435,1.435,0,1,0,1.434,1.434A1.436,1.436,0,0,0,9.532,8.181" transform="translate(-6.392 -6.461)" fill="#fff" stroke="#fff" stroke-width="0.3"/>
  </g>
</svg>
